<svg width="389" height="270" viewBox="0 0 389 270" fill="none" xmlns="http://www.w3.org/2000/svg">
<g clip-path="url(#clip0_6_421925)">
<rect width="389" height="270" fill="white"/>
<path d="M212.748 60H172.252L152 95.5035L172.252 131H212.748L233 95.5035L212.748 60Z" stroke="url(#paint0_linear_6_421925)" stroke-width="0.75" stroke-miterlimit="10"/>
<path d="M358.033 85.1699H350.178L346.25 91.9962L350.178 98.8226H358.033L361.967 91.9962L358.033 85.1699Z" stroke="#CDCDCD" stroke-miterlimit="10"/>
<path d="M124.916 85H74.416L49.166 128.995L74.416 173H124.916L150.166 128.995L124.916 85Z" stroke="#333333" stroke-width="0.75" stroke-miterlimit="10"/>
<path d="M136.229 38.4707L129.048 50.9414H114.681L107.5 38.4707L114.681 26H129.048L136.229 38.4707Z" stroke="#CDCDCD" stroke-width="0.5" stroke-miterlimit="10"/>
<path d="M142.5 38.5L132.252 56H111.748L101.5 38.5L111.748 21H132.252L142.5 38.5Z" stroke="#CDCDCD" stroke-width="0.25" stroke-miterlimit="10"/>
<path d="M295.662 127H254.67L234.166 161.996L254.67 197H295.662L316.166 161.996L295.662 127Z" stroke="url(#paint1_linear_6_421925)" stroke-width="0.75" stroke-miterlimit="10"/>
<path d="M166.354 50.6499H218.46L242.675 92.7076L251.192 92.7013" stroke="#CDCDCD" stroke-width="0.5" stroke-miterlimit="10"/>
<path d="M166.355 50.6562L139.341 97.5556" stroke="#CDCDCD" stroke-width="0.5" stroke-miterlimit="10"/>
<path d="M127.911 80H71.4108L43.166 128.495L71.4108 177H127.911L156.166 128.495L127.911 80Z" stroke="#8C8C8C" stroke-width="0.25" stroke-miterlimit="10"/>
<path d="M285.169 75H265.174L255.166 92.5054L265.174 110H285.169L295.166 92.5054L285.169 75Z" stroke="#CDCDCD" stroke-width="0.25" stroke-miterlimit="10"/>
<path d="M287.499 71.6851H263.29L251.192 92.7013L263.29 113.717H287.499L299.597 92.7013L287.499 71.6851Z" stroke="#CDCDCD" stroke-width="0.5" stroke-miterlimit="10"/>
<path d="M298.92 123H252.412L229.166 161.997L252.412 201H298.92L322.166 161.997L298.92 123Z" stroke="#8C8C8C" stroke-width="0.25" stroke-miterlimit="10"/>
<path d="M205.162 155H161.17L139.166 193.496L161.17 232H205.162L227.166 193.496L205.162 155Z" stroke="#333333" stroke-width="0.75" stroke-miterlimit="10"/>
<path d="M208.42 151H158.912L134.166 193.496L158.912 236H208.42L233.166 193.496L208.42 151Z" stroke="#8C8C8C" stroke-width="0.25" stroke-miterlimit="10"/>
<path d="M139.209 99.831C140.222 99.831 141.043 99.0075 141.043 97.9917C141.043 96.9758 140.222 96.1523 139.209 96.1523C138.195 96.1523 137.374 96.9758 137.374 97.9917C137.374 99.0075 138.195 99.831 139.209 99.831Z" fill="#CDCDCD"/>
<path d="M360.669 98.8393C360.669 99.2031 360.562 99.5587 360.36 99.8612C360.158 100.164 359.872 100.399 359.537 100.539C359.201 100.678 358.833 100.714 358.477 100.643C358.121 100.572 357.794 100.397 357.537 100.14C357.281 99.8827 357.106 99.5549 357.035 99.1981C356.964 98.8414 357.001 98.4715 357.14 98.1354C357.279 97.7993 357.514 97.5121 357.815 97.31C358.117 97.1079 358.472 97 358.835 97C359.321 97 359.788 97.1938 360.132 97.5387C360.476 97.8837 360.669 98.3515 360.669 98.8393Z" fill="#CDCDCD"/>
<path d="M244.669 92.8393C244.669 93.2031 244.562 93.5587 244.36 93.8612C244.158 94.1637 243.872 94.3994 243.537 94.5386C243.201 94.6778 242.833 94.7143 242.477 94.6433C242.121 94.5723 241.794 94.3971 241.537 94.1399C241.281 93.8827 241.106 93.5549 241.035 93.1981C240.964 92.8414 241.001 92.4715 241.14 92.1354C241.279 91.7993 241.514 91.5121 241.815 91.31C242.117 91.1079 242.472 91 242.835 91C243.321 91 243.788 91.1938 244.132 91.5387C244.476 91.8837 244.669 92.3515 244.669 92.8393Z" fill="#CDCDCD"/>
<path d="M302.608 76.688H300.313L299.166 78.679L300.313 80.67H302.608L303.749 78.679L302.608 76.688Z" fill="#CDCDCD"/>
<path d="M132.5 21L144.5 0" stroke="#CDCDCD" stroke-width="0.25" stroke-miterlimit="10"/>
<path d="M301.505 79L346 0.5" stroke="#CDCDCD" stroke-width="0.25" stroke-miterlimit="10"/>
<path d="M0 115L44.1185 38H101.5" stroke="#CDCDCD" stroke-width="0.25" stroke-miterlimit="10"/>
<path d="M365.414 176H361.918L360.166 179L361.918 182H365.414L367.166 179L365.414 176Z" fill="#CDCDCD"/>
<path d="M385.602 141H383.313L382.166 142.991L383.313 144.982H385.602L386.749 142.991L385.602 141Z" fill="#CDCDCD"/>
<path d="M331 235L390.166 133" stroke="#CDCDCD" stroke-width="0.25" stroke-miterlimit="10"/>
<path d="M221 270L241.164 235H331.11" stroke="#CDCDCD" stroke-width="0.25" stroke-miterlimit="10"/>
<path d="M350.234 84.9423L324 39.5" stroke="#CDCDCD" stroke-width="0.25" stroke-miterlimit="10"/>
<path d="M389 151L359 99" stroke="#CDCDCD" stroke-width="0.25" stroke-miterlimit="10"/>
<path d="M300.166 79H292.166" stroke="#CDCDCD" stroke-width="0.25" stroke-miterlimit="10"/>
<g style="mix-blend-mode:color-dodge" opacity="0.3">
<path d="M104.446 43.6694H101.136V46.9878H104.446V43.6694Z" fill="#CDCDCD"/>
</g>
<g style="mix-blend-mode:color-dodge" opacity="0.3">
<path d="M116.758 43.6694H113.448V46.9878H116.758V43.6694Z" fill="#CDCDCD"/>
</g>
<g style="mix-blend-mode:color-dodge" opacity="0.3">
<path d="M122.918 43.6694H119.608V46.9878H122.918V43.6694Z" fill="#CDCDCD"/>
</g>
<g style="mix-blend-mode:color-dodge" opacity="0.3">
<path d="M129.077 43.6694H125.767V46.9878H129.077V43.6694Z" fill="#CDCDCD"/>
</g>
<g style="mix-blend-mode:color-dodge" opacity="0.3">
<path d="M335.369 190.284H332.059V193.602H335.369V190.284Z" fill="#CDCDCD"/>
</g>
<g style="mix-blend-mode:color-dodge" opacity="0.3">
<path d="M341.528 190.284H338.219V193.602H341.528V190.284Z" fill="#CDCDCD"/>
</g>
<g style="mix-blend-mode:color-dodge" opacity="0.3">
<path d="M347.687 190.284H344.378V193.602H347.687V190.284Z" fill="#CDCDCD"/>
</g>
<g style="mix-blend-mode:color-dodge" opacity="0.3">
<path d="M353.847 190.284H350.537V193.602H353.847V190.284Z" fill="#CDCDCD"/>
</g>
<g style="mix-blend-mode:color-dodge" opacity="0.3">
<path d="M366.166 190.284H362.856V193.602H366.166V190.284Z" fill="#CDCDCD"/>
</g>
<path d="M93.5 226H84.5L80 233.499L84.5 241H93.5L98 233.499L93.5 226Z" stroke="#CECECE" stroke-width="0.5" stroke-miterlimit="10"/>
<path d="M57.9039 233H73.0002" stroke="#CECECE" stroke-width="0.25" stroke-miterlimit="10"/>
<path d="M96.9993 220H81.0007L73 233.5L81.0007 247H96.9993L105 233.5L96.9993 220Z" stroke="#CECECE" stroke-width="0.25" stroke-miterlimit="10"/>
<path d="M98 219.497C98.0006 219.794 97.9131 220.084 97.7487 220.331C97.5842 220.578 97.3502 220.771 97.0761 220.885C96.8021 220.999 96.5004 221.029 96.2092 220.972C95.9181 220.914 95.6505 220.771 95.4404 220.562C95.2303 220.352 95.0872 220.085 95.029 219.794C94.9709 219.503 95.0004 219.201 95.1139 218.927C95.2273 218.652 95.4196 218.418 95.6663 218.253C95.9131 218.088 96.2032 218 96.5 218C96.8973 218 97.2784 218.158 97.5596 218.438C97.8408 218.719 97.9992 219.1 98 219.497Z" fill="#CECECE"/>
<path d="M16.5 164C17.3284 164 18 163.328 18 162.5C18 161.672 17.3284 161 16.5 161C15.6716 161 15 161.672 15 162.5C15 163.328 15.6716 164 16.5 164Z" fill="#CECECE"/>
<path d="M110 270L97 247" stroke="#CECECE" stroke-width="0.25" stroke-miterlimit="10"/>
<path d="M58 233L0 134" stroke="#CECECE" stroke-width="0.25" stroke-miterlimit="10"/>
<g style="mix-blend-mode:color-dodge" opacity="0.3">
<path d="M16.0909 190.63H14.2397V192.48H16.0909V190.63Z" fill="#CECECE"/>
</g>
<g style="mix-blend-mode:color-dodge" opacity="0.3">
<path d="M19.5318 190.63H17.6807V192.48H19.5318V190.63Z" fill="#CECECE"/>
</g>
<g style="mix-blend-mode:color-dodge" opacity="0.3">
<path d="M22.9727 190.63H21.1216V192.48H22.9727V190.63Z" fill="#CECECE"/>
</g>
<g style="mix-blend-mode:color-dodge" opacity="0.3">
<path d="M26.4151 190.63H24.564V192.48H26.4151V190.63Z" fill="#CECECE"/>
</g>
<g style="mix-blend-mode:color-dodge" opacity="0.3">
<path d="M29.857 190.63H28.0059V192.48H29.857V190.63Z" fill="#CECECE"/>
</g>
<g style="mix-blend-mode:color-dodge" opacity="0.3">
<path d="M33.2969 190.63H31.4458V192.48H33.2969V190.63Z" fill="#CECECE"/>
</g>
<g style="mix-blend-mode:color-dodge" opacity="0.3">
<path d="M16.0909 190.63H14.2397V192.48H16.0909V190.63Z" fill="#CECECE"/>
</g>
<g style="mix-blend-mode:color-dodge" opacity="0.3">
<path d="M19.5318 190.63H17.6807V192.48H19.5318V190.63Z" fill="#CECECE"/>
</g>
<g style="mix-blend-mode:color-dodge" opacity="0.3">
<path d="M22.9727 190.63H21.1216V192.48H22.9727V190.63Z" fill="#CECECE"/>
</g>
<g style="mix-blend-mode:color-dodge" opacity="0.3">
<path d="M26.4151 190.63H24.564V192.48H26.4151V190.63Z" fill="#CECECE"/>
</g>
<g style="mix-blend-mode:color-dodge" opacity="0.3">
<path d="M29.857 190.63H28.0059V192.48H29.857V190.63Z" fill="#CECECE"/>
</g>
<g style="mix-blend-mode:color-dodge" opacity="0.3">
<path d="M33.2969 190.63H31.4458V192.48H33.2969V190.63Z" fill="#CECECE"/>
</g>
<g clip-path="url(#clip1_6_421925)">
<path d="M201.98 204.615C202.84 203.598 203.375 202.351 203.519 201.032C203.662 199.714 203.407 198.383 202.786 197.207C202.165 196.032 201.206 195.066 200.029 194.43C198.853 193.795 197.513 193.519 196.178 193.637C194.843 193.756 193.574 194.263 192.531 195.096C191.487 195.928 190.717 197.048 190.317 198.314C189.917 199.58 189.906 200.935 190.284 202.207C190.662 203.479 191.414 204.612 192.443 205.462C193.125 206.026 193.913 206.452 194.762 206.714C195.61 206.977 196.503 207.072 197.388 206.994C198.274 206.915 199.135 206.664 199.923 206.256C200.711 205.848 201.41 205.291 201.98 204.615ZM194.842 198.728C195.161 198.348 195.587 198.071 196.066 197.931C196.545 197.791 197.055 197.794 197.532 197.941C198.009 198.088 198.431 198.372 198.744 198.756C199.058 199.141 199.25 199.608 199.295 200.101C199.34 200.593 199.236 201.087 198.997 201.521C198.758 201.955 198.394 202.309 197.952 202.538C197.509 202.767 197.008 202.861 196.512 202.808C196.015 202.755 195.546 202.558 195.163 202.241C194.908 202.031 194.698 201.774 194.545 201.484C194.391 201.194 194.296 200.876 194.267 200.55C194.237 200.224 194.272 199.895 194.371 199.582C194.47 199.27 194.63 198.979 194.842 198.728Z" fill="#333333"/>
<path d="M192.224 203.24L196.454 205.673L194.35 208.661L190.646 206.533L192.224 203.24Z" fill="#333333"/>
<path d="M197.066 195.033L201.296 197.467L202.878 194.174L199.174 192.045L197.066 195.033Z" fill="#333333"/>
<path d="M191.489 199.219L192.746 203.9L189.119 204.539L188.02 200.442L191.489 199.219Z" fill="#333333"/>
<path d="M200.778 196.807L202.031 201.488L205.5 200.264L204.401 196.167L200.778 196.807Z" fill="#333333"/>
<path d="M193.845 195.863L191.386 200.053L188.367 197.966L190.518 194.301L193.845 195.863Z" fill="#333333"/>
<path d="M202.134 200.654L199.679 204.844L203.007 206.406L205.154 202.74L202.134 200.654Z" fill="#333333"/>
<path d="M197.904 195.139L193.178 196.379L192.532 192.79L196.668 191.707L197.904 195.139Z" fill="#333333"/>
<path d="M200.346 204.328L195.616 205.568L196.852 209L200.992 207.917L200.346 204.328Z" fill="#333333"/>
<path d="M185.689 199.621C187.538 197.925 188.837 195.725 189.422 193.298C190.007 190.872 189.851 188.328 188.975 185.989C188.099 183.65 186.542 181.62 184.5 180.157C182.459 178.694 180.024 177.862 177.505 177.768C174.986 177.674 172.496 178.321 170.348 179.628C168.201 180.935 166.493 182.842 165.442 185.109C164.39 187.377 164.041 189.901 164.439 192.365C164.838 194.828 165.965 197.119 167.679 198.948C169.978 201.4 173.167 202.847 176.544 202.974C179.921 203.1 183.21 201.894 185.689 199.621ZM172.243 185.273C173.262 184.337 174.539 183.721 175.912 183.503C177.286 183.285 178.693 183.475 179.957 184.049C181.221 184.623 182.285 185.555 183.014 186.727C183.743 187.899 184.104 189.258 184.052 190.634C184 192.009 183.537 193.338 182.722 194.453C181.906 195.568 180.775 196.418 179.471 196.897C178.167 197.376 176.749 197.461 175.396 197.142C174.043 196.823 172.817 196.114 171.871 195.105C171.242 194.436 170.754 193.65 170.432 192.793C170.111 191.937 169.963 191.026 169.998 190.113C170.032 189.2 170.248 188.302 170.634 187.472C171.019 186.642 171.566 185.894 172.243 185.273Z" fill="#333333"/>
<path d="M181.823 199.659L186.019 195.803L188.679 199.16L185.005 202.533L181.823 199.659Z" fill="#333333"/>
<path d="M168.026 184.939L172.226 181.088L169.039 178.209L165.365 181.583L168.026 184.939Z" fill="#333333"/>
<path d="M167.641 195.122L171.533 199.274L168.141 201.907L164.733 198.271L167.641 195.122Z" fill="#333333"/>
<path d="M182.512 181.468L186.408 185.625L189.312 182.472L185.903 178.836L182.512 181.468Z" fill="#333333"/>
<path d="M173.782 200.298L179.505 200.51L178.987 204.742L173.975 204.556L173.782 200.298Z" fill="#333333"/>
<path d="M174.544 180.237L180.266 180.448L180.069 176.186L175.061 176L174.544 180.237Z" fill="#333333"/>
<path d="M166.995 187.165L166.781 192.828L162.5 192.316L162.688 187.355L166.995 187.165Z" fill="#333333"/>
<path d="M187.268 187.918L187.054 193.581L191.356 193.387L191.544 188.431L187.268 187.918Z" fill="#333333"/>
</g>
<g style="mix-blend-mode:luminosity">
<path d="M275.415 91.6549C277.59 91.6549 279.352 89.8924 279.352 87.7181C279.352 85.5438 277.59 83.7812 275.415 83.7812C273.241 83.7812 271.479 85.5438 271.479 87.7181C271.479 89.8924 273.241 91.6549 275.415 91.6549Z" fill="#333333"/>
<path d="M281.083 94.4106C279.054 91.7043 272.326 91.7043 270.284 94.4106C269.351 95.6673 268.88 102.435 268.88 102.435H282.5C282.5 102.435 282.026 95.6673 281.083 94.4106Z" fill="#333333"/>
</g>
<path d="M276.703 165.811L276.671 165.894L272.433 176.637L270.841 180.679L267.854 175.264L261.976 177.176L267.842 162.309L271.565 163.78L276.479 165.724L276.703 165.811Z" fill="#333333"/>
<path d="M279.635 180.679L282.623 175.264L288.5 177.176L282.635 162.309L273.773 165.811L279.635 180.679Z" fill="#333333"/>
<path d="M275.037 144.765L276.087 143.946L276.972 144.942L278.151 144.32L278.843 145.457L280.113 145.06L280.592 146.304L281.913 146.134L282.165 147.445L283.494 147.516L283.505 148.85L284.799 149.157L284.575 150.471L285.793 151.006L285.337 152.258L286.442 153.005L285.77 154.155L286.725 155.083L285.86 156.099L286.631 157.181L285.597 158.023L286.163 159.227L284.995 159.873L285.337 161.16L284.075 161.585L284.182 162.911L282.865 163.104L282.735 164.43L281.402 164.383L281.037 165.666L279.735 165.378L279.15 166.575L277.919 166.063L277.125 167.133L276.009 166.409L275.037 167.322L274.066 166.409L272.946 167.133L272.156 166.063L270.925 166.575L270.336 165.378L269.034 165.666L268.669 164.383L267.34 164.43L267.206 163.104L265.889 162.911L265.996 161.585L264.734 161.16L265.076 159.873L263.912 159.227L264.478 158.023L263.444 157.181L264.215 156.099L263.35 155.083L264.301 154.155L263.633 153.005L264.734 152.258L264.282 151.006L265.496 150.471L265.272 149.157L266.57 148.85L266.581 147.516L267.91 147.445L268.162 146.134L269.483 146.304L269.962 145.06L271.232 145.457L271.924 144.32L273.103 144.942L273.988 143.946L275.037 144.765Z" fill="#333333"/>
<path d="M281.568 162.171C285.175 158.561 285.175 152.707 281.568 149.096C277.961 145.486 272.114 145.486 268.507 149.096C264.9 152.707 264.9 158.561 268.507 162.171C272.114 165.782 277.961 165.782 281.568 162.171Z" fill="white"/>
<path d="M272.913 154.976L270.482 154.972C270.267 154.971 270.092 155.146 270.091 155.361L270.084 160.027C270.083 160.243 270.258 160.417 270.474 160.418L272.905 160.421C273.12 160.422 273.295 160.248 273.296 160.032L273.303 155.366C273.303 155.151 273.129 154.976 272.913 154.976Z" fill="#333333"/>
<path d="M279.91 155.801C280.727 154.604 279.606 154.247 279.606 154.247L276.671 154.242L276.721 153.986C276.721 153.986 276.981 152.013 276.651 151.391C276.321 150.769 275.12 150.525 275.071 150.752C275.021 150.979 275.069 152 274.994 152.557C274.686 153.467 274.31 154.352 273.868 155.204C273.819 155.275 273.759 155.336 273.69 155.387L273.682 159.915C273.88 160.039 274.111 160.101 274.344 160.094L278.599 160.1C278.726 160.064 278.844 160.002 278.947 159.92C279.05 159.837 279.135 159.734 279.197 159.618C279.26 159.502 279.298 159.374 279.31 159.243C279.322 159.111 279.308 158.979 279.268 158.853C279.512 158.711 279.701 158.49 279.803 158.227C279.905 157.963 279.914 157.673 279.829 157.404C279.961 157.319 280.071 157.204 280.15 157.069C280.229 156.933 280.274 156.78 280.282 156.623C280.29 156.467 280.261 156.31 280.196 156.167C280.131 156.024 280.033 155.899 279.91 155.801Z" fill="#333333"/>
<path d="M104.972 138.678L108.552 135.07L104.08 130.564L100.5 134.172L104.972 138.678Z" fill="#444444"/>
<path d="M81.1843 133.313C83.4221 135.551 86.2732 137.075 89.3771 137.692C92.481 138.31 95.6983 137.993 98.6221 136.782C101.546 135.571 104.045 133.52 105.803 130.889C107.562 128.258 108.5 125.165 108.5 122C108.5 118.835 107.562 115.742 105.803 113.111C104.045 110.48 101.546 108.429 98.6221 107.218C95.6983 106.007 92.481 105.69 89.3771 106.308C86.2732 106.925 83.4221 108.449 81.1843 110.687C78.1849 113.688 76.5 117.757 76.5 122C76.5 126.243 78.1849 130.312 81.1843 133.313ZM82.9033 131.594C81.0053 129.696 79.7128 127.278 79.1891 124.646C78.6655 122.013 78.9344 119.284 79.9616 116.805C80.9889 114.325 82.7285 112.205 84.9604 110.714C87.1924 109.223 89.8164 108.427 92.5007 108.427C95.185 108.427 97.809 109.223 100.041 110.714C102.273 112.205 104.012 114.325 105.04 116.805C106.067 119.284 106.336 122.013 105.812 124.646C105.289 127.278 103.996 129.696 102.098 131.594C100.838 132.855 99.3419 133.856 97.6951 134.538C96.0484 135.22 94.2832 135.572 92.5007 135.572C90.7181 135.572 88.953 135.22 87.3062 134.538C85.6595 133.856 84.1633 132.855 82.9033 131.594Z" fill="#333333"/>
<path d="M85.5 122.286L91.8636 127L99.5 115" stroke="#333333" stroke-width="3" stroke-miterlimit="10" stroke-linecap="round"/>
<path d="M117.452 147.887C118.605 146.665 118.842 144.938 117.985 144.03L107.565 133L102.5 137.421L112.924 148.451C113.781 149.367 116.298 149.108 117.452 147.887Z" fill="#333333"/>
<path d="M186.768 82.6343H208.5" stroke="#333333" stroke-width="3" stroke-linecap="round"/>
<path d="M179.122 85.8538C181.122 85.8538 182.744 84.2322 182.744 82.2318C182.744 80.2315 181.122 78.6099 179.122 78.6099C177.122 78.6099 175.5 80.2315 175.5 82.2318C175.5 84.2322 177.122 85.8538 179.122 85.8538Z" stroke="#333333" stroke-width="2" stroke-miterlimit="10"/>
<path d="M177.915 81.8792L178.924 83.4392L182.744 80.2197" stroke="#333333" stroke-width="1.4" stroke-miterlimit="10" stroke-linecap="round"/>
<path d="M186.768 93.9023H208.5" stroke="#333333" stroke-width="3" stroke-linecap="round"/>
<path d="M179.122 97.1218C181.122 97.1218 182.744 95.5002 182.744 93.4999C182.744 91.4995 181.122 89.8779 179.122 89.8779C177.122 89.8779 175.5 91.4995 175.5 93.4999C175.5 95.5002 177.122 97.1218 179.122 97.1218Z" stroke="#333333" stroke-width="2" stroke-miterlimit="10"/>
<path d="M177.915 93.1472L178.924 94.7073L182.744 91.4878" stroke="#333333" stroke-width="1.4" stroke-miterlimit="10" stroke-linecap="round"/>
<path d="M186.768 105.171H208.5" stroke="#333333" stroke-width="3" stroke-linecap="round"/>
<path d="M179.122 108.39C181.122 108.39 182.744 106.769 182.744 104.768C182.744 102.768 181.122 101.146 179.122 101.146C177.122 101.146 175.5 102.768 175.5 104.768C175.5 106.769 177.122 108.39 179.122 108.39Z" stroke="#333333" stroke-width="2" stroke-miterlimit="10"/>
<path d="M177.915 104.416L178.924 105.976L182.744 102.756" stroke="#333333" stroke-width="1.4" stroke-miterlimit="10" stroke-linecap="round"/>
</g>
<defs>
<linearGradient id="paint0_linear_6_421925" x1="192.274" y1="114.549" x2="185.755" y2="66.9501" gradientUnits="userSpaceOnUse">
<stop stop-color="#0052F0"/>
<stop offset="1" stop-color="#8BD7FF"/>
</linearGradient>
<linearGradient id="paint1_linear_6_421925" x1="288.452" y1="178.646" x2="288.452" y2="138.951" gradientUnits="userSpaceOnUse">
<stop stop-color="#FF8400"/>
<stop offset="1" stop-color="#F0CE93"/>
</linearGradient>
<clipPath id="clip0_6_421925">
<rect width="389" height="270" fill="white"/>
</clipPath>
<clipPath id="clip1_6_421925">
<rect width="43" height="33" fill="white" transform="translate(162.5 176)"/>
</clipPath>
</defs>
</svg>
