<svg width="390" height="282" viewBox="0 0 390 282" fill="none" xmlns="http://www.w3.org/2000/svg">
<path fill-rule="evenodd" clip-rule="evenodd" d="M350.367 51.0218H126.912V30.9166C126.912 27.7488 129.483 25.1804 132.653 25.1804H344.626C347.796 25.1804 350.367 27.7488 350.367 30.9166V51.0218Z" fill="#E9E9E9" fill-opacity="0.52"/>
<path fill-rule="evenodd" clip-rule="evenodd" d="M132.653 194.587C129.483 194.587 126.912 192.019 126.912 188.85V51.0218H350.367V188.85C350.367 192.019 347.796 194.587 344.626 194.587H132.653Z" fill="#F3F3F3" fill-opacity="0.2"/>
<path d="M349.866 51.5222V188.85C349.866 191.742 347.52 194.087 344.625 194.087H132.654C129.759 194.087 127.412 191.742 127.412 188.85V51.5222H349.866ZM132.654 25.6804H344.625C347.52 25.6804 349.866 28.0255 349.866 30.9167V50.5222H127.412V30.9167C127.412 28.0255 129.759 25.6804 132.654 25.6804Z" stroke="#E6E6E6"/>
<path d="M348.2 97.3135V97.8135H349.205C349.235 97.8135 349.263 97.8198 349.288 97.8301L349.479 97.3682C349.654 97.4405 349.793 97.58 349.866 97.7549L349.405 97.9473C349.416 97.972 349.422 97.9992 349.422 98.0293C349.422 98.0583 349.417 98.0855 349.407 98.1094L349.871 98.292C349.804 98.4619 349.674 98.5993 349.51 98.6768L349.298 98.2256C349.274 98.2367 349.248 98.2433 349.22 98.2451L349.228 98.3691L349.239 98.7441L349.217 98.7451L349.205 98.3701V98.2461H349.201V98.2451L349.189 98.2461H348.2V98.7461H346.189V98.2461H344.18V98.7461H342.169V98.2461H340.159V98.7461H338.148V98.2461H336.139V98.7461H334.128V98.2461H332.118V98.7461H330.107V98.2461H328.098V98.7461H326.087V98.2461H324.077V98.7461H322.066V98.2461H320.057V98.7461H318.046V98.2461H316.035V98.7461H314.025V98.2461H312.015V98.7461H310.005V98.2461H307.994V98.7461H305.984V98.2461H303.974V98.7461H301.964V98.2461H299.953V98.7461H297.943V98.2461H295.933V98.7461H293.923V98.2461H291.912V98.7461H289.902V98.2461H287.892V98.7461H285.882V98.2461H283.871V98.7461H281.86V98.2461H279.851V98.7461H277.84V98.2461H275.83V98.7461H273.819V98.2461H271.81V98.7461H269.799V98.2461H267.789V98.7461H265.778V98.2461H263.769V98.7461H261.758V98.2461H259.748V98.7461H257.737V98.2461H255.728V98.7461H253.717V98.2461H251.707V98.7461H249.696V98.2461H247.686V98.7461H245.676V98.2461H243.665V98.7461H241.655V98.2461H239.645V98.7461H237.635V98.2461H235.624V98.7461H233.614V98.2461H231.604V98.7461H229.594V98.2461H227.583V98.7461H225.573V98.2461H223.562V98.7461H221.553V98.2461H219.542V98.7461H217.531V98.2461H215.521V98.7461H213.511V98.2461H211.501V98.7461H209.49V98.2461H207.48V98.7461H205.47V98.2461H203.46V98.7461H201.449V98.2461H199.439V98.7461H197.429V98.2461H195.419V98.7461H193.408V98.2461H191.398V98.7461H189.388V98.2461H187.378V98.7461H185.367V98.2461H183.356V98.7461H181.347V98.2461H179.336V98.7461H177.326V98.2461H175.315V98.7461H173.306V98.2461H171.295V98.7461H169.285V98.2461H167.274V98.7461H165.265V98.2461H163.254V98.7461H161.244V98.2461H159.233V98.7461H157.224V98.2461H155.213V98.7461H153.203V98.2461H151.192V98.7461H149.182V98.2461H147.172V98.7461H145.161V98.2461H143.151V98.7461H141.141V98.2461H139.131V98.7461H137.12V98.2461H135.11V98.7461H133.1V98.2461H131.09V98.7461H129.079V98.2461H128.074C128.044 98.2461 128.016 98.2398 127.991 98.2295L127.8 98.6904C127.625 98.6177 127.485 98.478 127.412 98.3027L127.874 98.1123C127.864 98.0875 127.857 98.0595 127.857 98.0293C127.857 98.0005 127.863 97.974 127.872 97.9502L127.407 97.7656C127.474 97.5966 127.604 97.4582 127.768 97.3809L127.769 97.3818L127.981 97.834C128.003 97.8237 128.028 97.8168 128.054 97.8145H128.056L128.055 97.8135C128.056 97.8133 128.058 97.8136 128.06 97.8135L128.051 97.6787L128.04 97.3145L128.039 97.3135H128.062L128.074 97.6738V97.8135H129.079V97.3135H131.09V97.8135H133.1V97.3135H135.11V97.8135H137.12V97.3135H139.131V97.8135H141.141V97.3135H143.151V97.8135H145.161V97.3135H147.172V97.8135H149.182V97.3135H151.192V97.8135H153.202V97.3135H155.213V97.8135H157.223V97.3135H159.233V97.8135H161.243V97.3135H163.254V97.8135H165.265V97.3135H167.274V97.8135H169.285V97.3135H171.295V97.8135H173.306V97.3135H175.315V97.8135H177.326V97.3135H179.336V97.8135H181.347V97.3135H183.356V97.8135H185.367V97.3135H187.377V97.8135H189.388V97.3135H191.397V97.8135H193.408V97.3135H195.419V97.8135H197.429V97.3135H199.439V97.8135H201.449V97.3135H203.46V97.8135H205.47V97.3135H207.48V97.8135H209.49V97.3135H211.501V97.8135H213.511V97.3135H215.521V97.8135H217.531V97.3135H219.542V97.8135H221.552V97.3135H223.562V97.8135H225.572V97.3135H227.583V97.8135H229.594V97.3135H231.604V97.8135H233.614V97.3135H235.624V97.8135H237.635V97.3135H239.645V97.8135H241.655V97.3135H243.665V97.8135H245.676V97.3135H247.686V97.8135H249.696V97.3135H251.706V97.8135H253.717V97.3135H255.727V97.8135H257.737V97.3135H259.748V97.8135H261.758V97.3135H263.769V97.8135H265.778V97.3135H267.789V97.8135H269.799V97.3135H271.81V97.8135H273.819V97.3135H275.83V97.8135H277.84V97.3135H279.851V97.8135H281.86V97.3135H283.871V97.8135H285.881V97.3135H287.892V97.8135H289.901V97.3135H291.912V97.8135H293.923V97.3135H295.933V97.8135H297.943V97.3135H299.953V97.8135H301.964V97.3135H303.974V97.8135H305.984V97.3135H307.994V97.8135H310.005V97.3135H312.015V97.8135H314.025V97.3135H316.035V97.8135H318.046V97.3135H320.056V97.8135H322.066V97.3135H324.076V97.8135H326.087V97.3135H328.098V97.8135H330.107V97.3135H332.118V97.8135H334.128V97.3135H336.139V97.8135H338.148V97.3135H340.159V97.8135H342.169V97.3135H344.18V97.8135H346.189V97.3135H348.2Z" stroke="#E8E8E8" stroke-dasharray="2 2"/>
<path d="M201.167 53.5C201.233 53.5 201.245 53.4615 201.22 53.4961C201.21 53.5111 201.199 53.534 201.189 53.5635L201.627 53.4365C201.579 53.2743 201.491 53.144 201.379 53.0693L201.167 53.3877M201.167 53.5V53.3877M201.167 53.5C201.152 53.5 201.138 53.4979 201.126 53.4941C201.114 53.4905 201.107 53.4857 201.103 53.4834L201.167 53.3877M201.167 53.5V53.3877M201.635 194.53C201.592 194.703 201.503 194.843 201.387 194.924L201.167 194.61L201.23 194.517C201.227 194.514 201.219 194.51 201.208 194.506C201.196 194.502 201.182 194.5 201.167 194.5C201.151 194.5 201.136 194.503 201.124 194.507C201.112 194.511 201.105 194.516 201.102 194.518L201.167 194.609V194.611L200.954 194.93C200.842 194.855 200.753 194.725 200.706 194.562L201.184 194.424C201.183 194.421 201.183 194.418 201.182 194.416L201.635 194.53ZM201.167 194.296C201.167 194.304 201.164 194.311 201.164 194.318L200.667 194.329V194.306L201.167 194.296ZM201.667 191.283V193.291H200.667V191.283H201.667ZM201.667 187.266V189.274H200.667V187.266H201.667ZM201.667 183.249V185.258H200.667V183.249H201.667ZM201.667 179.232V181.241H201.167V181.24H200.667V179.232H201.667ZM201.667 175.216V177.224H200.667V175.216H201.667ZM201.667 171.198V173.207H200.667V171.198H201.667ZM201.667 167.182V169.19H200.667V167.182H201.667ZM201.667 163.165V165.173H200.667V163.165H201.667ZM201.667 159.147V161.156H200.667V159.147H201.667ZM201.667 155.131V157.14H200.667V155.131H201.667ZM201.667 151.114V153.122H200.667V151.114H201.667ZM201.667 147.097V149.105H200.667V147.097H201.667ZM201.667 143.08V145.089H200.667V143.08H201.667ZM201.667 139.063V141.072H200.667V139.063H201.667ZM201.667 135.047V137.055H200.667V135.047H201.667ZM201.667 131.029V133.038H200.667V131.029H201.667ZM201.667 127.013V129.021H200.667V127.013H201.667ZM201.667 122.996V125.004H200.667V122.996H201.667ZM201.667 118.979V120.987H200.667V118.979H201.667ZM201.667 114.962V116.971H200.667V114.962H201.667ZM201.667 110.945V112.953H200.667V110.945H201.667ZM201.167 106.928V106.929H201.667V108.937H200.667V106.928H201.167ZM201.667 102.911V104.92H200.667V102.911H201.667ZM201.667 98.8945V100.903H200.667V98.8945H201.667ZM201.667 94.8779V96.8857H200.667V94.8779H201.667ZM201.667 90.8604V92.8691H200.667V90.8604H201.667ZM201.667 86.8438V88.8525H200.667V86.8438H201.667ZM201.667 82.8271V84.835H200.667V82.8271H201.667ZM201.667 78.8096V80.8184H200.667V78.8096H201.667ZM201.667 74.793V76.8018H200.667V74.793H201.667ZM201.667 70.7764V72.7842H200.667V70.7764H201.667ZM201.167 66.7588V66.7598H201.667V68.7676H200.667V66.7588H201.167ZM201.667 62.7422V64.751H200.667V62.7422H201.667ZM201.667 58.7256V60.7344H200.667V58.7256H201.667ZM201.667 54.709V56.7168H200.667V54.709H201.667ZM201.666 53.6934H201.667L201.167 53.7041C201.167 53.6961 201.167 53.6883 201.168 53.6807L201.666 53.6709V53.6934Z" stroke="#E8E8E8" stroke-dasharray="2 2"/>
<path d="M275.167 53.5C275.233 53.5 275.245 53.4615 275.22 53.4961C275.21 53.5111 275.199 53.534 275.189 53.5635L275.627 53.4365C275.579 53.2743 275.491 53.144 275.379 53.0693L275.167 53.3877M275.167 53.5V53.3877M275.167 53.5C275.152 53.5 275.138 53.4979 275.126 53.4941C275.114 53.4905 275.107 53.4857 275.103 53.4834L275.167 53.3877M275.167 53.5V53.3877M275.635 194.53C275.592 194.703 275.503 194.843 275.387 194.924L275.167 194.61L275.23 194.517C275.227 194.514 275.219 194.51 275.208 194.506C275.196 194.502 275.182 194.5 275.167 194.5C275.151 194.5 275.136 194.503 275.124 194.507C275.112 194.511 275.105 194.516 275.102 194.518L275.167 194.609V194.611L274.954 194.93C274.842 194.855 274.753 194.725 274.706 194.562L275.184 194.424C275.183 194.421 275.183 194.418 275.182 194.416L275.635 194.53ZM275.167 194.296C275.167 194.304 275.164 194.311 275.164 194.318L274.667 194.329V194.306L275.167 194.296ZM275.667 191.283V193.291H274.667V191.283H275.667ZM275.667 187.266V189.274H274.667V187.266H275.667ZM275.667 183.249V185.258H274.667V183.249H275.667ZM275.667 179.232V181.241H275.167V181.24H274.667V179.232H275.667ZM275.667 175.216V177.224H274.667V175.216H275.667ZM275.667 171.198V173.207H274.667V171.198H275.667ZM275.667 167.182V169.19H274.667V167.182H275.667ZM275.667 163.165V165.173H274.667V163.165H275.667ZM275.667 159.147V161.156H274.667V159.147H275.667ZM275.667 155.131V157.14H274.667V155.131H275.667ZM275.667 151.114V153.122H274.667V151.114H275.667ZM275.667 147.097V149.105H274.667V147.097H275.667ZM275.667 143.08V145.089H274.667V143.08H275.667ZM275.667 139.063V141.072H274.667V139.063H275.667ZM275.667 135.047V137.055H274.667V135.047H275.667ZM275.667 131.029V133.038H274.667V131.029H275.667ZM275.667 127.013V129.021H274.667V127.013H275.667ZM275.667 122.996V125.004H274.667V122.996H275.667ZM275.667 118.979V120.987H274.667V118.979H275.667ZM275.667 114.962V116.971H274.667V114.962H275.667ZM275.667 110.945V112.953H274.667V110.945H275.667ZM274.667 106.928L275.167 106.929H275.667V108.937H274.667V106.928ZM275.667 102.911V104.92H274.667V102.911H275.667ZM275.667 98.8945V100.903H274.667V98.8945H275.667ZM275.667 94.8779V96.8857H274.667V94.8779H275.667ZM275.667 90.8604V92.8691H274.667V90.8604H275.667ZM275.667 86.8438V88.8525H274.667V86.8438H275.667ZM275.667 82.8271V84.835H274.667V82.8271H275.667ZM275.667 78.8096V80.8184H274.667V78.8096H275.667ZM275.667 74.793V76.8018H274.667V74.793H275.667ZM275.667 70.7764V72.7842H274.667V70.7764H275.667ZM274.667 66.7588L275.167 66.7598H275.667V68.7676H274.667V66.7588ZM275.667 62.7422V64.751H274.667V62.7422H275.667ZM275.667 58.7256V60.7344H274.667V58.7256H275.667ZM275.667 54.709V56.7168H274.667V54.709H275.667ZM275.666 53.6934H275.667L275.167 53.7041C275.167 53.6961 275.167 53.6883 275.168 53.6807L275.666 53.6709V53.6934Z" stroke="#E8E8E8" stroke-dasharray="2 2"/>
<path d="M348.2 145.335V145.835H349.205C349.235 145.835 349.263 145.841 349.288 145.852L349.479 145.39C349.654 145.462 349.793 145.602 349.866 145.776L349.405 145.969C349.416 145.993 349.422 146.021 349.422 146.051C349.422 146.08 349.417 146.107 349.407 146.131L349.871 146.313C349.804 146.483 349.674 146.621 349.51 146.698L349.298 146.247C349.274 146.258 349.248 146.265 349.22 146.267L349.228 146.391L349.239 146.766L349.217 146.767L349.205 146.392V146.268H349.201V146.267L349.189 146.268H348.2V146.768H346.189V146.268H344.18V146.768H342.169V146.268H340.159V146.768H338.148V146.268H336.139V146.768H334.128V146.268H332.118V146.768H330.107V146.268H328.098V146.768H326.087V146.268H324.077V146.768H322.066V146.268H320.057V146.768H318.046V146.268H316.035V146.768H314.025V146.268H312.015V146.768H310.005V146.268H307.994V146.768H305.984V146.268H303.974V146.768H301.964V146.268H299.953V146.768H297.943V146.268H295.933V146.768H293.923V146.268H291.912V146.768H289.902V146.268H287.892V146.768H285.882V146.268H283.871V146.768H281.86V146.268H279.851V146.768H277.84V146.268H275.83V146.768H273.819V146.268H271.81V146.768H269.799V146.268H267.789V146.768H265.778V146.268H263.769V146.768H261.758V146.268H259.748V146.768H257.737V146.268H255.728V146.768H253.717V146.268H251.707V146.768H249.696V146.268H247.686V146.768H245.676V146.268H243.665V146.768H241.655V146.268H239.645V146.768H237.635V146.268H235.624V146.768H233.614V146.268H231.604V146.768H229.594V146.268H227.583V146.768H225.573V146.268H223.562V146.768H221.553V146.268H219.542V146.768H217.531V146.268H215.521V146.768H213.511V146.268H211.501V146.768H209.49V146.268H207.48V146.768H205.47V146.268H203.46V146.768H201.449V146.268H199.439V146.768H197.429V146.268H195.419V146.768H193.408V146.268H191.398V146.768H189.388V146.268H187.378V146.768H185.367V146.268H183.356V146.768H181.347V146.268H179.336V146.768H177.326V146.268H175.315V146.768H173.306V146.268H171.295V146.768H169.285V146.268H167.274V146.768H165.265V146.268H163.254V146.768H161.244V146.268H159.233V146.768H157.224V146.268H155.213V146.768H153.203V146.268H151.192V146.768H149.182V146.268H147.172V146.768H145.161V146.268H143.151V146.768H141.141V146.268H139.131V146.768H137.12V146.268H135.11V146.768H133.1V146.268H131.09V146.768H129.079V146.268H128.074C128.044 146.268 128.016 146.261 127.991 146.251L127.8 146.712C127.625 146.639 127.485 146.499 127.412 146.324L127.874 146.134C127.864 146.109 127.857 146.081 127.857 146.051C127.857 146.022 127.863 145.995 127.872 145.972L127.407 145.787C127.474 145.618 127.604 145.48 127.768 145.402L127.769 145.403L127.981 145.855C128.003 145.845 128.028 145.838 128.054 145.836H128.056L128.055 145.835C128.056 145.835 128.058 145.835 128.06 145.835L128.051 145.7L128.04 145.336L128.039 145.335H128.062L128.074 145.695V145.835H129.079V145.335H131.09V145.835H133.1V145.335H135.11V145.835H137.12V145.335H139.131V145.835H141.141V145.335H143.151V145.835H145.161V145.335H147.172V145.835H149.182V145.335H151.192V145.835H153.202V145.335H155.213V145.835H157.223V145.335H159.233V145.835H161.243V145.335H163.254V145.835H165.265V145.335H167.274V145.835H169.285V145.335H171.295V145.835H173.306V145.335H175.315V145.835H177.326V145.335H179.336V145.835H181.347V145.335H183.356V145.835H185.367V145.335H187.377V145.835H189.388V145.335H191.397V145.835H193.408V145.335H195.419V145.835H197.429V145.335H199.439V145.835H201.449V145.335H203.46V145.835H205.47V145.335H207.48V145.835H209.49V145.335H211.501V145.835H213.511V145.335H215.521V145.835H217.531V145.335H219.542V145.835H221.552V145.335H223.562V145.835H225.572V145.335H227.583V145.835H229.594V145.335H231.604V145.835H233.614V145.335H235.624V145.835H237.635V145.335H239.645V145.835H241.655V145.335H243.665V145.835H245.676V145.335H247.686V145.835H249.696V145.335H251.706V145.835H253.717V145.335H255.727V145.835H257.737V145.335H259.748V145.835H261.758V145.335H263.769V145.835H265.778V145.335H267.789V145.835H269.799V145.335H271.81V145.835H273.819V145.335H275.83V145.835H277.84V145.335H279.851V145.835H281.86V145.335H283.871V145.835H285.881V145.335H287.892V145.835H289.901V145.335H291.912V145.835H293.923V145.335H295.933V145.835H297.943V145.335H299.953V145.835H301.964V145.335H303.974V145.835H305.984V145.335H307.994V145.835H310.005V145.335H312.015V145.835H314.025V145.335H316.035V145.835H318.046V145.335H320.056V145.835H322.066V145.335H324.076V145.835H326.087V145.335H328.098V145.835H330.107V145.335H332.118V145.835H334.128V145.335H336.139V145.835H338.148V145.335H340.159V145.835H342.169V145.335H344.18V145.835H346.189V145.335H348.2Z" stroke="#E8E8E8" stroke-dasharray="2 2"/>
<path fill-rule="evenodd" clip-rule="evenodd" d="M145.658 38.1011C145.658 40.8152 143.456 43.0153 140.739 43.0153C138.023 43.0153 135.821 40.8152 135.821 38.1011C135.821 35.3874 138.023 33.1873 140.739 33.1873C143.456 33.1873 145.658 35.3874 145.658 38.1011Z" fill="#E6E6E6"/>
<path fill-rule="evenodd" clip-rule="evenodd" d="M164.025 38.1011C164.025 40.8152 161.823 43.0153 159.107 43.0153C156.391 43.0153 154.189 40.8152 154.189 38.1011C154.189 35.3874 156.391 33.1873 159.107 33.1873C161.823 33.1873 164.025 35.3874 164.025 38.1011Z" fill="#E6E6E6"/>
<path fill-rule="evenodd" clip-rule="evenodd" d="M182.393 38.1011C182.393 40.8152 180.191 43.0153 177.474 43.0153C174.758 43.0153 172.556 40.8152 172.556 38.1011C172.556 35.3874 174.758 33.1873 177.474 33.1873C180.191 33.1873 182.393 35.3874 182.393 38.1011Z" fill="#E6E6E6"/>
<g clip-path="url(#clip0_5_4977)">
<path d="M316.554 104.284C315.649 103.977 314.737 103.692 313.818 103.43C313.972 102.805 314.114 102.187 314.24 101.581C316.312 91.62 314.957 83.5953 310.333 80.9532C305.898 78.4203 298.646 81.0615 291.323 87.3763C290.601 87.9997 289.895 88.6412 289.206 89.2999C288.744 88.8619 288.275 88.4323 287.798 88.0115C280.122 81.2595 272.428 78.4138 267.808 81.0634C263.378 83.6042 262.066 91.148 263.931 100.588C264.116 101.523 264.326 102.453 264.559 103.378C263.47 103.684 262.419 104.01 261.413 104.358C252.414 107.466 246.667 112.338 246.667 117.391C246.667 122.609 252.836 127.844 262.21 131.018C262.97 131.274 263.736 131.512 264.508 131.73C264.257 132.726 264.034 133.728 263.84 134.736C262.063 144.012 263.451 151.378 267.869 153.903C272.433 156.51 280.092 153.83 287.55 147.371C288.154 146.846 288.746 146.306 289.323 145.752C290.07 146.465 290.836 147.158 291.621 147.829C298.845 153.987 305.98 156.474 310.394 153.943C314.953 151.328 316.435 143.415 314.511 133.789C314.36 133.035 314.19 132.284 314.002 131.538C314.539 131.38 315.067 131.218 315.582 131.049C325.326 127.85 331.667 122.679 331.667 117.391C331.667 112.319 325.734 107.415 316.554 104.284ZM314.44 127.634C313.975 127.786 313.499 127.933 313.012 128.077C311.937 124.703 310.485 121.115 308.708 117.408C310.404 113.79 311.8 110.248 312.845 106.896C313.715 107.145 314.558 107.408 315.372 107.685C323.238 110.368 328.036 114.334 328.036 117.391C328.036 120.646 322.854 124.872 314.44 127.634ZM310.949 134.487C311.8 138.744 311.921 142.593 311.358 145.602C310.852 148.305 309.834 150.108 308.575 150.83C305.896 152.366 300.167 150.369 293.989 145.102C293.259 144.478 292.546 143.834 291.852 143.171C294.247 140.576 296.641 137.559 298.977 134.208C303.086 133.847 306.968 133.257 310.489 132.45C310.659 133.126 310.812 133.805 310.949 134.487ZM275.645 150.564C273.028 151.48 270.943 151.506 269.683 150.786C267.002 149.254 265.888 143.34 267.408 135.407C267.589 134.47 267.796 133.538 268.029 132.611C271.51 133.375 275.364 133.923 279.483 134.254C281.835 137.533 284.298 140.546 286.78 143.185C286.252 143.691 285.712 144.183 285.16 144.663C281.862 147.519 278.558 149.545 275.645 150.564ZM263.384 127.614C259.24 126.21 255.817 124.386 253.471 122.396C251.362 120.608 250.298 118.832 250.298 117.391C250.298 114.324 254.912 110.413 262.608 107.755C263.542 107.433 264.52 107.128 265.534 106.843C266.598 110.27 267.993 113.854 269.677 117.478C267.971 121.156 266.556 124.797 265.482 128.265C264.778 128.065 264.078 127.848 263.384 127.614ZM267.494 99.897C265.897 91.8092 266.958 85.7082 269.628 84.1769C272.471 82.546 278.759 84.8713 285.387 90.7016C285.819 91.0826 286.244 91.4714 286.662 91.8677C284.192 94.495 281.752 97.4861 279.421 100.745C275.424 101.112 271.597 101.702 268.079 102.492C267.862 101.632 267.667 100.767 267.494 99.897ZM304.159 108.867C303.329 107.445 302.467 106.04 301.575 104.655C304.287 104.995 306.885 105.446 309.325 105.997C308.593 108.324 307.68 110.756 306.605 113.249C305.819 111.772 305.004 110.311 304.159 108.867ZM289.207 94.4388C290.882 96.2365 292.56 98.2434 294.21 100.421C290.863 100.264 287.51 100.264 284.163 100.419C285.815 98.2615 287.506 96.2572 289.207 94.4388ZM274.159 108.891C273.326 110.324 272.525 111.776 271.76 113.246C270.703 110.761 269.798 108.318 269.059 105.959C271.484 105.422 274.07 104.982 276.765 104.649C275.863 106.042 274.994 107.457 274.159 108.891ZM276.843 130.389C274.059 130.081 271.434 129.664 269.009 129.141C269.759 126.74 270.684 124.245 271.764 121.707C272.533 123.178 273.336 124.631 274.174 126.064C275.035 127.538 275.927 128.981 276.843 130.389ZM289.308 140.596C287.586 138.757 285.87 136.721 284.193 134.533C285.821 134.596 287.48 134.628 289.167 134.628C290.899 134.628 292.612 134.589 294.298 134.515C292.642 136.743 290.971 138.782 289.308 140.596ZM306.639 121.577C307.775 124.143 308.733 126.625 309.493 128.985C307.029 129.542 304.368 129.991 301.564 130.324C302.463 128.913 303.333 127.485 304.174 126.039C305.029 124.57 305.851 123.083 306.639 121.577ZM301.028 124.242C299.741 126.458 298.381 128.632 296.951 130.76C294.36 130.942 291.764 131.032 289.167 131.031C286.521 131.031 283.948 130.949 281.471 130.79C280.003 128.667 278.617 126.489 277.316 124.262C276.021 122.046 274.811 119.783 273.69 117.477C274.809 115.17 276.015 112.905 277.305 110.688L277.305 110.688C278.595 108.471 279.97 106.302 281.427 104.188C283.954 103.999 286.547 103.9 289.166 103.9C291.798 103.9 294.394 104 296.921 104.19C298.363 106.302 299.729 108.462 301.016 110.669C302.312 112.881 303.534 115.135 304.681 117.426C303.545 119.74 302.327 122.014 301.028 124.242ZM308.519 84.0697C311.365 85.696 312.472 92.2542 310.684 100.855C310.57 101.403 310.442 101.962 310.302 102.529C306.775 101.722 302.946 101.123 298.937 100.75C296.601 97.4549 294.181 94.4592 291.751 91.8657C292.388 91.2577 293.04 90.6654 293.706 90.0894C299.982 84.6792 305.847 82.543 308.519 84.0697ZM289.167 109.871C293.359 109.871 296.757 113.238 296.757 117.391C296.757 121.544 293.359 124.91 289.167 124.91C284.975 124.91 281.576 121.544 281.576 117.391C281.576 113.238 284.975 109.871 289.167 109.871Z" fill="#00D8FF"/>
</g>
<path d="M132.667 25.5H344.667C347.704 25.5 350.167 27.9624 350.167 31V189C350.167 192.038 347.704 194.5 344.667 194.5H132.667C129.629 194.5 127.167 192.038 127.167 189V31C127.167 27.9624 129.629 25.5 132.667 25.5Z" stroke="#E6E6E6"/>
<path fill-rule="evenodd" clip-rule="evenodd" d="M243.667 105.61H82.6666V91.131C82.6666 88.8496 84.5187 87 86.8031 87H239.53C241.815 87 243.667 88.8496 243.667 91.131V105.61Z" fill="#E9E9E9" fill-opacity="0.52"/>
<path fill-rule="evenodd" clip-rule="evenodd" d="M86.8031 209C84.5187 209 82.6666 207.151 82.6666 204.869V105.61H243.667V204.869C243.667 207.151 241.815 209 239.53 209H86.8031Z" fill="#F3F3F3" fill-opacity="0.2"/>
<path d="M243.167 106.11V204.869C243.167 206.874 241.539 208.5 239.53 208.5H86.8033C84.7945 208.5 83.1667 206.874 83.1666 204.869V106.11H243.167ZM86.8033 87.5H239.53C241.539 87.5 243.167 89.1263 243.167 91.1309V105.11H83.1666V91.1309L83.1715 90.9443C83.2657 89.0883 84.756 87.5991 86.6158 87.5049L86.8033 87.5Z" stroke="#E6E6E6"/>
<path d="M242.813 138.773C242.939 138.825 243.04 138.926 243.092 139.052V139.053L242.63 139.244C242.63 139.245 242.631 139.246 242.631 139.249C242.631 139.252 242.631 139.254 242.631 139.255L243.095 139.438C243.047 139.56 242.953 139.659 242.835 139.715L242.633 139.287V139.264H242.625V139.269L242.622 139.264C242.621 139.264 242.619 139.264 242.617 139.265L242.633 139.514L242.641 139.764H242.623L242.616 139.515V139.265H241.623V139.765H239.636V139.265H237.65V139.765H235.663V139.265H233.676V139.765H231.69V139.265H229.702V139.765H227.716V139.265H225.73V139.765H223.742V139.265H221.756V139.765H219.769V139.265H217.782V139.765H215.796V139.265H213.809V139.765H211.822V139.265H209.835V139.765H207.849V139.265H205.861V139.765H203.875V139.265H201.889V139.765H199.901V139.265H197.915V139.765H195.928V139.265H193.942V139.765H191.955V139.265H189.968V139.765H187.982V139.265H185.994V139.765H184.008V139.265H182.022V139.765H180.034V139.265H178.048V139.765H176.061V139.265H174.074V139.765H172.088V139.265H170.101V139.765H168.114V139.265H166.127V139.765H164.141V139.265H162.154V139.765H160.167V139.265H158.181V139.765H156.193V139.265H154.207V139.765H152.221V139.265H150.234V139.765H148.247V139.265H146.26V139.765H144.274V139.265H142.286V139.765H140.3V139.265H138.314V139.765H136.326V139.265H134.34V139.765H132.353V139.265H130.366V139.765H128.38V139.265H126.393V139.765H124.406V139.265H122.419V139.765H120.433V139.265H118.446V139.765H116.459V139.265H114.473V139.765H112.485V139.265H110.499V139.765H108.513V139.265H106.526V139.765H104.539V139.265H102.552V139.765H100.566V139.265H98.5792V139.765H96.5919V139.265H94.6056V139.765H92.6183V139.265H90.632V139.765H88.6456V139.265H86.6583V139.765H84.672V139.265H83.6788C83.6761 139.265 83.6741 139.264 83.673 139.264L83.4816 139.724C83.3554 139.672 83.2534 139.572 83.2013 139.446L83.6642 139.255C83.6638 139.254 83.6632 139.252 83.6632 139.249C83.6633 139.246 83.6638 139.245 83.6642 139.244L83.1993 139.059L83.1984 139.058C83.2468 138.937 83.3413 138.839 83.4591 138.783L83.6603 139.21L83.6613 139.235H83.6691L83.6681 139.228L83.672 139.235C83.6732 139.235 83.6747 139.234 83.6769 139.234L83.6603 138.984L83.6534 138.735L83.6525 138.734H83.67L83.6788 139.016V139.234H84.672V138.734H86.6583V139.234H88.6447V138.734H90.632V139.234H92.6183V138.734H94.6056V139.234H96.5919V138.734H98.5792V139.234H100.566V138.734H102.552V139.234H104.539V138.734H106.526V139.234H108.513V138.734H110.499V139.234H112.485V138.734H114.473V139.234H116.459V138.734H118.446V139.234H120.433V138.734H122.419V139.234H124.406V138.734H126.393V139.234H128.38V138.734H130.366V139.234H132.353V138.734H134.34V139.234H136.326V138.734H138.314V139.234H140.3V138.734H142.286V139.234H144.274V138.734H146.26V139.234H148.247V138.734H150.234V139.234H152.22V138.734H154.207V139.234H156.193V138.734H158.181V139.234H160.167V138.734H162.153V139.234H164.141V138.734H166.127V139.234H168.114V138.734H170.101V139.234H172.088V138.734H174.074V139.234H176.061V138.734H178.048V139.234H180.034V138.734H182.022V139.234H184.008V138.734H185.994V139.234H187.982V138.734H189.968V139.234H191.955V138.734H193.942V139.234H195.928V138.734H197.915V139.234H199.901V138.734H201.889V139.234H203.875V138.734H205.861V139.234H207.849V138.734H209.835V139.234H211.822V138.734H213.809V139.234H215.795V138.734H217.782V139.234H219.769V138.734H221.756V139.234H223.742V138.734H225.729V139.234H227.716V138.734H229.702V139.234H231.69V138.734H233.676V139.234H235.663V138.734H237.65V139.234H239.636V138.734H241.623V139.234H242.616C242.619 139.234 242.621 139.235 242.622 139.235L242.813 138.773Z" stroke="#E8E8E8" stroke-dasharray="2 2"/>
<path d="M136.137 208.611L135.882 208.685C135.916 208.802 135.98 208.895 136.06 208.949L136.214 208.721V208.719L136.137 208.611ZM136.137 208.611L136.214 208.588M136.137 208.611L136.092 208.547L136.214 208.577M136.295 208.598L136.214 208.72L136.372 208.946C136.455 208.887 136.519 208.787 136.55 208.662L136.295 208.598ZM136.295 208.598L136.233 208.582M136.295 208.598L136.323 208.557L136.233 208.582M136.214 208.577V208.588M136.214 208.577V208.588M136.214 208.577L136.233 208.582M136.214 208.588L136.233 208.582M136.214 208.509L136.144 208.511C136.164 208.505 136.187 208.5 136.214 208.5M136.214 208.509V208.5M136.214 208.509L136.26 208.507C136.246 208.504 136.23 208.5 136.214 208.5M136.214 208.509V208.5M136.214 107.36C136.24 107.36 136.263 107.354 136.284 107.348L136.239 107.349L136.214 107.35M136.214 107.36V107.35M136.214 107.36C136.196 107.36 136.181 107.355 136.166 107.352L136.214 107.35M136.214 107.36V107.35M136.214 107.27L136.103 107.302L136.214 107.138M136.214 107.27V107.138M136.214 107.27L136.544 107.173C136.509 107.057 136.446 106.963 136.366 106.909L136.214 107.138M136.214 107.27V107.138M136.07 208.512L135.854 208.518V208.5L136.072 208.496C136.072 208.502 136.07 208.507 136.07 208.512ZM136.573 205.459V207.482H135.854V205.459H136.573ZM136.573 201.414V203.437H135.854V201.414H136.573ZM136.573 197.369V199.392H135.854V197.369H136.573ZM136.573 193.324V195.347H135.854V193.324H136.573ZM136.573 189.28V191.302H135.854V189.28H136.573ZM136.573 185.234V187.257H135.854V185.234H136.573ZM136.573 181.189V183.211H135.854V181.189H136.573ZM136.573 177.144V179.166H135.854V177.144H136.573ZM136.573 173.099V175.121H135.854V173.099H136.573ZM136.573 169.054V171.076H135.854V169.054H136.573ZM136.573 165.009V167.031H135.854V165.009H136.573ZM136.573 160.963V162.987H135.854V160.963H136.573ZM136.573 156.918V158.941H135.854V156.918H136.573ZM136.573 152.873V154.896H135.854V152.873H136.573ZM136.573 148.828V150.851H135.854V148.828H136.573ZM136.573 144.783V146.806H135.854V144.783H136.573ZM136.573 140.739V142.761H135.854V140.739H136.573ZM136.573 136.693V138.716H135.854V136.693H136.573ZM136.573 132.648V134.67H135.854V132.648H136.573ZM136.573 128.603V130.625H135.854V128.603H136.573ZM136.573 124.558V126.58H135.854V124.558H136.573ZM136.573 120.513V122.535H135.854V120.513H136.573ZM136.573 116.468V118.49H135.854V116.468H136.573ZM136.573 112.422V114.446H135.854V112.423L136.354 112.422H136.573ZM136.573 108.377V110.4H135.854V108.377H136.573ZM136.572 107.359H136.573L136.354 107.363C136.354 107.357 136.356 107.351 136.356 107.346L136.572 107.342V107.359Z" stroke="#E8E8E8" stroke-dasharray="2 2"/>
<path d="M189.325 208.611L189.07 208.685C189.104 208.802 189.167 208.895 189.248 208.949L189.401 208.721V208.719L189.325 208.611ZM189.325 208.611L189.401 208.588M189.325 208.611L189.28 208.547L189.401 208.577M189.482 208.598L189.401 208.72L189.559 208.946C189.642 208.887 189.707 208.787 189.738 208.662L189.482 208.598ZM189.482 208.598L189.421 208.582M189.482 208.598L189.51 208.557L189.421 208.582M189.401 208.577V208.588M189.401 208.577V208.588M189.401 208.577L189.421 208.582M189.401 208.588L189.421 208.582M189.401 208.509L189.332 208.511C189.352 208.505 189.375 208.5 189.401 208.5M189.401 208.509V208.5M189.401 208.509L189.448 208.507C189.433 208.504 189.418 208.5 189.401 208.5M189.401 208.509V208.5M189.401 107.36C189.427 107.36 189.451 107.354 189.471 107.348L189.426 107.349L189.401 107.35M189.401 107.36V107.35M189.401 107.36C189.384 107.36 189.368 107.355 189.353 107.352L189.401 107.35M189.401 107.36V107.35M189.401 107.27L189.291 107.302L189.401 107.138M189.401 107.27V107.138M189.401 107.27L189.731 107.173C189.697 107.057 189.634 106.963 189.553 106.909L189.401 107.138M189.401 107.27V107.138M189.257 208.512L189.042 208.518V208.5L189.259 208.496C189.259 208.502 189.258 208.507 189.257 208.512ZM189.76 205.459V207.482H189.042V205.459H189.76ZM189.76 201.414V203.437H189.042V201.414H189.76ZM189.76 197.369V199.392H189.042V197.369H189.76ZM189.76 193.324V195.347H189.042V193.324H189.76ZM189.76 189.28V191.302H189.042V189.28H189.76ZM189.76 185.234V187.257H189.042V185.234H189.76ZM189.76 181.189V183.211H189.042V181.189H189.76ZM189.76 177.144V179.166H189.042V177.144H189.76ZM189.76 173.099V175.121H189.042V173.099H189.76ZM189.76 169.054V171.076H189.042V169.054H189.76ZM189.76 165.009V167.031H189.042V165.009H189.76ZM189.76 160.963V162.987H189.042V160.963H189.76ZM189.76 156.918V158.941H189.042V156.918H189.76ZM189.76 152.873V154.896H189.042V152.873H189.76ZM189.76 148.828V150.851H189.042V148.828H189.76ZM189.76 144.783V146.806H189.042V144.783H189.76ZM189.76 140.739V142.761H189.042V140.739H189.76ZM189.76 136.693V138.716H189.042V136.693H189.76ZM189.76 132.648V134.67H189.042V132.648H189.76ZM189.76 128.603V130.625H189.042V128.603H189.76ZM189.76 124.558V126.58H189.042V124.558H189.76ZM189.76 120.513V122.535H189.042V120.513H189.76ZM189.76 116.468V118.49H189.042V116.468H189.76ZM189.76 112.422V114.446H189.042V112.423L189.542 112.422H189.76ZM189.76 108.377V110.4H189.042V108.377H189.76ZM189.759 107.359H189.76L189.542 107.363C189.542 107.357 189.543 107.351 189.544 107.346L189.759 107.342V107.359Z" stroke="#E8E8E8" stroke-dasharray="2 2"/>
<path d="M242.813 173.315C242.939 173.367 243.04 173.468 243.092 173.593V173.594L242.63 173.786C242.63 173.787 242.631 173.788 242.631 173.791C242.631 173.793 242.631 173.795 242.631 173.797L243.095 173.98C243.047 174.102 242.953 174.201 242.835 174.256L242.633 173.829V173.805H242.625V173.811L242.622 173.805C242.621 173.806 242.619 173.806 242.617 173.806L242.633 174.055L242.641 174.305H242.623L242.616 174.056V173.806H241.623V174.306H239.636V173.806H237.65V174.306H235.663V173.806H233.676V174.306H231.69V173.806H229.702V174.306H227.716V173.806H225.73V174.306H223.742V173.806H221.756V174.306H219.769V173.806H217.782V174.306H215.796V173.806H213.809V174.306H211.822V173.806H209.835V174.306H207.849V173.806H205.861V174.306H203.875V173.806H201.889V174.306H199.901V173.806H197.915V174.306H195.928V173.806H193.942V174.306H191.955V173.806H189.968V174.306H187.982V173.806H185.994V174.306H184.008V173.806H182.022V174.306H180.034V173.806H178.048V174.306H176.061V173.806H174.074V174.306H172.088V173.806H170.101V174.306H168.114V173.806H166.127V174.306H164.141V173.806H162.154V174.306H160.167V173.806H158.181V174.306H156.193V173.806H154.207V174.306H152.221V173.806H150.234V174.306H148.247V173.806H146.26V174.306H144.274V173.806H142.286V174.306H140.3V173.806H138.314V174.306H136.326V173.806H134.34V174.306H132.353V173.806H130.366V174.306H128.38V173.806H126.393V174.306H124.406V173.806H122.419V174.306H120.433V173.806H118.446V174.306H116.459V173.806H114.473V174.306H112.485V173.806H110.499V174.306H108.513V173.806H106.526V174.306H104.539V173.806H102.552V174.306H100.566V173.806H98.5792V174.306H96.5919V173.806H94.6056V174.306H92.6183V173.806H90.632V174.306H88.6456V173.806H86.6583V174.306H84.672V173.806H83.6788C83.6761 173.806 83.6741 173.806 83.673 173.805L83.4816 174.266C83.3554 174.214 83.2534 174.114 83.2013 173.988L83.6642 173.797C83.6638 173.795 83.6632 173.793 83.6632 173.791C83.6633 173.788 83.6638 173.787 83.6642 173.786L83.1993 173.601L83.1984 173.6C83.2468 173.479 83.3413 173.38 83.4591 173.325L83.6603 173.752L83.6613 173.777H83.6691L83.6681 173.77L83.672 173.777C83.6732 173.776 83.6747 173.776 83.6769 173.776L83.6603 173.526L83.6534 173.277L83.6525 173.276H83.67L83.6788 173.557V173.776H84.672V173.276H86.6583V173.776H88.6447V173.276H90.632V173.776H92.6183V173.276H94.6056V173.776H96.5919V173.276H98.5792V173.776H100.566V173.276H102.552V173.776H104.539V173.276H106.526V173.776H108.513V173.276H110.499V173.776H112.485V173.276H114.473V173.776H116.459V173.276H118.446V173.776H120.433V173.276H122.419V173.776H124.406V173.276H126.393V173.776H128.38V173.276H130.366V173.776H132.353V173.276H134.34V173.776H136.326V173.276H138.314V173.776H140.3V173.276H142.286V173.776H144.274V173.276H146.26V173.776H148.247V173.276H150.234V173.776H152.22V173.276H154.207V173.776H156.193V173.276H158.181V173.776H160.167V173.276H162.153V173.776H164.141V173.276H166.127V173.776H168.114V173.276H170.101V173.776H172.088V173.276H174.074V173.776H176.061V173.276H178.048V173.776H180.034V173.276H182.022V173.776H184.008V173.276H185.994V173.776H187.982V173.276H189.968V173.776H191.955V173.276H193.942V173.776H195.928V173.276H197.915V173.776H199.901V173.276H201.889V173.776H203.875V173.276H205.861V173.776H207.849V173.276H209.835V173.776H211.822V173.276H213.809V173.776H215.795V173.276H217.782V173.776H219.769V173.276H221.756V173.776H223.742V173.276H225.729V173.776H227.716V173.276H229.702V173.776H231.69V173.276H233.676V173.776H235.663V173.276H237.65V173.776H239.636V173.276H241.623V173.776H242.616C242.619 173.776 242.621 173.777 242.622 173.777L242.813 173.315Z" stroke="#E8E8E8" stroke-dasharray="2 2"/>
<path fill-rule="evenodd" clip-rule="evenodd" d="M96.3165 96.143C96.3165 98.0952 94.7339 99.6777 92.7815 99.6777C90.8293 99.6777 89.2466 98.0952 89.2466 96.143C89.2466 94.1909 90.8293 92.6084 92.7815 92.6084C94.7339 92.6084 96.3165 94.1909 96.3165 96.143Z" fill="#E6E6E6"/>
<path fill-rule="evenodd" clip-rule="evenodd" d="M109.518 96.143C109.518 98.0952 107.935 99.6777 105.983 99.6777C104.031 99.6777 102.448 98.0952 102.448 96.143C102.448 94.1909 104.031 92.6084 105.983 92.6084C107.935 92.6084 109.518 94.1909 109.518 96.143Z" fill="#E6E6E6"/>
<path fill-rule="evenodd" clip-rule="evenodd" d="M122.72 96.143C122.72 98.0952 121.137 99.6777 119.185 99.6777C117.232 99.6777 115.65 98.0952 115.65 96.143C115.65 94.1909 117.232 92.6084 119.185 92.6084C121.137 92.6084 122.72 94.1909 122.72 96.143Z" fill="#E6E6E6"/>
<g clip-path="url(#clip1_5_4977)">
<path d="M216.467 129H229.667L196.667 185.948L163.667 129H188.912L196.667 142.205L204.257 129H216.467Z" fill="#41B883"/>
<path d="M163.667 129L196.667 185.948L229.667 129H216.467L196.667 163.169L176.702 129H163.667Z" fill="#41B883"/>
<path d="M176.702 129L196.667 163.334L216.467 129H204.257L196.667 142.205L188.912 129H176.702Z" fill="#35495E"/>
</g>
<path d="M86.6666 87.5H239.667C241.6 87.5 243.167 89.067 243.167 91V205C243.167 206.933 241.6 208.5 239.667 208.5H86.6666C84.7336 208.5 83.1666 206.933 83.1666 205V91L83.1715 90.8203C83.265 88.9708 84.7939 87.5 86.6666 87.5Z" stroke="#E6E6E6"/>
<path fill-rule="evenodd" clip-rule="evenodd" d="M172.667 164.407H38.6666V152.42C38.6666 150.531 40.2081 149 42.1094 149H169.224C171.125 149 172.667 150.531 172.667 152.42V164.407Z" fill="#EBEBEB" fill-opacity="0.58"/>
<path fill-rule="evenodd" clip-rule="evenodd" d="M42.1094 250C40.2081 250 38.6666 248.469 38.6666 246.58V164.407H172.667V246.58C172.667 248.469 171.125 250 169.224 250H42.1094Z" fill="#F3F3F3" fill-opacity="0.2"/>
<path d="M172.167 164.906V246.58C172.167 248.189 170.853 249.5 169.224 249.5H42.109C40.4809 249.5 39.1666 248.189 39.1666 246.58V164.906H172.167ZM42.109 149.5H169.224C170.852 149.5 172.167 150.811 172.167 152.42V163.906H39.1666V152.42C39.1666 150.861 40.4002 149.582 41.9576 149.504L42.109 149.5Z" stroke="#E6E6E6"/>
<path d="M39.5037 192.158L39.5007 192.159L39.5017 192.17L39.5066 192.159L39.5037 192.158ZM39.5037 192.158L39.5007 192.157V192.143L39.5066 192.157L39.5056 192.158H39.5037ZM42.5154 191.731V192.585H40.5105V191.731H42.5154ZM46.5232 191.731V192.585H44.5193V191.731H46.5232ZM50.532 191.731V192.585H48.5281V191.731H50.532ZM54.5408 191.731V192.585H52.5369V191.731H54.5408ZM58.5496 191.731V192.585H56.5447V191.731H58.5496ZM62.5583 191.731V192.585H60.5535V191.731H62.5583ZM66.5662 191.731V192.585H64.5623V191.731H66.5662ZM70.575 191.731V192.585H68.571V191.731H70.575ZM74.5837 191.731V192.585H72.5798V191.731H74.5837ZM78.5925 191.731V192.585H76.5876V191.731H78.5925ZM82.6013 191.731V192.585H80.5964V191.731H82.6013ZM86.6091 191.731V192.585H84.6052V191.731H86.6091ZM90.6179 191.731V192.585H88.614V191.731H90.6179ZM94.6267 191.731V192.585H92.6228V191.731H94.6267ZM98.6355 191.731V192.585H96.6316V192.085H96.6306V191.731H98.6355ZM102.644 191.731V192.585H100.639V191.731H102.644ZM106.653 191.731V192.585H104.648V191.731H106.653ZM110.661 191.731V192.585H108.657V191.731H110.661ZM114.67 191.731V192.585H112.666V191.731H114.67ZM118.678 191.731V192.585H116.675V191.731H118.678ZM122.687 191.731V192.585H120.682V191.731H122.687ZM126.696 191.731V192.585H124.691V191.731H126.696ZM130.704 191.731V192.585H128.7V191.731H130.704ZM134.713 191.731V192.585H132.709V191.731H134.713ZM138.721 191.731V192.585H136.718V191.731H138.721ZM142.73 191.731V192.585H140.725V191.731H142.73ZM146.739 191.731V192.585H144.734V191.731H146.739ZM150.747 191.731V192.585H148.743V191.731H150.747ZM154.756 191.731V192.585H152.752V191.731H154.756ZM158.764 191.731V192.585H156.76V191.731H158.764ZM162.773 191.731V192.585H160.768V191.731H162.773ZM166.782 191.731V192.585H164.777V191.731H166.782ZM170.79 191.731V192.231H170.791V192.585H168.786V191.731H170.79ZM171.805 192.366L171.812 192.584H171.799L171.793 192.367V192.159L171.805 192.366ZM39.4949 192.186L39.3445 192.552C39.2395 192.509 39.1554 192.425 39.1121 192.321L39.4939 192.161L39.4949 192.186ZM172.19 192.315C172.15 192.416 172.072 192.497 171.973 192.543L171.807 192.188L171.806 192.161L172.19 192.315ZM171.8 192.16V192.172L171.794 192.159L171.796 192.158L171.8 192.16ZM39.5076 192.158V192.157L39.5085 192.156V192.16L39.5076 192.158ZM171.795 192.158L171.793 192.157L171.799 192.142L171.8 192.157L171.798 192.158H171.795ZM39.5085 191.95V192.154L39.5076 192.156L39.4939 191.927L39.488 191.732L39.4871 191.731H39.5017L39.5085 191.95ZM39.4929 192.127L39.4939 192.154L39.1101 192C39.1504 191.899 39.2278 191.817 39.3259 191.771L39.4929 192.127ZM171.955 191.763C172.06 191.806 172.144 191.89 172.187 191.995H172.188L171.806 192.154L171.805 192.126L171.955 191.763Z" stroke="#E8E8E8" stroke-dasharray="2 2"/>
<path d="M83.1708 249.676L82.9579 249.739C82.9862 249.836 83.0392 249.914 83.1063 249.958L83.2333 249.768V249.766L83.1708 249.676ZM83.1708 249.676L83.2333 249.659M83.1708 249.676L83.1337 249.623L83.2333 249.649M83.3007 249.666L83.2333 249.767L83.3651 249.955C83.4344 249.907 83.4874 249.823 83.5135 249.72L83.3007 249.666ZM83.3007 249.666L83.2499 249.653M83.3007 249.666L83.3231 249.631L83.2499 249.653M83.2333 249.649V249.659M83.2333 249.649V249.659M83.2333 249.649L83.2499 249.653M83.2333 249.659L83.2499 249.653M83.2333 249.592L83.1141 249.595L83.1044 249.582L83.2333 249.579M83.2333 249.592V249.579M83.2333 249.592H83.2528L83.3524 249.587L83.3583 249.579H83.2333M83.2333 249.592V249.579M83.2333 165.718V165.704M83.2333 165.718H83.2411L83.4266 165.713C83.4274 165.712 83.429 165.712 83.4296 165.711C83.4328 165.707 83.4334 165.703 83.4344 165.701L83.2401 165.704H83.2333M83.2333 165.718V165.704M83.2333 165.718H83.1093L83.1141 165.71L83.2333 165.704M83.2333 165.639L83.1434 165.665L83.2333 165.531M83.2333 165.639V165.531M83.2333 165.639L83.5087 165.558C83.4802 165.461 83.4273 165.384 83.3602 165.339L83.2333 165.531M83.2333 165.639V165.531M83.0311 249.597L82.9344 249.599V249.585L83.0321 249.583C83.0319 249.589 83.0318 249.594 83.0311 249.597ZM83.5331 246.584V248.581H82.9344V246.584H83.5331ZM83.5331 242.591V244.588H82.9344V242.591H83.5331ZM83.5331 238.598V240.595H82.9344V238.598H83.5331ZM83.5331 234.605V236.601H82.9344V234.605H83.5331ZM83.5331 230.611V232.608H82.9344V230.611H83.5331ZM83.5331 226.618V228.615H82.9344V226.618H83.5331ZM83.5331 222.624V224.621H82.9344V222.624H83.5331ZM83.5331 218.631V220.627H82.9344V218.631H83.5331ZM83.5331 214.637V216.634H82.9344V214.637H83.5331ZM83.5331 210.644V212.641H82.9344V210.644H83.5331ZM83.5331 206.651V208.648H82.9344V206.651H83.5331ZM83.5331 202.658V204.654H82.9344V202.658H83.5331ZM83.5331 198.664V200.661H82.9344V198.664H83.5331ZM83.5331 194.67V196.667H82.9344V194.67H83.5331ZM83.5331 190.677V192.674H82.9344V190.677H83.5331ZM83.5331 186.684V188.68H82.9344V186.684H83.5331ZM83.5331 182.691V184.687H82.9344V182.691H83.5331ZM83.5331 178.697V180.694H82.9344V178.697H83.5331ZM83.5331 174.703V176.701H82.9344V174.703H83.5331ZM83.5331 170.71V172.706H82.9344V170.71H83.5331ZM83.5331 166.717V168.713H82.9344V166.717H83.5331ZM83.5321 165.711L83.4344 165.713C83.4351 165.7 83.4378 165.696 83.4354 165.701L83.5321 165.699V165.711Z" stroke="#E8E8E8" stroke-dasharray="2 2"/>
<path d="M127.439 249.676L127.226 249.739C127.254 249.836 127.307 249.914 127.374 249.958L127.501 249.768V249.766L127.439 249.676ZM127.439 249.676L127.501 249.659M127.439 249.676L127.402 249.623L127.501 249.649M127.569 249.666L127.501 249.767L127.633 249.955C127.702 249.907 127.755 249.823 127.781 249.72L127.569 249.666ZM127.569 249.666L127.518 249.653M127.569 249.666L127.591 249.631L127.518 249.653M127.501 249.649V249.659M127.501 249.649V249.659M127.501 249.649L127.518 249.653M127.501 249.659L127.518 249.653M127.501 249.592L127.382 249.595L127.372 249.582L127.501 249.579M127.501 249.592V249.579M127.501 249.592H127.521L127.62 249.587L127.626 249.579H127.501M127.501 249.592V249.579M127.501 165.718V165.704M127.501 165.718H127.509L127.695 165.713C127.695 165.712 127.697 165.712 127.698 165.711C127.701 165.707 127.701 165.703 127.702 165.701L127.508 165.704H127.501M127.501 165.718V165.704M127.501 165.718H127.377L127.382 165.71L127.501 165.704M127.501 165.639L127.411 165.665L127.501 165.531M127.501 165.639V165.531M127.501 165.639L127.777 165.558C127.748 165.461 127.695 165.384 127.628 165.339L127.501 165.531M127.501 165.639V165.531M127.299 249.597L127.202 249.599V249.585L127.3 249.583C127.3 249.589 127.3 249.594 127.299 249.597ZM127.801 246.584V248.581H127.202V246.584H127.801ZM127.801 242.591V244.588H127.202V242.591H127.801ZM127.801 238.598V240.595H127.202V238.598H127.801ZM127.801 234.605V236.601H127.202V234.605H127.801ZM127.801 230.611V232.608H127.202V230.611H127.801ZM127.801 226.618V228.615H127.202V226.618H127.801ZM127.801 222.624V224.621H127.202V222.624H127.801ZM127.801 218.631V220.627H127.202V218.631H127.801ZM127.801 214.637V216.634H127.202V214.637H127.801ZM127.801 210.644V212.641H127.202V210.644H127.801ZM127.801 206.651V208.648H127.202V206.651H127.801ZM127.801 202.658V204.654H127.202V202.658H127.801ZM127.801 198.664V200.661H127.202V198.664H127.801ZM127.801 194.67V196.667H127.202V194.67H127.801ZM127.801 190.677V192.674H127.202V190.677H127.801ZM127.801 186.684V188.68H127.202V186.684H127.801ZM127.801 182.691V184.687H127.202V182.691H127.801ZM127.801 178.697V180.694H127.202V178.697H127.801ZM127.801 174.703V176.701H127.202V174.703H127.801ZM127.801 170.71V172.706H127.202V170.71H127.801ZM127.801 166.717V168.713H127.202V166.717H127.801ZM127.8 165.711L127.702 165.713C127.703 165.7 127.706 165.696 127.703 165.701L127.8 165.699V165.711Z" stroke="#E8E8E8" stroke-dasharray="2 2"/>
<path d="M39.5037 220.802L39.5007 220.803L39.5017 220.815L39.5066 220.803L39.5037 220.802ZM39.5037 220.802L39.5007 220.801V220.787L39.5066 220.801L39.5056 220.802H39.5037ZM42.5154 220.375V221.23H40.5105V220.375H42.5154ZM46.5232 220.375V221.23H44.5193V220.375H46.5232ZM50.532 220.375V221.23H48.5281V220.375H50.532ZM54.5408 220.375V221.23H52.5369V220.375H54.5408ZM58.5496 220.375V221.23H56.5447V220.375H58.5496ZM62.5583 220.375V221.23H60.5535V220.375H62.5583ZM66.5662 220.375V221.23H64.5623V220.375H66.5662ZM70.575 220.375V221.23H68.571V220.375H70.575ZM74.5837 220.375V221.23H72.5798V220.375H74.5837ZM78.5925 220.375V221.23H76.5876V220.375H78.5925ZM82.6013 220.375V221.23H80.5964V220.375H82.6013ZM86.6091 220.375V221.23H84.6052V220.375H86.6091ZM90.6179 220.375V221.23H88.614V220.375H90.6179ZM94.6267 220.375V221.23H92.6228V220.375H94.6267ZM98.6355 220.375V221.23H96.6316V220.73H96.6306V220.375H98.6355ZM102.644 220.375V221.23H100.639V220.375H102.644ZM106.653 220.375V221.23H104.648V220.375H106.653ZM110.661 220.375V221.23H108.657V220.375H110.661ZM114.67 220.375V221.23H112.666V220.375H114.67ZM118.678 220.375V221.23H116.675V220.375H118.678ZM122.687 220.375V221.23H120.682V220.375H122.687ZM126.696 220.375V221.23H124.691V220.375H126.696ZM130.704 220.375V221.23H128.7V220.375H130.704ZM134.713 220.375V221.23H132.709V220.375H134.713ZM138.721 220.375V221.23H136.718V220.375H138.721ZM142.73 220.375V221.23H140.725V220.375H142.73ZM146.739 220.375V221.23H144.734V220.375H146.739ZM150.747 220.375V221.23H148.743V220.375H150.747ZM154.756 220.375V221.23H152.752V220.375H154.756ZM158.764 220.375V221.23H156.76V220.375H158.764ZM162.773 220.375V221.23H160.768V220.375H162.773ZM166.782 220.375V221.23H164.777V220.375H166.782ZM170.79 220.375V220.875H170.791V221.23H168.786V220.375H170.79ZM171.805 221.01L171.812 221.229H171.799L171.793 221.011V220.803L171.805 221.01ZM39.4949 220.83L39.3445 221.197C39.2395 221.153 39.1554 221.07 39.1121 220.965L39.4939 220.806L39.4949 220.83ZM172.19 220.959C172.15 221.061 172.072 221.142 171.973 221.188L171.807 220.832L171.806 220.806L172.19 220.959ZM171.8 220.804V220.817L171.794 220.803L171.796 220.802L171.8 220.804ZM39.5076 220.802V220.801L39.5085 220.8V220.804L39.5076 220.802ZM171.795 220.802L171.793 220.801L171.799 220.786L171.8 220.801L171.798 220.802H171.795ZM39.5085 220.594V220.798L39.5076 220.8L39.4939 220.572L39.488 220.376L39.4871 220.375H39.5017L39.5085 220.594ZM39.4929 220.772L39.4939 220.798L39.1101 220.645C39.1504 220.544 39.2278 220.461 39.3259 220.415L39.4929 220.772ZM171.955 220.407C172.06 220.451 172.144 220.534 172.187 220.639H172.188L171.806 220.798L171.805 220.771L171.955 220.407Z" stroke="#E8E8E8" stroke-dasharray="2 2"/>
<path fill-rule="evenodd" clip-rule="evenodd" d="M50.0274 156.411C50.0274 158.03 48.7101 159.342 47.0851 159.342C45.4603 159.342 44.1431 158.03 44.1431 156.411C44.1431 154.792 45.4603 153.48 47.0851 153.48C48.7101 153.48 50.0274 154.792 50.0274 156.411Z" fill="#E6E6E6"/>
<path fill-rule="evenodd" clip-rule="evenodd" d="M61.015 156.411C61.015 158.03 59.6978 159.342 58.0728 159.342C56.448 159.342 55.1307 158.03 55.1307 156.411C55.1307 154.792 56.448 153.48 58.0728 153.48C59.6978 153.48 61.015 154.792 61.015 156.411Z" fill="#E6E6E6"/>
<path fill-rule="evenodd" clip-rule="evenodd" d="M72.0027 156.411C72.0027 158.03 70.6855 159.342 69.0605 159.342C67.4357 159.342 66.1184 158.03 66.1184 156.411C66.1184 154.792 67.4357 153.48 69.0605 153.48C70.6855 153.48 72.0027 154.792 72.0027 156.411Z" fill="#E6E6E6"/>
<g clip-path="url(#clip2_5_4977)">
<path d="M128.167 191C121.367 191 117.117 194.546 115.417 201.639C117.967 198.093 120.942 196.763 124.342 197.649C126.281 198.155 127.668 199.623 129.203 201.248C131.703 203.895 134.596 206.958 140.917 206.958C147.717 206.958 151.967 203.412 153.667 196.319C151.117 199.866 148.142 201.196 144.742 200.309C142.802 199.803 141.415 198.335 139.88 196.711C137.38 194.063 134.487 191 128.167 191ZM115.417 206.958C108.617 206.958 104.367 210.505 102.667 217.597C105.217 214.051 108.192 212.721 111.592 213.608C113.531 214.114 114.918 215.582 116.453 217.206C118.953 219.853 121.846 222.917 128.167 222.917C134.967 222.917 139.217 219.37 140.917 212.278C138.367 215.824 135.392 217.154 131.992 216.268C130.052 215.762 128.665 214.294 127.13 212.669C124.63 210.022 121.737 206.958 115.417 206.958Z" fill="url(#paint0_linear_5_4977)"/>
</g>
<path d="M41.6666 149.5H169.667C171.047 149.5 172.167 150.619 172.167 152V247C172.167 248.381 171.047 249.5 169.667 249.5H41.6666C40.2859 249.5 39.1666 248.381 39.1666 247V152C39.1666 150.619 40.2859 149.5 41.6666 149.5Z" stroke="#E6E6E6"/>
<defs>
<linearGradient id="paint0_linear_5_4977" x1="116.408" y1="191" x2="139.488" y2="223.042" gradientUnits="userSpaceOnUse">
<stop stop-color="#32B1C1"/>
<stop offset="1" stop-color="#14C6B7"/>
</linearGradient>
<clipPath id="clip0_5_4977">
<rect width="85" height="75" fill="white" transform="translate(246.667 80)"/>
</clipPath>
<clipPath id="clip1_5_4977">
<rect width="66" height="57" fill="white" transform="translate(163.667 129)"/>
</clipPath>
<clipPath id="clip2_5_4977">
<rect width="51" height="32" fill="white" transform="translate(102.667 191)"/>
</clipPath>
</defs>
</svg>
