<svg width="389" height="270" viewBox="0 0 389 270" fill="none" xmlns="http://www.w3.org/2000/svg">
<g clip-path="url(#clip0_6_421825)">
<line x1="121.5" y1="270" x2="121.5" y2="0.692322" stroke="#EAEAEA" stroke-opacity="0.16"/>
<line x1="61.5" y1="269.308" x2="61.5" y2="-6.10352e-05" stroke="#EAEAEA" stroke-opacity="0.16"/>
<line x1="181.5" y1="270" x2="181.5" y2="0.692322" stroke="#EAEAEA" stroke-opacity="0.16"/>
<line x1="316.5" y1="270" x2="316.5" y2="0.692322" stroke="#EAEAEA" stroke-opacity="0.16"/>
<line x1="31.5" y1="269.308" x2="31.5" y2="-6.10352e-05" stroke="#EAEAEA" stroke-opacity="0.16"/>
<line x1="151.5" y1="270" x2="151.5" y2="0.692322" stroke="#EAEAEA" stroke-opacity="0.16"/>
<line x1="286.5" y1="270" x2="286.5" y2="0.692322" stroke="#EAEAEA" stroke-opacity="0.16"/>
<line x1="91.5" y1="269.308" x2="91.5" y2="-6.10352e-05" stroke="#EAEAEA" stroke-opacity="0.16"/>
<line x1="211.5" y1="270" x2="211.5" y2="0.692322" stroke="#EAEAEA" stroke-opacity="0.16"/>
<line x1="346.5" y1="270" x2="346.5" y2="0.692322" stroke="#EAEAEA" stroke-opacity="0.16"/>
<line x1="241.5" y1="270" x2="241.5" y2="0.692322" stroke="#EAEAEA" stroke-opacity="0.16"/>
<line x1="376.5" y1="270" x2="376.5" y2="0.692322" stroke="#EAEAEA" stroke-opacity="0.16"/>
<line x1="16.5" y1="269.308" x2="16.5" y2="-6.10352e-05" stroke="#EAEAEA" stroke-opacity="0.16"/>
<line x1="136.5" y1="270" x2="136.5" y2="0.692322" stroke="#EAEAEA" stroke-opacity="0.16"/>
<line x1="271.5" y1="270" x2="271.5" y2="0.692322" stroke="#EAEAEA" stroke-opacity="0.16"/>
<line x1="76.5" y1="269.308" x2="76.5" y2="-6.10352e-05" stroke="#EAEAEA" stroke-opacity="0.16"/>
<line x1="196.5" y1="270" x2="196.5" y2="0.692322" stroke="#EAEAEA" stroke-opacity="0.16"/>
<line x1="331.5" y1="270" x2="331.5" y2="0.692322" stroke="#EAEAEA" stroke-opacity="0.16"/>
<line x1="46.5" y1="269.308" x2="46.5" y2="-6.10352e-05" stroke="#EAEAEA" stroke-opacity="0.16"/>
<line x1="166.5" y1="270" x2="166.5" y2="0.692322" stroke="#EAEAEA" stroke-opacity="0.16"/>
<line x1="301.5" y1="270" x2="301.5" y2="0.692322" stroke="#EAEAEA" stroke-opacity="0.16"/>
<line x1="106.5" y1="269.308" x2="106.5" y2="-6.10352e-05" stroke="#EAEAEA" stroke-opacity="0.16"/>
<line x1="226.5" y1="270" x2="226.5" y2="0.692322" stroke="#EAEAEA" stroke-opacity="0.16"/>
<line x1="361.5" y1="270" x2="361.5" y2="0.692322" stroke="#EAEAEA" stroke-opacity="0.16"/>
<line x1="256.5" y1="270" x2="256.5" y2="0.692322" stroke="#EAEAEA" stroke-opacity="0.16"/>
<line x1="1" y1="14.5" x2="390" y2="14.5" stroke="#EAEAEA" stroke-opacity="0.16"/>
<line y1="134.5" x2="389" y2="134.5" stroke="#EAEAEA" stroke-opacity="0.16"/>
<line x1="1" y1="74.5" x2="390" y2="74.5" stroke="#EAEAEA" stroke-opacity="0.16"/>
<line y1="194.5" x2="389" y2="194.5" stroke="#EAEAEA" stroke-opacity="0.16"/>
<line x1="1" y1="44.5" x2="390" y2="44.5" stroke="#EAEAEA" stroke-opacity="0.16"/>
<line y1="164.5" x2="389" y2="164.5" stroke="#EAEAEA" stroke-opacity="0.16"/>
<line x1="1" y1="104.5" x2="390" y2="104.5" stroke="#EAEAEA" stroke-opacity="0.16"/>
<line y1="224.5" x2="389" y2="224.5" stroke="#EAEAEA" stroke-opacity="0.16"/>
<line y1="254.5" x2="389" y2="254.5" stroke="#EAEAEA" stroke-opacity="0.16"/>
<line x1="1" y1="29.5" x2="390" y2="29.5" stroke="#EAEAEA" stroke-opacity="0.16"/>
<line y1="149.5" x2="389" y2="149.5" stroke="#EAEAEA" stroke-opacity="0.16"/>
<line x1="1" y1="89.5" x2="390" y2="89.5" stroke="#EAEAEA" stroke-opacity="0.16"/>
<line y1="209.5" x2="389" y2="209.5" stroke="#EAEAEA" stroke-opacity="0.16"/>
<line x1="1" y1="59.5" x2="390" y2="59.5" stroke="#EAEAEA" stroke-opacity="0.16"/>
<line y1="179.5" x2="389" y2="179.5" stroke="#EAEAEA" stroke-opacity="0.16"/>
<line x1="1" y1="119.5" x2="390" y2="119.5" stroke="#EAEAEA" stroke-opacity="0.16"/>
<line y1="239.5" x2="389" y2="239.5" stroke="#EAEAEA" stroke-opacity="0.16"/>
<line y1="269.5" x2="389" y2="269.5" stroke="#EAEAEA" stroke-opacity="0.16"/>
<path d="M71.833 107V61H317.833V107" stroke="#D3D3D3"/>
<rect x="163.233" y="36.4" width="66.2" height="48.2" rx="1.6" fill="white" stroke="#E432B3" stroke-width="0.8"/>
<path d="M192.058 63.3499L189.564 60.8562C189.881 60.4207 190.099 59.975 190.217 59.519C190.336 59.063 190.396 58.5983 190.396 58.1249C190.396 57.6499 190.336 57.1844 190.217 56.7284C190.099 56.2724 189.881 55.8473 189.564 55.453L192.058 52.8999C192.691 53.652 193.166 54.4832 193.483 55.3937C193.8 56.3041 193.958 57.2145 193.958 58.1249C193.958 59.0353 193.8 59.9362 193.483 60.8277C193.166 61.7191 192.691 62.5598 192.058 63.3499ZM197.105 68.4562L194.552 65.903C195.541 64.7947 196.284 63.5676 196.78 62.2218C197.275 60.8759 197.522 59.5103 197.521 58.1249C197.521 56.7395 197.274 55.3842 196.78 54.0589C196.286 52.7337 195.543 51.5161 194.552 50.4062L197.105 47.853C198.451 49.3176 199.451 50.931 200.105 52.6933C200.758 54.4555 201.085 56.2661 201.083 58.1249C201.083 59.9853 200.756 61.8062 200.102 63.5874C199.448 65.3687 198.449 66.9916 197.105 68.4562ZM179.708 60.4999C178.402 60.4999 177.283 60.0344 176.352 59.1034C175.421 58.1724 174.956 57.0546 174.958 55.7499C174.958 54.4437 175.424 53.325 176.355 52.394C177.286 51.463 178.403 50.9983 179.708 50.9999C181.014 50.9999 182.133 51.4654 183.064 52.3964C183.995 53.3274 184.46 54.4452 184.458 55.7499C184.458 57.0562 183.993 58.1748 183.062 59.1058C182.131 60.0368 181.013 60.5015 179.708 60.4999ZM170.208 69.9999V68.6343C170.208 67.6843 170.465 66.8134 170.98 66.0218C171.494 65.2301 172.207 64.6364 173.117 64.2405C174.147 63.8051 175.206 63.4687 176.295 63.2312C177.384 62.9937 178.522 62.8749 179.708 62.8749C180.896 62.8749 182.034 62.9937 183.123 63.2312C184.213 63.4687 185.271 63.8051 186.299 64.2405C187.209 64.6364 187.922 65.2301 188.436 66.0218C188.951 66.8134 189.208 67.6843 189.208 68.6343V69.9999H170.208ZM212.958 60.4999C211.652 60.4999 210.533 60.0344 209.602 59.1034C208.671 58.1724 208.206 57.0546 208.208 55.7499C208.208 54.4437 208.674 53.325 209.605 52.394C210.536 51.463 211.653 50.9983 212.958 50.9999C214.264 50.9999 215.383 51.4654 216.314 52.3964C217.245 53.3274 217.71 54.4452 217.708 55.7499C217.708 57.0562 217.243 58.1748 216.312 59.1058C215.381 60.0368 214.263 60.5015 212.958 60.4999ZM203.458 69.9999V68.6343C203.458 67.6843 203.715 66.8134 204.23 66.0218C204.744 65.2301 205.457 64.6364 206.367 64.2405C207.397 63.8051 208.455 63.4687 209.543 63.2312C210.631 62.9937 211.769 62.8749 212.958 62.8749C214.146 62.8749 215.283 62.9937 216.371 63.2312C217.459 63.4687 218.518 63.8051 219.549 64.2405C220.459 64.6364 221.172 65.2301 221.686 66.0218C222.201 66.8134 222.458 67.6843 222.458 68.6343V69.9999H203.458Z" fill="#333333"/>
<g clip-path="url(#clip1_6_421825)">
<path fill-rule="evenodd" clip-rule="evenodd" d="M347.833 125.407H213.833V113.42C213.833 111.531 215.375 110 217.276 110H344.39C346.292 110 347.833 111.531 347.833 113.42V125.407Z" fill="#EBEBEB" fill-opacity="0.58"/>
<path fill-rule="evenodd" clip-rule="evenodd" d="M217.276 211C215.375 211 213.833 209.469 213.833 207.58V125.407H347.833V207.58C347.833 209.469 346.292 211 344.39 211H217.276Z" fill="#F3F3F3" fill-opacity="0.2"/>
<path d="M347.333 125.906V207.58C347.333 209.189 346.019 210.5 344.391 210.5H217.275C215.647 210.5 214.333 209.189 214.333 207.58V125.906H347.333ZM217.275 110.5H344.391C346.019 110.5 347.333 111.811 347.333 113.42V124.906H214.333V113.42C214.333 111.861 215.567 110.582 217.124 110.504L217.275 110.5Z" stroke="#D9D9D9"/>
<rect width="76" height="55" rx="1" transform="matrix(-1 0 0 1 340.833 149)" fill="#F8F8F8"/>
<rect x="220.833" y="149" width="40" height="55" rx="1" fill="#F8F8F8"/>
<path fill-rule="evenodd" clip-rule="evenodd" d="M225.194 117.411C225.194 119.03 223.877 120.342 222.252 120.342C220.627 120.342 219.31 119.03 219.31 117.411C219.31 115.792 220.627 114.48 222.252 114.48C223.877 114.48 225.194 115.792 225.194 117.411Z" fill="#E6E6E6"/>
<path fill-rule="evenodd" clip-rule="evenodd" d="M236.182 117.411C236.182 119.03 234.864 120.342 233.239 120.342C231.615 120.342 230.297 119.03 230.297 117.411C230.297 115.792 231.615 114.48 233.239 114.48C234.864 114.48 236.182 115.792 236.182 117.411Z" fill="#E6E6E6"/>
<path fill-rule="evenodd" clip-rule="evenodd" d="M247.169 117.411C247.169 119.03 245.852 120.342 244.227 120.342C242.602 120.342 241.285 119.03 241.285 117.411C241.285 115.792 242.602 114.48 244.227 114.48C245.852 114.48 247.169 115.792 247.169 117.411Z" fill="#E6E6E6"/>
<path d="M216.833 110.5H344.833C346.214 110.5 347.333 111.619 347.333 113V208C347.333 209.381 346.214 210.5 344.833 210.5H216.833C215.452 210.5 214.333 209.381 214.333 208V113C214.333 111.619 215.452 110.5 216.833 110.5Z" stroke="#D9D9D9"/>
<rect x="220.833" y="132" width="120" height="13" rx="1" fill="#F8F8F8"/>
</g>
<circle cx="317.833" cy="108" r="2" fill="#D9D9D9"/>
<path d="M46.833 110.5H177.833C179.214 110.5 180.333 111.619 180.333 113V238C180.333 239.381 179.214 240.5 177.833 240.5H46.833C45.4523 240.5 44.333 239.381 44.333 238V113C44.333 111.619 45.4523 110.5 46.833 110.5Z" fill="#FCFCFC" fill-opacity="0.41" stroke="#D9D9D9"/>
<rect x="174.833" y="173" width="60" height="57" rx="2" transform="rotate(180 174.833 173)" fill="#F2F2F2"/>
<path fill-rule="evenodd" clip-rule="evenodd" d="M147.041 129.125C147.268 129.125 147.485 129.215 147.645 129.375C147.805 129.535 147.895 129.753 147.895 129.979V132.542C147.895 132.768 147.985 132.985 148.146 133.146C148.306 133.306 148.523 133.396 148.75 133.396C148.976 133.396 149.193 133.306 149.353 133.146C149.514 132.985 149.604 132.768 149.604 132.542V130.833H150.458C151.137 130.833 151.789 131.103 152.27 131.584C152.75 132.064 153.02 132.716 153.02 133.396V153.896C153.02 154.575 152.75 155.227 152.27 155.708C151.789 156.188 151.137 156.458 150.458 156.458H135.937C135.257 156.458 134.606 156.188 134.125 155.708C133.644 155.227 133.375 154.575 133.375 153.896V133.396C133.375 132.716 133.644 132.064 134.125 131.584C134.606 131.103 135.257 130.833 135.937 130.833H137.645V129.979C137.645 129.753 137.735 129.535 137.896 129.375C138.056 129.215 138.273 129.125 138.5 129.125C138.726 129.125 138.943 129.215 139.103 129.375C139.264 129.535 139.354 129.753 139.354 129.979V132.542C139.354 132.768 139.444 132.985 139.604 133.146C139.764 133.306 139.981 133.396 140.208 133.396C140.434 133.396 140.652 133.306 140.812 133.146C140.972 132.985 141.062 132.768 141.062 132.542V130.833H146.187V129.979C146.187 129.753 146.277 129.535 146.437 129.375C146.597 129.215 146.815 129.125 147.041 129.125ZM137.645 139.375C137.419 139.375 137.202 139.465 137.041 139.625C136.881 139.785 136.791 140.003 136.791 140.229C136.791 140.456 136.881 140.673 137.041 140.833C137.202 140.993 137.419 141.083 137.645 141.083H148.75C148.976 141.083 149.193 140.993 149.353 140.833C149.514 140.673 149.604 140.456 149.604 140.229C149.604 140.003 149.514 139.785 149.353 139.625C149.193 139.465 148.976 139.375 148.75 139.375H137.645ZM136.791 144.5C136.791 144.273 136.881 144.056 137.041 143.896C137.202 143.736 137.419 143.646 137.645 143.646H143.625C143.851 143.646 144.068 143.736 144.228 143.896C144.389 144.056 144.479 144.273 144.479 144.5C144.479 144.727 144.389 144.944 144.228 145.104C144.068 145.264 143.851 145.354 143.625 145.354H137.645C137.419 145.354 137.202 145.264 137.041 145.104C136.881 144.944 136.791 144.727 136.791 144.5ZM137.645 147.917C137.419 147.917 137.202 148.007 137.041 148.167C136.881 148.327 136.791 148.544 136.791 148.771C136.791 148.997 136.881 149.215 137.041 149.375C137.202 149.535 137.419 149.625 137.645 149.625H147.041C147.268 149.625 147.485 149.535 147.645 149.375C147.805 149.215 147.895 148.997 147.895 148.771C147.895 148.544 147.805 148.327 147.645 148.167C147.485 148.007 147.268 147.917 147.041 147.917H137.645Z" fill="#333333"/>
<path d="M135.937 159.875C134.351 159.875 132.831 159.245 131.709 158.124C130.588 157.002 129.958 155.481 129.958 153.896V132.542H131.666V153.896C131.666 155.028 132.116 156.115 132.917 156.916C133.718 157.717 134.804 158.167 135.937 158.167H150.458V159.875H135.937ZM155.583 135.104C155.583 134.424 155.853 133.773 156.334 133.292C156.814 132.811 157.466 132.542 158.146 132.542C158.825 132.542 159.477 132.811 159.957 133.292C160.438 133.773 160.708 134.424 160.708 135.104V137.667H155.583V135.104ZM155.583 152.187V139.375H160.708V152.187L158.146 155.604L155.583 152.187Z" fill="#333333"/>
<rect x="0.4" y="-0.4" width="59.2" height="56.2" rx="1.6" transform="matrix(1 0 0 -1 49.833 172.2)" stroke="#FF8400" stroke-width="0.8"/>
<rect width="60" height="57" rx="2" transform="matrix(1 0 0 -1 49.833 235)" fill="#F2F2F2"/>
<rect x="0.4" y="-0.4" width="59.2" height="56.2" rx="1.6" transform="matrix(1 0 0 -1 114.833 234.2)" stroke="#0052F0" stroke-width="0.8"/>
<g clip-path="url(#clip2_6_421825)">
<path d="M70.483 131C71.6102 131 72.6912 131.444 73.4882 132.236C74.2852 133.027 74.733 134.1 74.733 135.219C74.733 136.338 74.2852 137.411 73.4882 138.202C72.6912 138.993 71.6102 139.438 70.483 139.438C69.3558 139.438 68.2748 138.993 67.4778 138.202C66.6808 137.411 66.233 136.338 66.233 135.219C66.233 134.1 66.6808 133.027 67.4778 132.236C68.2748 131.444 69.3558 131 70.483 131ZM90.033 131C91.1602 131 92.2412 131.444 93.0382 132.236C93.8352 133.027 94.283 134.1 94.283 135.219C94.283 136.338 93.8352 137.411 93.0382 138.202C92.2412 138.993 91.1602 139.438 90.033 139.438C88.9058 139.438 87.8248 138.993 87.0278 138.202C86.2308 137.411 85.783 136.338 85.783 135.219C85.783 134.1 86.2308 133.027 87.0278 132.236C87.8248 131.444 88.9058 131 90.033 131ZM62.833 146.752C62.833 143.646 65.3724 141.125 68.5014 141.125H70.7699C71.6146 141.125 72.4168 141.31 73.1393 141.637C73.0702 142.016 73.0383 142.412 73.0383 142.812C73.0383 144.827 73.9308 146.636 75.3386 147.875H63.9646C63.343 147.875 62.833 147.369 62.833 146.752ZM84.3646 147.875H84.3274C85.7405 146.636 86.6277 144.827 86.6277 142.812C86.6277 142.412 86.5905 142.021 86.5268 141.637C87.2493 141.304 88.0514 141.125 88.8961 141.125H91.1646C94.2936 141.125 96.833 143.646 96.833 146.752C96.833 147.374 96.323 147.875 95.7014 147.875H84.3646ZM74.733 142.812C74.733 141.47 75.2703 140.182 76.2268 139.233C77.1832 138.283 78.4804 137.75 79.833 137.75C81.1856 137.75 82.4828 138.283 83.4393 139.233C84.3957 140.182 84.933 141.47 84.933 142.812C84.933 144.155 84.3957 145.443 83.4393 146.392C82.4828 147.342 81.1856 147.875 79.833 147.875C78.4804 147.875 77.1832 147.342 76.2268 146.392C75.2703 145.443 74.733 144.155 74.733 142.812ZM69.633 156.592C69.633 152.711 72.8046 149.562 76.7146 149.562H82.9514C86.8614 149.562 90.033 152.711 90.033 156.592C90.033 157.367 89.4008 158 88.6146 158H71.0514C70.2705 158 69.633 157.372 69.633 156.592Z" fill="#333333"/>
</g>
<g clip-path="url(#clip3_6_421825)">
<path d="M137.833 205.5L136.833 208.6H138.833L137.833 205.5Z" fill="#333333"/>
<path d="M157.133 192H141.133V197V199H132.133C130.433 199 129.133 200.3 129.133 202V213C129.133 214.7 130.433 216 132.133 216H133.133V221.1L139.433 216H146.133V209H157.133C158.833 209 160.133 207.7 160.133 206V195C160.133 193.3 158.833 192 157.133 192ZM139.933 211.9L139.433 210.3H136.333L135.733 211.9H133.333L136.633 203H139.033L142.333 211.9H139.933Z" fill="#333333"/>
<path d="M154.922 200.499C154.686 200.137 154.365 199.84 153.987 199.632C153.61 199.423 153.187 199.311 152.755 199.305C152.749 199.118 152.725 198.932 152.684 198.75C152.67 198.679 152.641 198.612 152.6 198.552C152.559 198.492 152.506 198.442 152.445 198.403C152.384 198.364 152.315 198.337 152.244 198.325C152.172 198.313 152.099 198.316 152.029 198.333C151.958 198.349 151.892 198.38 151.833 198.423C151.775 198.466 151.726 198.52 151.688 198.582C151.651 198.645 151.627 198.714 151.617 198.785C151.607 198.857 151.612 198.93 151.631 199C151.655 199.107 151.67 199.216 151.675 199.326C151.071 199.401 150.478 199.55 149.911 199.771C149.923 199.119 149.953 198.467 150.018 197.817L150.038 197.61C150.673 197.524 151.302 197.404 151.924 197.25L151.989 197.234C152.061 197.219 152.128 197.19 152.188 197.149C152.248 197.107 152.299 197.054 152.338 196.992C152.377 196.931 152.403 196.862 152.414 196.79C152.426 196.718 152.423 196.644 152.406 196.573C152.388 196.503 152.356 196.436 152.313 196.378C152.269 196.32 152.214 196.271 152.15 196.234C152.087 196.198 152.017 196.175 151.945 196.166C151.873 196.157 151.799 196.163 151.729 196.183L151.663 196.199C151.164 196.324 150.658 196.418 150.15 196.497L150.232 195.679C150.246 195.536 150.203 195.394 150.112 195.282C150.067 195.227 150.012 195.182 149.949 195.148C149.886 195.114 149.818 195.093 149.747 195.086C149.604 195.072 149.461 195.115 149.35 195.206C149.239 195.297 149.168 195.428 149.154 195.571L149.048 196.633C148.542 196.678 148.035 196.709 147.526 196.709C147.382 196.709 147.245 196.766 147.143 196.867C147.041 196.969 146.984 197.107 146.984 197.25C146.984 197.394 147.041 197.532 147.143 197.633C147.245 197.735 147.382 197.792 147.526 197.792C147.997 197.792 148.468 197.767 148.938 197.73C148.859 198.576 148.822 199.425 148.828 200.275C148.756 200.314 148.682 200.352 148.61 200.394C148.241 200.605 147.889 200.842 147.554 201.104L147.542 201.113C146.999 201.532 146.516 202.025 146.107 202.576C145.918 202.838 145.811 203.151 145.8 203.474C145.789 203.797 145.874 204.117 146.046 204.391C146.217 204.665 146.466 204.882 146.762 205.015C147.057 205.147 147.385 205.188 147.704 205.133C148.241 205.03 148.76 204.845 149.24 204.583C149.307 204.688 149.409 204.767 149.527 204.806C149.645 204.845 149.773 204.842 149.89 204.797C150.006 204.752 150.103 204.668 150.165 204.56C150.226 204.452 150.248 204.325 150.227 204.202C150.214 204.124 150.208 204.045 150.196 203.966C150.446 203.772 150.684 203.563 150.908 203.34C151.35 202.899 151.733 202.402 152.046 201.861C152.058 201.84 152.068 201.819 152.081 201.797C152.145 201.684 152.205 201.569 152.261 201.454C152.289 201.393 152.316 201.333 152.342 201.273C152.408 201.124 152.468 200.973 152.521 200.819C152.538 200.767 152.553 200.716 152.569 200.664C152.597 200.572 152.624 200.481 152.646 200.391L152.649 200.381C152.908 200.377 153.164 200.435 153.396 200.55C153.628 200.665 153.83 200.834 153.984 201.042C154.536 201.999 153.463 203.738 151.592 204.917C151.532 204.955 151.479 205.004 151.438 205.062C151.397 205.12 151.368 205.186 151.352 205.255C151.337 205.325 151.335 205.397 151.347 205.467C151.359 205.537 151.385 205.604 151.422 205.664C151.46 205.724 151.51 205.776 151.568 205.818C151.626 205.859 151.692 205.888 151.761 205.904C151.83 205.919 151.902 205.921 151.972 205.909C152.042 205.897 152.11 205.871 152.17 205.833C154.607 204.297 155.79 202.004 154.922 200.499ZM147.514 204.066C147.408 204.083 147.299 204.069 147.202 204.024C147.104 203.98 147.022 203.907 146.965 203.816C146.908 203.725 146.88 203.619 146.883 203.512C146.886 203.405 146.921 203.301 146.983 203.213C147.337 202.739 147.755 202.316 148.224 201.955L148.239 201.944C148.438 201.79 148.645 201.647 148.858 201.514C148.891 202.161 148.952 202.807 149.035 203.45C148.571 203.748 148.055 203.957 147.514 204.066ZM151.484 200.5C151.435 200.644 151.378 200.785 151.313 200.923C151.283 200.988 151.249 201.052 151.216 201.117C151.163 201.217 151.107 201.317 151.047 201.417C151.001 201.493 150.954 201.568 150.904 201.643C150.68 201.977 150.425 202.289 150.141 202.574C150.103 202.612 150.064 202.646 150.025 202.683C149.966 202.106 149.928 201.528 149.911 200.948C150.419 200.715 150.954 200.545 151.503 200.443L151.484 200.5Z" fill="#F2F2F2"/>
<path d="M156.361 207.571L156.372 213.72L150.26 208.334L156.361 207.571Z" fill="#333333"/>
</g>
<path d="M64.833 195.75C64.833 195.153 65.0701 194.581 65.492 194.159C65.914 193.737 66.4863 193.5 67.083 193.5H92.583C93.1144 193.499 93.6289 193.686 94.0354 194.029C94.4419 194.371 94.7141 194.846 94.804 195.37C94.8938 195.893 94.7954 196.432 94.5262 196.89C94.2569 197.348 93.8343 197.696 93.333 197.873V208.875C93.333 210.367 92.7404 211.798 91.6855 212.852C90.6306 213.907 89.1999 214.5 87.708 214.5H80.958V218.25H86.208C86.5064 218.25 86.7925 218.369 87.0035 218.58C87.2145 218.79 87.333 219.077 87.333 219.375C87.333 219.673 87.2145 219.96 87.0035 220.17C86.7925 220.381 86.5064 220.5 86.208 220.5H73.458C73.1596 220.5 72.8735 220.381 72.6625 220.17C72.4515 219.96 72.333 219.673 72.333 219.375C72.333 219.077 72.4515 218.79 72.6625 218.58C72.8735 218.369 73.1596 218.25 73.458 218.25H78.708V214.5H71.958C70.4662 214.5 69.0354 213.907 67.9805 212.852C66.9256 211.798 66.333 210.367 66.333 208.875V197.873C65.8941 197.717 65.5142 197.43 65.2456 197.05C64.9769 196.67 64.8328 196.215 64.833 195.75ZM75.333 200.625C75.333 201.246 75.837 201.75 76.458 201.75H82.458C82.7564 201.75 83.0425 201.631 83.2535 201.42C83.4645 201.21 83.583 200.923 83.583 200.625C83.583 200.327 83.4645 200.04 83.2535 199.83C83.0425 199.619 82.7564 199.5 82.458 199.5H76.458C76.1596 199.5 75.8735 199.619 75.6625 199.83C75.4515 200.04 75.333 200.327 75.333 200.625ZM76.458 208.5C76.1596 208.5 75.8735 208.619 75.6625 208.83C75.4515 209.04 75.333 209.327 75.333 209.625C75.333 209.923 75.4515 210.21 75.6625 210.42C75.8735 210.631 76.1596 210.75 76.458 210.75H82.458C82.7564 210.75 83.0425 210.631 83.2535 210.42C83.4645 210.21 83.583 209.923 83.583 209.625C83.583 209.327 83.4645 209.04 83.2535 208.83C83.0425 208.619 82.7564 208.5 82.458 208.5H76.458ZM74.958 204C74.6596 204 74.3735 204.119 74.1625 204.33C73.9515 204.54 73.833 204.827 73.833 205.125C73.833 205.423 73.9515 205.71 74.1625 205.92C74.3735 206.131 74.6596 206.25 74.958 206.25H84.708C85.0064 206.25 85.2925 206.131 85.5035 205.92C85.7145 205.71 85.833 205.423 85.833 205.125C85.833 204.827 85.7145 204.54 85.5035 204.33C85.2925 204.119 85.0064 204 84.708 204H74.958Z" fill="#333333"/>
<path d="M333.057 166.5C335.972 166.5 338.333 168.869 338.333 171.789V236.211C338.333 239.131 335.972 241.5 333.057 241.5H299.609C296.694 241.5 294.333 239.131 294.333 236.211V171.789C294.333 168.869 296.694 166.5 299.609 166.5H333.057Z" fill="#F3F3F3" stroke="#D9D9D9"/>
<path d="M337.833 172H294.833V236H337.833V172Z" fill="white"/>
<path d="M321.817 174.666H311.002C310.201 174.666 309.433 174.348 308.867 173.782C308.301 173.216 307.983 172.449 307.983 171.649H324.837C324.837 172.449 324.519 173.216 323.952 173.782C323.386 174.348 322.618 174.666 321.817 174.666Z" fill="#F3F3F3"/>
<rect width="37" height="41" rx="1" transform="matrix(-1 0 0 1 334.833 192)" fill="#F8F8F8"/>
<rect x="334.833" y="189" width="37" height="11" rx="1" transform="rotate(180 334.833 189)" fill="#F8F8F8"/>
<circle cx="71.833" cy="108" r="2" fill="#D9D9D9"/>
</g>
<defs>
<clipPath id="clip0_6_421825">
<rect width="389" height="270" fill="white"/>
</clipPath>
<clipPath id="clip1_6_421825">
<rect width="134" height="102" fill="white" transform="translate(213.833 109)"/>
</clipPath>
<clipPath id="clip2_6_421825">
<rect width="34" height="27" fill="white" transform="translate(62.833 131)"/>
</clipPath>
<clipPath id="clip3_6_421825">
<rect width="36" height="36" fill="white" transform="translate(126.833 189)"/>
</clipPath>
</defs>
</svg>
