<svg width="48" height="48" viewBox="0 0 48 48" fill="none" xmlns="http://www.w3.org/2000/svg">
<rect width="48" height="48" rx="2" fill="#E1E1E1"/>
<g clip-path="url(#clip0_6_20818)">
<path d="M19 26C19 26.2652 18.8946 26.5196 18.7071 26.7071C18.5196 26.8946 18.2652 27 18 27H17C16.7348 27 16.4804 26.8946 16.2929 26.7071C16.1054 26.5196 16 26.2652 16 26C16 25.7348 16.1054 25.4804 16.2929 25.2929C16.4804 25.1054 16.7348 25 17 25H18C18.2652 25 18.5196 25.1054 18.7071 25.2929C18.8946 25.4804 19 25.7348 19 26ZM23 25H22C21.7348 25 21.4804 25.1054 21.2929 25.2929C21.1054 25.4804 21 25.7348 21 26C21 26.2652 21.1054 26.5196 21.2929 26.7071C21.4804 26.8946 21.7348 27 22 27H23C23.2652 27 23.5196 26.8946 23.7071 26.7071C23.8946 26.5196 24 26.2652 24 26C24 25.7348 23.8946 25.4804 23.7071 25.2929C23.5196 25.1054 23.2652 25 23 25ZM18 29H17C16.7348 29 16.4804 29.1054 16.2929 29.2929C16.1054 29.4804 16 29.7348 16 30C16 30.2652 16.1054 30.5196 16.2929 30.7071C16.4804 30.8946 16.7348 31 17 31H18C18.2652 31 18.5196 30.8946 18.7071 30.7071C18.8946 30.5196 19 30.2652 19 30C19 29.7348 18.8946 29.4804 18.7071 29.2929C18.5196 29.1054 18.2652 29 18 29ZM23 29H22C21.7348 29 21.4804 29.1054 21.2929 29.2929C21.1054 29.4804 21 29.7348 21 30C21 30.2652 21.1054 30.5196 21.2929 30.7071C21.4804 30.8946 21.7348 31 22 31H23C23.2652 31 23.5196 30.8946 23.7071 30.7071C23.8946 30.5196 24 30.2652 24 30C24 29.7348 23.8946 29.4804 23.7071 29.2929C23.5196 29.1054 23.2652 29 23 29ZM18 17H17C16.7348 17 16.4804 17.1054 16.2929 17.2929C16.1054 17.4804 16 17.7348 16 18C16 18.2652 16.1054 18.5196 16.2929 18.7071C16.4804 18.8946 16.7348 19 17 19H18C18.2652 19 18.5196 18.8946 18.7071 18.7071C18.8946 18.5196 19 18.2652 19 18C19 17.7348 18.8946 17.4804 18.7071 17.2929C18.5196 17.1054 18.2652 17 18 17ZM23 17H22C21.7348 17 21.4804 17.1054 21.2929 17.2929C21.1054 17.4804 21 17.7348 21 18C21 18.2652 21.1054 18.5196 21.2929 18.7071C21.4804 18.8946 21.7348 19 22 19H23C23.2652 19 23.5196 18.8946 23.7071 18.7071C23.8946 18.5196 24 18.2652 24 18C24 17.7348 23.8946 17.4804 23.7071 17.2929C23.5196 17.1054 23.2652 17 23 17ZM18 21H17C16.7348 21 16.4804 21.1054 16.2929 21.2929C16.1054 21.4804 16 21.7348 16 22C16 22.2652 16.1054 22.5196 16.2929 22.7071C16.4804 22.8946 16.7348 23 17 23H18C18.2652 23 18.5196 22.8946 18.7071 22.7071C18.8946 22.5196 19 22.2652 19 22C19 21.7348 18.8946 21.4804 18.7071 21.2929C18.5196 21.1054 18.2652 21 18 21ZM23 21H22C21.7348 21 21.4804 21.1054 21.2929 21.2929C21.1054 21.4804 21 21.7348 21 22C21 22.2652 21.1054 22.5196 21.2929 22.7071C21.4804 22.8946 21.7348 23 22 23H23C23.2652 23 23.5196 22.8946 23.7071 22.7071C23.8946 22.5196 24 22.2652 24 22C24 21.7348 23.8946 21.4804 23.7071 21.2929C23.5196 21.1054 23.2652 21 23 21ZM36 22V31C35.9984 32.3256 35.4711 33.5964 34.5338 34.5338C33.5964 35.4711 32.3256 35.9984 31 36H17C15.6744 35.9984 14.4036 35.4711 13.4662 34.5338C12.5289 33.5964 12.0016 32.3256 12 31V17C12.0016 15.6744 12.5289 14.4036 13.4662 13.4662C14.4036 12.5289 15.6744 12.0016 17 12H23C24.3256 12.0016 25.5964 12.5289 26.5338 13.4662C27.4711 14.4036 27.9984 15.6744 28 17H31C32.3256 17.0016 33.5964 17.5289 34.5338 18.4662C35.4711 19.4036 35.9984 20.6744 36 22ZM17 34H26V17C26 16.2044 25.6839 15.4413 25.1213 14.8787C24.5587 14.3161 23.7956 14 23 14H17C16.2044 14 15.4413 14.3161 14.8787 14.8787C14.3161 15.4413 14 16.2044 14 17V31C14 31.7956 14.3161 32.5587 14.8787 33.1213C15.4413 33.6839 16.2044 34 17 34ZM34 22C34 21.2044 33.6839 20.4413 33.1213 19.8787C32.5587 19.3161 31.7956 19 31 19H28V34H31C31.7956 34 32.5587 33.6839 33.1213 33.1213C33.6839 32.5587 34 31.7956 34 31V22ZM31 25C30.8022 25 30.6089 25.0586 30.4444 25.1685C30.28 25.2784 30.1518 25.4346 30.0761 25.6173C30.0004 25.8 29.9806 26.0011 30.0192 26.1951C30.0578 26.3891 30.153 26.5673 30.2929 26.7071C30.4327 26.847 30.6109 26.9422 30.8049 26.9808C30.9989 27.0194 31.2 26.9996 31.3827 26.9239C31.5654 26.8482 31.7216 26.72 31.8315 26.5556C31.9414 26.3911 32 26.1978 32 26C32 25.7348 31.8946 25.4804 31.7071 25.2929C31.5196 25.1054 31.2652 25 31 25ZM31 29C30.8022 29 30.6089 29.0586 30.4444 29.1685C30.28 29.2784 30.1518 29.4346 30.0761 29.6173C30.0004 29.8 29.9806 30.0011 30.0192 30.1951C30.0578 30.3891 30.153 30.5673 30.2929 30.7071C30.4327 30.847 30.6109 30.9422 30.8049 30.9808C30.9989 31.0194 31.2 30.9996 31.3827 30.9239C31.5654 30.8482 31.7216 30.72 31.8315 30.5556C31.9414 30.3911 32 30.1978 32 30C32 29.7348 31.8946 29.4804 31.7071 29.2929C31.5196 29.1054 31.2652 29 31 29ZM31 21C30.8022 21 30.6089 21.0586 30.4444 21.1685C30.28 21.2784 30.1518 21.4346 30.0761 21.6173C30.0004 21.8 29.9806 22.0011 30.0192 22.1951C30.0578 22.3891 30.153 22.5673 30.2929 22.7071C30.4327 22.847 30.6109 22.9422 30.8049 22.9808C30.9989 23.0194 31.2 22.9996 31.3827 22.9239C31.5654 22.8482 31.7216 22.72 31.8315 22.5556C31.9414 22.3911 32 22.1978 32 22C32 21.7348 31.8946 21.4804 31.7071 21.2929C31.5196 21.1054 31.2652 21 31 21Z" fill="#333333"/>
</g>
<defs>
<clipPath id="clip0_6_20818">
<rect width="24" height="24" fill="white" transform="translate(12 12)"/>
</clipPath>
</defs>
</svg>
