<svg width="48" height="48" viewBox="0 0 48 48" fill="none" xmlns="http://www.w3.org/2000/svg">
<rect width="48" height="48" rx="2" fill="#E1E1E1"/>
<g clip-path="url(#clip0_6_20806)">
<path d="M24 12C21.6266 12 19.3066 12.7038 17.3332 14.0224C15.3598 15.3409 13.8217 17.2151 12.9135 19.4078C12.0052 21.6005 11.7676 24.0133 12.2306 26.3411C12.6936 28.6689 13.8365 30.8071 15.5147 32.4853C17.193 34.1635 19.3312 35.3064 21.6589 35.7694C23.9867 36.2324 26.3995 35.9948 28.5922 35.0866C30.7849 34.1783 32.6591 32.6402 33.9776 30.6668C35.2962 28.6935 36 26.3734 36 24C35.9966 20.8185 34.7312 17.7682 32.4815 15.5185C30.2318 13.2688 27.1815 12.0034 24 12V12ZM24 34C22.0222 34 20.0888 33.4135 18.4443 32.3147C16.7998 31.2159 15.5181 29.6541 14.7612 27.8268C14.0043 25.9996 13.8063 23.9889 14.1922 22.0491C14.578 20.1093 15.5304 18.3275 16.9289 16.9289C18.3275 15.5304 20.1093 14.578 22.0491 14.1921C23.9889 13.8063 25.9996 14.0043 27.8268 14.7612C29.6541 15.5181 31.2159 16.7998 32.3147 18.4443C33.4135 20.0888 34 22.0222 34 24C33.9971 26.6513 32.9426 29.1931 31.0679 31.0679C29.1931 32.9426 26.6513 33.9971 24 34Z" fill="#333333"/>
<path d="M23.9999 18C23.7347 18 23.4804 18.1054 23.2928 18.2929C23.1053 18.4804 22.9999 18.7348 22.9999 19V23.325L19.6289 25.437C19.4035 25.5778 19.2433 25.8024 19.1834 26.0614C19.1236 26.3204 19.1691 26.5926 19.3099 26.818C19.4508 27.0434 19.6754 27.2037 19.9344 27.2635C20.1934 27.3233 20.4655 27.2778 20.6909 27.137L24.5309 24.737C24.676 24.6461 24.7953 24.5195 24.8775 24.3692C24.9596 24.219 25.0018 24.0502 24.9999 23.879V19C24.9999 18.7348 24.8946 18.4804 24.7071 18.2929C24.5195 18.1054 24.2652 18 23.9999 18Z" fill="#333333"/>
</g>
<defs>
<clipPath id="clip0_6_20806">
<rect width="24" height="24" fill="white" transform="translate(12 12)"/>
</clipPath>
</defs>
</svg>
