<svg width="27" height="27" viewBox="0 0 27 27" fill="none" xmlns="http://www.w3.org/2000/svg">
<g clip-path="url(#clip0_178_11560)">
<rect width="27" height="27" rx="4" fill="url(#paint0_linear_178_11560)"/>
<path d="M4.71045 8.08594C6.57441 8.08594 8.08545 6.5749 8.08545 4.71094C8.08545 2.84698 6.57441 1.33594 4.71045 1.33594C2.84649 1.33594 1.33545 2.84698 1.33545 4.71094C1.33545 6.5749 2.84649 8.08594 4.71045 8.08594Z" fill="#6FCF97"/>
<path d="M22.3716 25.7266C24.2355 25.7266 25.7466 24.2155 25.7466 22.3516C25.7466 20.4876 24.2355 18.9766 22.3716 18.9766C20.5076 18.9766 18.9966 20.4876 18.9966 22.3516C18.9966 24.2155 20.5076 25.7266 22.3716 25.7266Z" fill="#BAFAFE"/>
<path d="M5.57719 5.05489C5.71278 4.90758 5.81082 4.72972 5.86297 4.53641C5.91512 4.34311 5.91983 4.14007 5.87672 3.94455C5.8092 3.64058 5.63202 3.37216 5.37905 3.1906C5.12608 3.00904 4.81507 2.92708 4.50548 2.96039C4.19589 2.9937 3.90944 3.13995 3.70088 3.37117C3.49233 3.60239 3.37631 3.90236 3.375 4.21373C3.37588 4.52536 3.49326 4.82539 3.70406 5.05489C3.50534 5.05501 3.31477 5.13385 3.17403 5.27415C3.0333 5.41444 2.95387 5.60477 2.95312 5.80349V7.5593C3.46554 7.85743 4.04779 8.01449 4.64062 8.01449C5.23346 8.01449 5.81571 7.85743 6.32812 7.5593V5.80349C6.32738 5.60477 6.24795 5.41444 6.10722 5.27415C5.96648 5.13385 5.77591 5.05501 5.57719 5.05489V5.05489Z" fill="black"/>
<path d="M22.3594 8.01562C24.2233 8.01562 25.7344 6.50459 25.7344 4.64062C25.7344 2.77666 24.2233 1.26562 22.3594 1.26562C20.4954 1.26562 18.9844 2.77666 18.9844 4.64062C18.9844 6.50459 20.4954 8.01562 22.3594 8.01562Z" fill="#F2994A"/>
<path d="M4.64062 25.7344C6.50459 25.7344 8.01562 24.2233 8.01562 22.3594C8.01562 20.4954 6.50459 18.9844 4.64062 18.9844C2.77666 18.9844 1.26562 20.4954 1.26562 22.3594C1.26562 24.2233 2.77666 25.7344 4.64062 25.7344Z" fill="#FFE35B"/>
<path d="M19.8281 14.5571V12.4429L18.4517 11.9871C18.3547 11.6701 18.2274 11.3632 18.0713 11.0707L18.656 9.83959C18.2445 9.26106 17.7389 8.75555 17.1604 8.34405L15.9293 8.92873C15.6368 8.77269 15.3299 8.6453 15.0129 8.54834L14.5571 7.17188H12.4429L11.9871 8.54832L11.0708 8.92868L9.83966 8.34396C9.26111 8.75546 8.7556 9.26098 8.34411 9.83953L8.92877 11.0707L8.54835 11.9871L7.17188 12.4429V14.5571L8.54832 15.0128L8.92871 15.9292L8.34399 17.1603C8.75548 17.7389 9.26101 18.2444 9.83958 18.6559L11.0707 18.0712L11.9871 18.4517L12.4429 19.8281H14.5571L15.0129 18.4517C15.3299 18.3547 15.6368 18.2273 15.9293 18.0713L17.1604 18.6559C17.739 18.2444 18.2445 17.7389 18.6559 17.1604L18.0713 15.9292C18.2273 15.6367 18.3547 15.3298 18.4517 15.0128L19.8281 14.5571Z" fill="white"/>
<path d="M22.3594 4.21875C22.2475 4.21875 22.1402 4.1743 22.0611 4.09519C21.9819 4.01607 21.9375 3.90876 21.9375 3.79688C21.9375 3.68499 21.9819 3.57768 22.0611 3.49856C22.1402 3.41945 22.2475 3.375 22.3594 3.375H23.2031V2.53125H22.3594C22.0237 2.53125 21.7018 2.66459 21.4644 2.90194C21.2271 3.13929 21.0938 3.46121 21.0938 3.79688C21.0938 4.13254 21.2271 4.45446 21.4644 4.69181C21.7018 4.92916 22.0237 5.0625 22.3594 5.0625C22.4713 5.0625 22.5786 5.10695 22.6577 5.18606C22.7368 5.26518 22.7812 5.37249 22.7812 5.48438C22.7812 5.59626 22.7368 5.70357 22.6577 5.78269C22.5786 5.8618 22.4713 5.90625 22.3594 5.90625H21.5156V6.75H22.3594C22.695 6.75 23.017 6.61666 23.2543 6.37931C23.4917 6.14196 23.625 5.82004 23.625 5.48438C23.625 5.14871 23.4917 4.82679 23.2543 4.58944C23.017 4.35209 22.695 4.21875 22.3594 4.21875V4.21875Z" fill="black"/>
<path d="M3.79688 22.7812H2.95312V24.0469H3.79688V22.7812Z" fill="black"/>
<path d="M5.0625 21.5156H4.21875V24.0469H5.0625V21.5156Z" fill="black"/>
<path d="M6.32812 20.6719H5.48438V24.0469H6.32812V20.6719Z" fill="black"/>
<path d="M23.7485 20.375L22.575 21.5485C22.4343 21.5065 22.2843 21.5065 22.1436 21.5485L21.3919 20.7969L20.7954 21.3934L21.547 22.145C21.5271 22.2153 21.5165 22.2878 21.5156 22.3608C21.5156 22.5845 21.6044 22.7992 21.7627 22.9574C21.9209 23.1156 22.1355 23.2045 22.3593 23.2045C22.5831 23.2045 22.7977 23.1156 22.9559 22.9574C23.1142 22.7992 23.2031 22.5845 23.2031 22.3608C23.2021 22.2878 23.1915 22.2153 23.1716 22.145L24.3451 20.9715L23.7485 20.375Z" fill="black"/>
<path d="M21.4238 13.0781H21.0938V13.9219H21.4238C22.1192 13.9226 22.786 14.1992 23.2777 14.691C23.7695 15.1828 24.0461 15.8495 24.0469 16.545V16.7003L23.5014 16.1548L22.9049 16.7514L24.1705 18.017C24.2096 18.0562 24.2561 18.0873 24.3073 18.1085C24.3585 18.1297 24.4134 18.1406 24.4688 18.1406C24.5242 18.1406 24.579 18.1297 24.6302 18.1085C24.6814 18.0873 24.7279 18.0562 24.767 18.017L26.0327 16.7514L25.4361 16.1549L24.8906 16.7003V16.545C24.8896 15.6258 24.524 14.7446 23.874 14.0947C23.2241 13.4448 22.3429 13.0792 21.4238 13.0781V13.0781Z" fill="black"/>
<path d="M13.9219 21.4238V21.0938H13.0781V21.4238C13.0774 22.1192 12.8008 22.786 12.309 23.2777C11.8172 23.7695 11.1505 24.0461 10.455 24.0469H10.2997L10.8452 23.5014L10.2486 22.9049L8.98297 24.1705C8.94379 24.2096 8.91271 24.2561 8.8915 24.3073C8.87029 24.3585 8.85938 24.4134 8.85938 24.4688C8.85938 24.5242 8.87029 24.579 8.8915 24.6302C8.91271 24.6814 8.94379 24.7279 8.98297 24.767L10.2486 26.0327L10.8451 25.4361L10.2997 24.8906H10.455C11.3741 24.8896 12.2553 24.524 12.9053 23.874C13.5552 23.2241 13.9208 22.3429 13.9219 21.4238V21.4238Z" fill="black"/>
<path d="M5.5762 13.9219H5.9062V13.0781H5.5762C4.88073 13.0774 4.21397 12.8008 3.7222 12.309C3.23044 11.8172 2.95383 11.1505 2.95308 10.455V10.2997L3.49856 10.8452L4.09509 10.2486L2.82947 8.98297C2.7903 8.94379 2.7438 8.91271 2.69262 8.8915C2.64144 8.87029 2.58659 8.85938 2.53119 8.85938C2.47579 8.85938 2.42093 8.87029 2.36975 8.8915C2.31857 8.91271 2.27207 8.94379 2.23291 8.98297L0.967285 10.2486L1.56384 10.8451L2.10933 10.2997V10.455C2.11037 11.3741 2.47597 12.2553 3.1259 12.9053C3.77584 13.5552 4.65705 13.9208 5.5762 13.9219V13.9219Z" fill="black"/>
<path d="M13.0781 5.90767H13.9219V5.57766C13.9226 4.8822 14.1992 4.21544 14.691 3.72367C15.1828 3.2319 15.8495 2.9553 16.545 2.95454H16.7003L16.1549 3.50002L16.7514 4.09656L18.017 2.83093C18.0562 2.79177 18.0873 2.74527 18.1085 2.69409C18.1297 2.64291 18.1406 2.58805 18.1406 2.53265C18.1406 2.47725 18.1297 2.4224 18.1085 2.37122C18.0873 2.32004 18.0562 2.27354 18.017 2.23437L16.7514 0.96875L16.1549 1.56531L16.7003 2.11079H16.545C15.6258 2.11184 14.7446 2.47743 14.0947 3.12737C13.4448 3.77731 13.0792 4.65851 13.0781 5.57766V5.90767Z" fill="black"/>
<path d="M10.8665 14.6916H11.3836V12.7956V12.3359H9.94727V12.7956H10.8665V14.6916Z" fill="black"/>
<path d="M13.7776 14.2128H12.7817V13.734H13.5861V13.2552H12.7817V12.8147H13.7202V12.3359H12.2646V14.6916H13.7776V14.2128Z" fill="black"/>
<path d="M16.7272 14.3293C16.9187 14.0995 17.0336 13.8314 17.0336 13.5058C17.0336 12.7972 16.4591 12.2227 15.7505 12.2227C14.9652 12.2227 14.3332 12.9504 14.5056 13.7739C14.6014 14.2527 14.9844 14.6358 15.4632 14.7315C15.5589 14.7507 15.6547 14.7507 15.7505 14.7507H17.0528V14.291H16.7272V14.3293ZM16.4974 13.7739C16.4208 14.0038 16.2293 14.1953 15.9994 14.2719C15.4632 14.4442 14.9652 14.0421 14.9652 13.525C14.9652 13.0845 15.31 12.7397 15.7505 12.7397C16.2676 12.7397 16.6697 13.2377 16.4974 13.7739Z" fill="black"/>
</g>
<defs>
<linearGradient id="paint0_linear_178_11560" x1="24.3601" y1="2.01661" x2="-0.849939" y2="18.6383" gradientUnits="userSpaceOnUse">
<stop offset="0.010101" stop-color="#5277F7"/>
<stop offset="0.904" stop-color="#836DF3"/>
</linearGradient>
<clipPath id="clip0_178_11560">
<rect width="27" height="27" rx="4" fill="white"/>
</clipPath>
</defs>
</svg>
