<svg width="390" height="731" viewBox="0 0 390 731" fill="none" xmlns="http://www.w3.org/2000/svg">
<mask id="mask0_12_435200" style="mask-type:alpha" maskUnits="userSpaceOnUse" x="0" y="0" width="390" height="731">
<rect width="390" height="731" fill="white"/>
</mask>
<g mask="url(#mask0_12_435200)">
<g opacity="0.3">
<path d="M629.078 0.161133L-453.452 0.161133L-453.452 731L629.078 731L629.078 0.161133Z" fill="#CECECE"/>
<g style="mix-blend-mode:multiply" opacity="0.3">
<path d="M599.705 122.021C579.741 128.034 560.169 135.308 541.104 143.8C502.84 160.565 465.442 180.97 445.769 215.027C439.869 225.297 435.548 236.416 432.952 248.003C430.34 259.433 430.065 270.849 429.055 282.396C427.612 298.825 423.527 316.205 409.627 328.454C393.173 342.924 366.6 347.967 343.925 349.063C309.804 350.73 276.548 342.135 243.25 337.238C213.531 332.853 183.263 332.21 154.468 340.878C130.363 348.186 108.771 361.619 95.5926 380.562C79.2103 404.11 79.2969 433.183 78.5175 459.727C77.738 486.739 80.134 514.072 77.4349 541.011C75.6884 558.405 70.9253 577.217 55.7843 589.875C37.1648 605.295 8.42725 606.289 -15.9369 605.032C-50.4912 603.249 -83.7754 594.523 -117.392 587.931C-151.787 581.163 -186.327 578.123 -221.502 581.879C-254.945 585.446 -287.305 594.347 -317.977 606.129C-347.191 617.354 -376.39 630.29 -401.173 647.801C-420.683 661.45 -438.271 677.721 -453.452 696.168L-453.452 731L629.078 731V114.902C619.15 116.652 609.34 119.029 599.705 122.021Z" fill="#D7D7D7"/>
</g>
<g style="mix-blend-mode:multiply" opacity="0.4">
<path d="M-441.53 212.586C-405.217 204.647 -367.869 202.752 -330.953 206.974C-318.226 208.439 -305.628 210.882 -293.267 214.282C-293.772 204.708 -294.71 195.119 -294.479 185.648C-294.118 168.4 -288.836 150.012 -274.965 138.874C-262.898 129.227 -246.963 126.464 -232.024 125.558C-215.382 124.55 -198.495 125.427 -181.853 125.967C-139.259 127.341 -95.8421 130.981 -58.3145 153.403C-43.3034 162.363 -29.9521 173.998 -15.7349 184.098C-1.5177 194.199 13.4645 203.977 29.919 209.941C45.1754 215.481 62.1927 217.249 77.175 209.941C85.3569 205.697 92.4865 199.636 98.0317 192.211C101.966 187.534 105.006 182.156 106.995 176.351C108.493 170.971 109.194 165.394 109.074 159.805C109.074 149.574 107.63 139.196 109.348 129.022C111.058 120.421 115.136 112.486 121.111 106.132C133.091 92.6704 150.311 83.7834 167.472 79.2522C186.958 74.1071 207.165 77.2351 226.997 76.7966C248.446 76.3142 269.88 69.7805 282.841 51.2757C293.854 35.5626 293.825 17.0578 287.691 0L-453.452 0L-453.452 215.393C-449.497 214.389 -445.523 213.454 -441.53 212.586Z" fill="#DBDBDB"/>
</g>
<g style="mix-blend-mode:multiply" opacity="0.6">
<path d="M447.054 34.9637C431.241 47.2377 417.018 61.4793 404.72 77.3524C391.802 93.6501 380.298 111.541 372.662 131.025C365.604 148.989 361.837 169.029 366.369 188.031C370.814 206.395 382.222 222.249 398.123 232.159C422.531 247.316 457.201 251.321 474.839 276.17C483.196 287.863 486.184 304.848 481.695 318.705C477.769 330.851 467.723 338.89 456.436 343.743C443.041 349.502 428.319 351.578 413.957 353.083C396.435 354.91 379.634 357.541 363.93 366.238C348.616 374.702 336.217 388.164 331.469 405.368C325.695 426.299 331.93 447.201 339.436 466.758C345.989 483.86 354.158 500.742 356.049 519.232C358.041 538.468 352.643 558.098 343.477 574.893C311.348 633.726 232.713 639.704 175.7 621.009C161.266 616.258 145.88 609.915 133.842 600.326C118.528 588.194 109.694 570.026 96.5596 555.847C81.3176 539.403 61.1392 533.776 39.4165 538.059C19.3247 542.034 -0.131958 553.289 -11.3903 570.903C-20.3969 585.008 -24.3806 601.846 -34.0512 615.557C-43.7218 629.267 -59.4113 636.283 -75.7935 638.111C-94.6024 640.063 -113.522 635.675 -129.617 625.628C-144.715 616.171 -155.511 601.598 -162.078 585.066C-169.238 567.18 -171.873 547.766 -169.743 528.587C-167.433 509.585 -158.73 494.851 -144.873 482.076C-129.516 467.927 -109.597 455.868 -103.102 434.645C-96.939 414.503 -104.863 393.148 -118.561 378.166C-125.138 370.919 -133.078 365.075 -141.914 360.976C-149.94 357.308 -158.441 354.735 -166.452 351.081C-182.185 343.948 -190.859 331.129 -197.484 315.357C-206.707 293.432 -212.019 268.204 -229.469 250.912C-241.911 238.575 -257.139 229.455 -273.218 222.819C-279.298 220.331 -285.498 218.155 -291.794 216.299C-291.578 220.494 -291.462 224.675 -291.578 228.826C-291.642 238.985 -293.79 249.02 -297.885 258.293C-301.234 265.441 -306.546 271.58 -312.319 276.959C-336.005 299.396 -369.607 309.803 -401.115 313.998C-418.458 316.439 -436.023 316.817 -453.452 315.124L-453.452 731L629.078 731L629.078 0.161133L502.191 0.161133C482.859 10.1363 464.411 21.7803 447.054 34.9637Z" fill="#EDEDED"/>
</g>
<g opacity="0.6">
<path d="M-36.2949 24.6914L87.8126 148.799" stroke="white" stroke-width="2" stroke-miterlimit="10" stroke-linecap="round"/>
<path d="M-52.5394 -4.54883L58.5726 107.213" stroke="white" stroke-width="2" stroke-miterlimit="10" stroke-linecap="round"/>
<path d="M-44.0923 -38.9868L50.7753 55.8807" stroke="white" stroke-width="2" stroke-miterlimit="10" stroke-linecap="round"/>
<path d="M-38.8941 -51.9824L68.3193 55.2309" stroke="white" stroke-width="2" stroke-miterlimit="10" stroke-linecap="round"/>
<path d="M-50.59 51.332L28.0331 129.955" stroke="white" stroke-width="2" stroke-miterlimit="10" stroke-linecap="round"/>
</g>
<g opacity="0.6">
<path d="M356.245 377.674L480.352 501.781" stroke="white" stroke-width="2" stroke-miterlimit="10" stroke-linecap="round"/>
<path d="M340 348.434L451.112 460.196" stroke="white" stroke-width="2" stroke-miterlimit="10" stroke-linecap="round"/>
<path d="M348.448 313.996L443.315 408.863" stroke="white" stroke-width="2" stroke-miterlimit="10" stroke-linecap="round"/>
<path d="M353.646 301L460.859 408.213" stroke="white" stroke-width="2" stroke-miterlimit="10" stroke-linecap="round"/>
<path d="M341.95 404.315L420.573 482.938" stroke="white" stroke-width="2" stroke-miterlimit="10" stroke-linecap="round"/>
</g>
</g>
</g>
</svg>
