<svg width="48" height="48" viewBox="0 0 48 48" fill="none" xmlns="http://www.w3.org/2000/svg">
<rect width="48" height="48" rx="2" fill="#E1E1E1"/>
<g clip-path="url(#clip0_6_62175)">
<path d="M27 12H21C19.6744 12.0016 18.4036 12.5289 17.4662 13.4662C16.5289 14.4036 16.0016 15.6744 16 17V31C16.0016 32.3256 16.5289 33.5964 17.4662 34.5338C18.4036 35.4711 19.6744 35.9984 21 36H27C28.3256 35.9984 29.5964 35.4711 30.5338 34.5338C31.4711 33.5964 31.9984 32.3256 32 31V17C31.9984 15.6744 31.4711 14.4036 30.5338 13.4662C29.5964 12.5289 28.3256 12.0016 27 12V12ZM21 14H27C27.7956 14 28.5587 14.3161 29.1213 14.8787C29.6839 15.4413 30 16.2044 30 17V28H18V17C18 16.2044 18.3161 15.4413 18.8787 14.8787C19.4413 14.3161 20.2044 14 21 14ZM27 34H21C20.2044 34 19.4413 33.6839 18.8787 33.1213C18.3161 32.5587 18 31.7956 18 31V30H30V31C30 31.7956 29.6839 32.5587 29.1213 33.1213C28.5587 33.6839 27.7956 34 27 34Z" fill="#333333"/>
<path d="M24.0002 32.9994C24.5525 32.9994 25.0003 32.5517 25.0003 31.9994C25.0003 31.4471 24.5525 30.9994 24.0002 30.9994C23.448 30.9994 23.0002 31.4471 23.0002 31.9994C23.0002 32.5517 23.448 32.9994 24.0002 32.9994Z" fill="#333333"/>
</g>
<defs>
<clipPath id="clip0_6_62175">
<rect width="24" height="24" fill="white" transform="translate(12 12)"/>
</clipPath>
</defs>
</svg>
