<svg width="48" height="48" viewBox="0 0 48 48" fill="none" xmlns="http://www.w3.org/2000/svg">
<rect width="48" height="48" rx="2" fill="#E1E1E1"/>
<path d="M31 13.0001H17C15.6744 13.0016 14.4036 13.5289 13.4662 14.4663C12.5289 15.4036 12.0016 16.6745 12 18.0001V30.0001C12.0016 31.3257 12.5289 32.5965 13.4662 33.5338C14.4036 34.4712 15.6744 34.9985 17 35.0001H31C32.3256 34.9985 33.5964 34.4712 34.5338 33.5338C35.4711 32.5965 35.9984 31.3257 36 30.0001V18.0001C35.9984 16.6745 35.4711 15.4036 34.5338 14.4663C33.5964 13.5289 32.3256 13.0016 31 13.0001ZM17 15.0001H31C31.7956 15.0001 32.5587 15.3161 33.1213 15.8787C33.6839 16.4413 34 17.2044 34 18.0001V19.0001H14V18.0001C14 17.2044 14.3161 16.4413 14.8787 15.8787C15.4413 15.3161 16.2044 15.0001 17 15.0001ZM31 33.0001H17C16.2044 33.0001 15.4413 32.684 14.8787 32.1214C14.3161 31.5588 14 30.7957 14 30.0001V21.0001H34V30.0001C34 30.7957 33.6839 31.5588 33.1213 32.1214C32.5587 32.684 31.7956 33.0001 31 33.0001ZM31 25.0001C31 25.2653 30.8946 25.5196 30.7071 25.7072C30.5196 25.8947 30.2652 26.0001 30 26.0001H18C17.7348 26.0001 17.4804 25.8947 17.2929 25.7072C17.1054 25.5196 17 25.2653 17 25.0001C17 24.7348 17.1054 24.4805 17.2929 24.293C17.4804 24.1054 17.7348 24.0001 18 24.0001H30C30.2652 24.0001 30.5196 24.1054 30.7071 24.293C30.8946 24.4805 31 24.7348 31 25.0001ZM27 29.0001C27 29.2653 26.8946 29.5196 26.7071 29.7072C26.5196 29.8947 26.2652 30.0001 26 30.0001H18C17.7348 30.0001 17.4804 29.8947 17.2929 29.7072C17.1054 29.5196 17 29.2653 17 29.0001C17 28.7348 17.1054 28.4805 17.2929 28.293C17.4804 28.1054 17.7348 28.0001 18 28.0001H26C26.2652 28.0001 26.5196 28.1054 26.7071 28.293C26.8946 28.4805 27 28.7348 27 29.0001ZM15 17.0001C15 16.8023 15.0586 16.6089 15.1685 16.4445C15.2784 16.28 15.4346 16.1519 15.6173 16.0762C15.8 16.0005 16.0011 15.9807 16.1951 16.0193C16.3891 16.0579 16.5673 16.1531 16.7071 16.293C16.847 16.4328 16.9422 16.611 16.9808 16.805C17.0194 16.999 16.9996 17.2 16.9239 17.3827C16.8482 17.5655 16.72 17.7216 16.5556 17.8315C16.3911 17.9414 16.1978 18.0001 16 18.0001C15.7348 18.0001 15.4804 17.8947 15.2929 17.7072C15.1054 17.5196 15 17.2653 15 17.0001ZM18 17.0001C18 16.8023 18.0586 16.6089 18.1685 16.4445C18.2784 16.28 18.4346 16.1519 18.6173 16.0762C18.8 16.0005 19.0011 15.9807 19.1951 16.0193C19.3891 16.0579 19.5673 16.1531 19.7071 16.293C19.847 16.4328 19.9422 16.611 19.9808 16.805C20.0194 16.999 19.9996 17.2 19.9239 17.3827C19.8482 17.5655 19.72 17.7216 19.5556 17.8315C19.3911 17.9414 19.1978 18.0001 19 18.0001C18.7348 18.0001 18.4804 17.8947 18.2929 17.7072C18.1054 17.5196 18 17.2653 18 17.0001ZM21 17.0001C21 16.8023 21.0586 16.6089 21.1685 16.4445C21.2784 16.28 21.4346 16.1519 21.6173 16.0762C21.8 16.0005 22.0011 15.9807 22.1951 16.0193C22.3891 16.0579 22.5673 16.1531 22.7071 16.293C22.847 16.4328 22.9422 16.611 22.9808 16.805C23.0194 16.999 22.9996 17.2 22.9239 17.3827C22.8482 17.5655 22.72 17.7216 22.5556 17.8315C22.3911 17.9414 22.1978 18.0001 22 18.0001C21.7348 18.0001 21.4804 17.8947 21.2929 17.7072C21.1054 17.5196 21 17.2653 21 17.0001Z" fill="#333333"/>
</svg>
