<svg width="48" height="48" viewBox="0 0 48 48" fill="none" xmlns="http://www.w3.org/2000/svg">
<rect width="48" height="48" rx="2" fill="#E1E1E1"/>
<g clip-path="url(#clip0_5_8910)">
<path d="M23.1072 26.9472C23.1652 27.0657 23.2462 27.1715 23.3454 27.2586C23.4445 27.3457 23.56 27.4123 23.685 27.4545C23.81 27.4968 23.9422 27.5139 24.0739 27.5048C24.2055 27.4957 24.3341 27.4607 24.4522 27.4017C24.5702 27.3427 24.6754 27.2609 24.7617 27.161C24.848 27.0612 24.9137 26.9452 24.955 26.8199C24.9963 26.6945 25.0123 26.5622 25.0022 26.4307C24.9921 26.2991 24.9561 26.1708 24.8962 26.0532L19.3962 15.0532C19.3131 14.887 19.1854 14.7473 19.0275 14.6496C18.8695 14.552 18.6874 14.5002 18.5017 14.5002C18.3159 14.5002 18.1338 14.552 17.9759 14.6496C17.8179 14.7473 17.6902 14.887 17.6072 15.0532L12.1072 26.0532C12.0472 26.1708 12.0112 26.2991 12.0011 26.4307C11.991 26.5622 12.0071 26.6945 12.0483 26.8199C12.0896 26.9452 12.1553 27.0612 12.2416 27.161C12.3279 27.2609 12.4331 27.3427 12.5512 27.4017C12.6692 27.4607 12.7978 27.4957 12.9294 27.5048C13.0611 27.5139 13.1933 27.4968 13.3183 27.4545C13.4433 27.4123 13.5588 27.3457 13.6579 27.2586C13.7571 27.1715 13.8381 27.0657 13.8962 26.9472L15.6192 23.5002H21.3832L23.1072 26.9472ZM16.6192 21.5002L18.5002 17.7362L20.3832 21.5002H16.6192Z" fill="#333333"/>
<path d="M35.7069 23.7924C35.5194 23.6049 35.2651 23.4996 34.9999 23.4996C34.7347 23.4996 34.4804 23.6049 34.2929 23.7924L24.9999 33.0854L20.7069 28.7924C20.6147 28.6969 20.5043 28.6207 20.3823 28.5683C20.2603 28.5159 20.1291 28.4883 19.9963 28.4872C19.8635 28.486 19.7318 28.5113 19.6089 28.5616C19.486 28.6119 19.3744 28.6861 19.2805 28.78C19.1866 28.8739 19.1124 28.9856 19.0621 29.1085C19.0118 29.2314 18.9865 29.363 18.9876 29.4958C18.9888 29.6286 19.0164 29.7598 19.0688 29.8818C19.1212 30.0038 19.1974 30.1142 19.2929 30.2064L24.2929 35.2064C24.4804 35.3939 24.7347 35.4992 24.9999 35.4992C25.2651 35.4992 25.5194 35.3939 25.7069 35.2064L35.7069 25.2064C35.8944 25.0189 35.9997 24.7646 35.9997 24.4994C35.9997 24.2343 35.8944 23.9799 35.7069 23.7924Z" fill="#333333"/>
</g>
<defs>
<clipPath id="clip0_5_8910">
<rect width="24" height="24" fill="white" transform="translate(12 12.5)"/>
</clipPath>
</defs>
</svg>
