<svg width="48" height="48" viewBox="0 0 48 48" fill="none" xmlns="http://www.w3.org/2000/svg">
<rect width="48" height="48" rx="2" fill="#E1E1E1"/>
<g clip-path="url(#clip0_5_5215)">
<path d="M36.0001 24.4831C35.998 23.669 35.7472 22.875 35.2812 22.2075C34.8153 21.54 34.1565 21.0308 33.3931 20.7481L33.3551 20.6571C32.3631 18.2305 30.4639 16.2864 28.0611 15.2381L27.7321 15.0941C27.4489 14.333 26.9396 13.6767 26.2727 13.2133C25.6059 12.7499 24.8132 12.5016 24.0011 12.5016C23.189 12.5016 22.3964 12.7499 21.7295 13.2133C21.0626 13.6767 20.5534 14.333 20.2701 15.0941L19.8521 15.2821C17.4707 16.3637 15.5963 18.3197 14.6171 20.7451C13.8525 21.0237 13.1916 21.53 12.7236 22.1957C12.2555 22.8615 12.0029 23.6548 11.9996 24.4686C11.9963 25.2824 12.2426 26.0777 12.7053 26.7472C13.1679 27.4167 13.8247 27.9283 14.5871 28.2131L14.7151 28.5131C15.7185 30.842 17.5612 32.7082 19.8771 33.7411L20.2701 33.9171C20.5542 34.6771 21.0636 35.3322 21.7302 35.7947C22.3968 36.2572 23.1888 36.505 24.0001 36.505C24.8115 36.505 25.6034 36.2572 26.27 35.7947C26.9367 35.3322 27.4461 34.6771 27.7301 33.9171L28.0971 33.7541C30.5197 32.6708 32.4243 30.6855 33.4061 28.2201C34.1669 27.9344 34.8227 27.4238 35.2861 26.7562C35.7495 26.0886 35.9985 25.2957 36.0001 24.4831ZM24.0001 14.5001C24.3957 14.5001 24.7824 14.6174 25.1113 14.8371C25.4402 15.0569 25.6965 15.3692 25.8479 15.7347C25.9992 16.1001 26.0389 16.5023 25.9617 16.8902C25.8845 17.2782 25.694 17.6346 25.4143 17.9143C25.1346 18.194 24.7783 18.3845 24.3903 18.4616C24.0023 18.5388 23.6002 18.4992 23.2347 18.3478C22.8693 18.1964 22.5569 17.9401 22.3372 17.6112C22.1174 17.2823 22.0001 16.8956 22.0001 16.5001C22.0001 15.9696 22.2108 15.4609 22.5859 15.0858C22.961 14.7108 23.4697 14.5001 24.0001 14.5001ZM15.9881 22.4851L16.0701 22.5161L16.0801 22.4911C16.5812 22.5359 17.0445 22.7764 17.3694 23.1605C17.6943 23.5446 17.8548 24.0413 17.816 24.5429C17.7772 25.0445 17.5423 25.5106 17.1622 25.8401C16.782 26.1697 16.2873 26.3361 15.7853 26.3034C15.2833 26.2707 14.8144 26.0414 14.4802 25.6652C14.1461 25.2891 13.9737 24.7964 14.0004 24.294C14.0271 23.7916 14.2507 23.32 14.6228 22.9814C14.9949 22.6428 15.4854 22.4644 15.9881 22.4851ZM24.0001 34.5001C23.6046 34.5001 23.2179 34.3828 22.889 34.163C22.5601 33.9432 22.3037 33.6309 22.1524 33.2654C22.001 32.9 21.9614 32.4978 22.0385 32.1099C22.1157 31.7219 22.3062 31.3656 22.5859 31.0859C22.8656 30.8061 23.222 30.6157 23.6099 30.5385C23.9979 30.4613 24.4 30.5009 24.7655 30.6523C25.1309 30.8037 25.4433 31.06 25.6631 31.3889C25.8828 31.7178 26.0001 32.1045 26.0001 32.5001C26.0001 33.0305 25.7894 33.5392 25.4143 33.9143C25.0393 34.2894 24.5305 34.5001 24.0001 34.5001ZM27.8931 31.6141C27.6941 30.7301 27.2001 29.9402 26.4925 29.3742C25.7849 28.8082 24.9057 28.4998 23.9996 28.4998C23.0935 28.4998 22.2144 28.8082 21.5067 29.3742C20.7991 29.9402 20.3052 30.7301 20.1061 31.6141C18.7407 30.869 17.6189 29.7462 16.8751 28.3801C17.7563 28.181 18.5439 27.6888 19.1091 26.984C19.6743 26.2792 19.9836 25.4034 19.9865 24.5C19.9894 23.5966 19.6857 22.7189 19.1251 22.0105C18.5644 21.3021 17.78 20.8048 16.9001 20.6001C17.6467 19.2532 18.7579 18.1441 20.1061 17.4001C20.306 18.2831 20.8002 19.0719 21.5075 19.6369C22.2148 20.202 23.0933 20.5099 23.9986 20.5099C24.904 20.5099 25.7824 20.202 26.4897 19.6369C27.197 19.0719 27.6912 18.2831 27.8911 17.4001C29.2384 18.1433 30.3502 19.2495 31.1001 20.5931C30.2175 20.7947 29.4297 21.2903 28.8659 21.9988C28.3022 22.7072 27.9961 23.5862 27.9978 24.4916C27.9995 25.3969 28.3091 26.2747 28.8755 26.981C29.442 27.6872 30.2317 28.1799 31.1151 28.3781C30.3689 29.7398 29.2516 30.8619 27.8931 31.6141ZM32.0001 26.4831C31.6046 26.4831 31.2179 26.3658 30.889 26.146C30.5601 25.9262 30.3037 25.6139 30.1524 25.2484C30.001 24.883 29.9614 24.4808 30.0385 24.0929C30.1157 23.7049 30.3062 23.3486 30.5859 23.0689C30.8656 22.7891 31.222 22.5987 31.6099 22.5215C31.9979 22.4443 32.4 22.4839 32.7655 22.6353C33.1309 22.7867 33.4433 23.043 33.6631 23.3719C33.8828 23.7008 34.0001 24.0875 34.0001 24.4831C34.0001 25.0135 33.7894 25.5222 33.4143 25.8973C33.0393 26.2724 32.5306 26.4831 32.0001 26.4831Z" fill="#333333"/>
</g>
<defs>
<clipPath id="clip0_5_5215">
<rect width="24" height="24" fill="white" transform="translate(12 12.5)"/>
</clipPath>
</defs>
</svg>
