<svg width="48" height="48" viewBox="0 0 48 48" fill="none" xmlns="http://www.w3.org/2000/svg">
<rect width="48" height="48" rx="2" fill="#E1E1E1"/>
<g clip-path="url(#clip0_5_8888)">
<path d="M36 24C35.9976 23.3258 35.843 22.6609 35.5475 22.0548C35.2521 21.4488 34.8236 20.9173 34.294 20.5C35.0267 19.9225 35.5609 19.1306 35.8219 18.2349C36.083 17.3392 36.058 16.3843 35.7503 15.5035C35.4427 14.6227 34.8678 13.8599 34.1059 13.3215C33.344 12.7831 32.433 12.4959 31.5 12.5H16.5C15.5671 12.4959 14.6561 12.7831 13.8942 13.3215C13.1322 13.8599 12.5573 14.6227 12.2497 15.5035C11.9421 16.3843 11.9171 17.3392 12.1782 18.2349C12.4392 19.1306 12.9733 19.9225 13.706 20.5C13.1746 20.9156 12.7447 21.4468 12.4491 22.0532C12.1535 22.6596 11.9999 23.3254 11.9999 24C11.9999 24.6747 12.1535 25.3405 12.4491 25.9469C12.7447 26.5533 13.1746 27.0845 13.706 27.5C12.9733 28.0776 12.4392 28.8695 12.1782 29.7652C11.9171 30.6609 11.9421 31.6158 12.2497 32.4966C12.5573 33.3774 13.1322 34.1402 13.8942 34.6786C14.6561 35.217 15.5671 35.5042 16.5 35.5H31.5C32.433 35.5042 33.344 35.217 34.1059 34.6786C34.8678 34.1402 35.4427 33.3774 35.7503 32.4966C36.058 31.6158 36.083 30.6609 35.8219 29.7652C35.5609 28.8695 35.0267 28.0776 34.294 27.5C34.8236 27.0828 35.2521 26.5513 35.5475 25.9453C35.843 25.3392 35.9976 24.6743 36 24ZM14 17C14 16.337 14.2634 15.7011 14.7323 15.2323C15.2011 14.7634 15.837 14.5 16.5 14.5H17V15.5C17 15.7653 17.1054 16.0196 17.2929 16.2072C17.4805 16.3947 17.7348 16.5 18 16.5C18.2653 16.5 18.5196 16.3947 18.7071 16.2072C18.8947 16.0196 19 15.7653 19 15.5V14.5H21V15.5C21 15.7653 21.1054 16.0196 21.2929 16.2072C21.4805 16.3947 21.7348 16.5 22 16.5C22.2653 16.5 22.5196 16.3947 22.7071 16.2072C22.8947 16.0196 23 15.7653 23 15.5V14.5H31.5C32.1631 14.5 32.799 14.7634 33.2678 15.2323C33.7366 15.7011 34 16.337 34 17C34 17.6631 33.7366 18.299 33.2678 18.7678C32.799 19.2367 32.1631 19.5 31.5 19.5H16.5C15.837 19.5 15.2011 19.2367 14.7323 18.7678C14.2634 18.299 14 17.6631 14 17ZM34 31C34 31.6631 33.7366 32.299 33.2678 32.7678C32.799 33.2367 32.1631 33.5 31.5 33.5H16.5C15.837 33.5 15.2011 33.2367 14.7323 32.7678C14.2634 32.299 14 31.6631 14 31C14 30.337 14.2634 29.7011 14.7323 29.2323C15.2011 28.7634 15.837 28.5 16.5 28.5H17V29.5C17 29.7653 17.1054 30.0196 17.2929 30.2072C17.4805 30.3947 17.7348 30.5 18 30.5C18.2653 30.5 18.5196 30.3947 18.7071 30.2072C18.8947 30.0196 19 29.7653 19 29.5V28.5H21V29.5C21 29.7653 21.1054 30.0196 21.2929 30.2072C21.4805 30.3947 21.7348 30.5 22 30.5C22.2653 30.5 22.5196 30.3947 22.7071 30.2072C22.8947 30.0196 23 29.7653 23 29.5V28.5H31.5C32.1631 28.5 32.799 28.7634 33.2678 29.2323C33.7366 29.7011 34 30.337 34 31ZM16.5 26.5C15.837 26.5 15.2011 26.2367 14.7323 25.7678C14.2634 25.299 14 24.6631 14 24C14 23.337 14.2634 22.7011 14.7323 22.2323C15.2011 21.7634 15.837 21.5 16.5 21.5H17V22.5C17 22.7653 17.1054 23.0196 17.2929 23.2072C17.4805 23.3947 17.7348 23.5 18 23.5C18.2653 23.5 18.5196 23.3947 18.7071 23.2072C18.8947 23.0196 19 22.7653 19 22.5V21.5H21V22.5C21 22.7653 21.1054 23.0196 21.2929 23.2072C21.4805 23.3947 21.7348 23.5 22 23.5C22.2653 23.5 22.5196 23.3947 22.7071 23.2072C22.8947 23.0196 23 22.7653 23 22.5V21.5H31.5C32.1631 21.5 32.799 21.7634 33.2678 22.2323C33.7366 22.7011 34 23.337 34 24C34 24.6631 33.7366 25.299 33.2678 25.7678C32.799 26.2367 32.1631 26.5 31.5 26.5H16.5Z" fill="#333333"/>
</g>
<defs>
<clipPath id="clip0_5_8888">
<rect width="24" height="24" fill="white" transform="translate(12 12.5)"/>
</clipPath>
</defs>
</svg>
