<svg width="48" height="48" viewBox="0 0 48 48" fill="none" xmlns="http://www.w3.org/2000/svg">
<rect width="48" height="48" rx="2" fill="#E1E1E1"/>
<path d="M33.9999 27.184V20C33.9983 18.6744 33.471 17.4036 32.5337 16.4662C31.5963 15.5289 30.3255 15.0016 28.9999 15H18.9999C17.6743 15.0016 16.4035 15.5289 15.4661 16.4662C14.5288 17.4036 14.0015 18.6744 13.9999 20V27.184C13.3332 27.4188 12.7712 27.882 12.4133 28.4915C12.0554 29.1011 11.9247 29.8176 12.0445 30.5142C12.1643 31.2108 12.5267 31.8425 13.0677 32.2975C13.6086 32.7525 14.2931 33.0013 14.9999 33H32.9999C33.7067 33.0013 34.3912 32.7525 34.9321 32.2975C35.4731 31.8425 35.8355 31.2108 35.9553 30.5142C36.0751 29.8176 35.9444 29.1011 35.5865 28.4915C35.2286 27.882 34.6666 27.4188 33.9999 27.184ZM18.9999 17H28.9999C29.7955 17 30.5586 17.3161 31.1212 17.8787C31.6838 18.4413 31.9999 19.2044 31.9999 20V27H27.8489C27.558 26.9998 27.2706 27.0631 27.0067 27.1853C26.7428 27.3076 26.5088 27.486 26.3209 27.708L26.0739 28H21.9249L21.6789 27.708C21.491 27.486 21.257 27.3076 20.993 27.1853C20.7291 27.0631 20.4418 26.9998 20.1509 27H15.9999V20C15.9999 19.2044 16.316 18.4413 16.8786 17.8787C17.4412 17.3161 18.2042 17 18.9999 17ZM32.9999 31H14.9999C14.7347 31 14.4803 30.8946 14.2928 30.7071C14.1053 30.5196 13.9999 30.2652 13.9999 30C13.9999 29.7348 14.1053 29.4804 14.2928 29.2929C14.4803 29.1054 14.7347 29 14.9999 29H20.1519L20.3979 29.292C20.5857 29.5139 20.8196 29.6922 21.0833 29.8145C21.347 29.9367 21.6342 30 21.9249 30H26.0739C26.3648 30.0002 26.6521 29.9369 26.916 29.8147C27.18 29.6924 27.414 29.514 27.6019 29.292L27.8489 29H32.9999C33.2651 29 33.5195 29.1054 33.707 29.2929C33.8945 29.4804 33.9999 29.7348 33.9999 30C33.9999 30.2652 33.8945 30.5196 33.707 30.7071C33.5195 30.8946 33.2651 31 32.9999 31Z" fill="#333333"/>
</svg>
