<svg width="48" height="48" viewBox="0 0 48 48" fill="none" xmlns="http://www.w3.org/2000/svg">
<rect width="48" height="48" rx="2" fill="#E1E1E1"/>
<g clip-path="url(#clip0_6_20770)">
<path d="M35.1469 21.471L34.3599 20.4C33.8145 19.6579 33.1026 19.0542 32.2815 18.6374C31.4603 18.2205 30.5528 18.0022 29.6319 18H18.3829C17.4809 18.0024 16.5915 18.2118 15.7832 18.6121C14.975 19.0124 14.2694 19.593 13.7209 20.309L12.8999 21.383C12.2334 22.2623 11.92 23.3592 12.0214 24.4579C12.1228 25.5566 12.6317 26.5776 13.4479 27.32L21.4379 35.027C22.1396 35.6528 23.0476 35.9979 23.9879 35.996C24.9481 35.9941 25.8739 35.638 26.5879 34.996L34.5239 27.363C35.3448 26.6361 35.8639 25.6283 35.9792 24.5379C36.0945 23.4476 35.7976 22.3535 35.1469 21.471ZM32.7469 21.578L33.5339 22.652C33.6129 22.7619 33.6825 22.8783 33.7419 23H28.9509C28.8785 22.5211 28.7537 22.0516 28.5789 21.6L27.9389 20H29.6319C30.2383 20.0011 30.836 20.1445 31.377 20.4186C31.918 20.6926 32.3872 21.0897 32.7469 21.578ZM23.9899 32.088L21.2209 25.818C21.1207 25.5528 21.0451 25.279 20.9949 25H26.9469C26.9049 25.2199 26.8461 25.4362 26.7709 25.647L23.9899 32.088ZM21.0999 23C21.1417 22.8207 21.1941 22.6441 21.2569 22.471L22.2409 20H25.7849L26.7219 22.343C26.8041 22.5569 26.871 22.7765 26.9219 23H21.0999ZM15.3109 21.521C15.6724 21.0493 16.1374 20.667 16.67 20.4033C17.2026 20.1396 17.7886 20.0016 18.3829 20H20.0829L19.3999 21.729C19.2351 22.1392 19.1121 22.5651 19.0329 23H14.2449C14.3135 22.8587 14.3962 22.7246 14.4919 22.6L15.3109 21.521ZM14.8109 25.854C14.55 25.6174 14.345 25.3257 14.2109 25H18.9829C19.0492 25.5388 19.1791 26.0678 19.3699 26.576L22.1969 32.976L14.8109 25.854ZM25.7709 33.014L28.6249 26.4C28.7905 25.9474 28.9059 25.4779 28.9689 25H33.7999C33.6583 25.3433 33.4421 25.6507 33.1669 25.9L25.7709 33.014Z" fill="#333333"/>
<path d="M24 16C24.2652 16 24.5196 15.8946 24.7071 15.7071C24.8947 15.5196 25 15.2652 25 15V13C25 12.7348 24.8947 12.4804 24.7071 12.2929C24.5196 12.1054 24.2652 12 24 12C23.7348 12 23.4804 12.1054 23.2929 12.2929C23.1054 12.4804 23 12.7348 23 13V15C23 15.2652 23.1054 15.5196 23.2929 15.7071C23.4804 15.8946 23.7348 16 24 16Z" fill="#333333"/>
<path d="M28.5528 15.8999C28.6709 15.9593 28.7995 15.9947 28.9313 16.004C29.0632 16.0133 29.1955 15.9965 29.3208 15.9543C29.446 15.9122 29.5617 15.8457 29.6611 15.7586C29.7605 15.6715 29.8416 15.5656 29.8998 15.4469L30.8998 13.4469C31.0184 13.2096 31.0378 12.9348 30.9538 12.6831C30.8697 12.4315 30.6892 12.2235 30.4518 12.1049C30.2144 11.9864 29.9397 11.967 29.688 12.051C29.4363 12.135 29.2284 12.3156 29.1098 12.5529L28.1098 14.5529C28.0501 14.6704 28.0142 14.7985 28.0041 14.9299C27.9941 15.0613 28.0101 15.1933 28.0513 15.3185C28.0924 15.4437 28.1579 15.5595 28.244 15.6593C28.3301 15.7591 28.435 15.8408 28.5528 15.8999Z" fill="#333333"/>
<path d="M18.1051 15.4469C18.2236 15.685 18.4319 15.8661 18.684 15.9506C18.9361 16.0351 19.2115 16.016 19.4496 15.8974C19.6876 15.7789 19.8688 15.5706 19.9533 15.3185C20.0377 15.0663 20.0186 14.791 19.9001 14.5529L18.9001 12.5529C18.8414 12.4354 18.7601 12.3306 18.6609 12.2445C18.5617 12.1583 18.4465 12.0926 18.3218 12.051C18.0702 11.967 17.7954 11.9864 17.5581 12.1049C17.3207 12.2235 17.1401 12.4315 17.0561 12.6831C16.9721 12.9348 16.9915 13.2096 17.1101 13.4469L18.1051 15.4469Z" fill="#333333"/>
</g>
<defs>
<clipPath id="clip0_6_20770">
<rect width="24" height="24" fill="white" transform="translate(12 12)"/>
</clipPath>
</defs>
</svg>
