<svg width="48" height="48" viewBox="0 0 48 48" fill="none" xmlns="http://www.w3.org/2000/svg">
<rect width="48" height="48" rx="2" fill="#E1E1E1"/>
<g clip-path="url(#clip0_6_20779)">
<path d="M20.965 36H16C14.9391 36 13.9217 35.5786 13.1716 34.8284C12.4214 34.0783 12 33.0609 12 32V27C12 25.9391 12.4214 24.9217 13.1716 24.1716C13.9217 23.4214 14.9391 23 16 23H24.857C25.3982 23.0003 25.9302 23.1402 26.4014 23.4063C26.8727 23.6724 27.2673 24.0557 27.547 24.519L30.764 20.984C31.0301 20.6914 31.3512 20.4541 31.7091 20.2857C32.0669 20.1172 32.4545 20.021 32.8496 20.0024C33.2446 19.9838 33.6395 20.0433 34.0116 20.1774C34.3836 20.3115 34.7256 20.5176 35.018 20.784C35.6014 21.3199 35.951 22.0635 35.9916 22.8546C36.0321 23.6458 35.7605 24.4212 35.235 25.014L28.435 32.651C27.4961 33.704 26.3453 34.5467 25.0579 35.1239C23.7706 35.701 22.3758 35.9996 20.965 36ZM16 25C15.4696 25 14.9609 25.2107 14.5858 25.5858C14.2107 25.9609 14 26.4696 14 27V32C14 32.5304 14.2107 33.0391 14.5858 33.4142C14.9609 33.7893 15.4696 34 16 34H20.965C22.0929 33.9995 23.208 33.7607 24.2372 33.2992C25.2664 32.8377 26.1864 32.1639 26.937 31.322L33.742 23.684C33.9187 23.485 34.0101 23.2246 33.9967 22.9588C33.9832 22.693 33.8659 22.4431 33.67 22.263C33.4708 22.0839 33.2096 21.9896 32.942 22C32.8093 22.0056 32.6791 22.0376 32.5589 22.0941C32.4387 22.1506 32.331 22.2304 32.242 22.329L27.816 27.2C27.6217 27.7378 27.285 28.2127 26.8419 28.5741C26.3988 28.9355 25.8659 29.1698 25.3 29.252L20.139 29.99C19.8764 30.0277 19.6097 29.9595 19.3974 29.8004C19.1851 29.6414 19.0447 29.4046 19.007 29.142C18.9693 28.8794 19.0375 28.6127 19.1966 28.4004C19.3556 28.1881 19.5924 28.0477 19.855 28.01L25.017 27.273C25.3035 27.2329 25.5642 27.0856 25.7463 26.8608C25.9284 26.636 26.0184 26.3504 25.9981 26.0618C25.9778 25.7732 25.8487 25.5031 25.6368 25.306C25.425 25.1089 25.1463 24.9995 24.857 25H16ZM23 21.074C22.5468 21.0752 22.1067 20.9214 21.753 20.638C20.041 19.264 18 17.2 18 15.2C17.9754 14.3784 18.2773 13.5804 18.8395 12.9808C19.4017 12.3811 20.1785 12.0285 21 12C21.7473 12.0029 22.4644 12.2958 23 12.817C23.5356 12.2958 24.2527 12.0029 25 12C25.8215 12.0285 26.5983 12.3811 27.1605 12.9808C27.7227 13.5804 28.0246 14.3784 28 15.2C28 17.2 25.959 19.264 24.246 20.639C23.8924 20.9218 23.4528 21.0753 23 21.074ZM21 14C20.7094 14.0292 20.4418 14.1712 20.2547 14.3956C20.0677 14.62 19.9763 14.9089 20 15.2C20 16.1 21.151 17.59 23.006 19.079C24.849 17.59 26 16.1 26 15.2C26.0237 14.9089 25.9323 14.62 25.7453 14.3956C25.5582 14.1712 25.2906 14.0292 25 14C24.7094 14.0292 24.4418 14.1712 24.2547 14.3956C24.0677 14.62 23.9763 14.9089 24 15.2C24 15.4652 23.8946 15.7196 23.7071 15.9071C23.5196 16.0946 23.2652 16.2 23 16.2C22.7348 16.2 22.4804 16.0946 22.2929 15.9071C22.1054 15.7196 22 15.4652 22 15.2C22.0237 14.9089 21.9323 14.62 21.7453 14.3956C21.5582 14.1712 21.2906 14.0292 21 14Z" fill="#333333"/>
</g>
<defs>
<clipPath id="clip0_6_20779">
<rect width="24" height="24" fill="white" transform="translate(12 12)"/>
</clipPath>
</defs>
</svg>
