<svg width="48" height="48" viewBox="0 0 48 48" fill="none" xmlns="http://www.w3.org/2000/svg">
<rect width="48" height="48" rx="2" fill="#E1E1E1"/>
<g clip-path="url(#clip0_6_20792)">
<path d="M36 21C36.0023 20.4495 35.853 19.909 35.5686 19.4376C35.2842 18.9662 34.8755 18.5823 34.3874 18.3277C33.8993 18.0731 33.3505 17.9577 32.8012 17.9942C32.2519 18.0307 31.7232 18.2176 31.2731 18.5345C30.8229 18.8514 30.4686 19.2861 30.249 19.7909C30.0294 20.2957 29.953 20.8513 30.028 21.3966C30.1031 21.942 30.3268 22.4562 30.6746 22.883C31.0224 23.3097 31.481 23.6325 32 23.816V28C32 29.5913 31.3679 31.1174 30.2426 32.2426C29.1174 33.3679 27.5913 34 26 34C24.4087 34 22.8826 33.3679 21.7574 32.2426C20.6321 31.1174 20 29.5913 20 28V27.92C21.6641 27.6786 23.1858 26.8467 24.2874 25.5762C25.3889 24.3058 25.9968 22.6815 26 21V17C25.9984 15.6744 25.4711 14.4036 24.5338 13.4662C23.5964 12.5289 22.3256 12.0016 21 12C20.7348 12 20.4804 12.1054 20.2929 12.2929C20.1054 12.4804 20 12.7348 20 13C20 13.2652 20.1054 13.5196 20.2929 13.7071C20.4804 13.8946 20.7348 14 21 14C21.7957 14 22.5587 14.3161 23.1213 14.8787C23.6839 15.4413 24 16.2044 24 17V21C24 22.3261 23.4732 23.5979 22.5355 24.5355C21.5979 25.4732 20.3261 26 19 26C17.6739 26 16.4021 25.4732 15.4645 24.5355C14.5268 23.5979 14 22.3261 14 21V17C14 16.2044 14.3161 15.4413 14.8787 14.8787C15.4413 14.3161 16.2044 14 17 14C17.2652 14 17.5196 13.8946 17.7071 13.7071C17.8946 13.5196 18 13.2652 18 13C18 12.7348 17.8946 12.4804 17.7071 12.2929C17.5196 12.1054 17.2652 12 17 12C15.6744 12.0016 14.4036 12.5289 13.4662 13.4662C12.5289 14.4036 12.0016 15.6744 12 17L12 21C12.0032 22.6815 12.6111 24.3058 13.7126 25.5762C14.8142 26.8467 16.3359 27.6786 18 27.92V28C18 30.1217 18.8429 32.1566 20.3431 33.6569C21.8434 35.1571 23.8783 36 26 36C28.1217 36 30.1566 35.1571 31.6569 33.6569C33.1571 32.1566 34 30.1217 34 28V23.816C34.5829 23.6099 35.0879 23.2288 35.4459 22.7247C35.8039 22.2206 35.9974 21.6183 36 21ZM33 22C32.8022 22 32.6089 21.9414 32.4444 21.8315C32.28 21.7216 32.1518 21.5654 32.0761 21.3827C32.0004 21.2 31.9806 20.9989 32.0192 20.8049C32.0578 20.6109 32.153 20.4327 32.2929 20.2929C32.4327 20.153 32.6109 20.0578 32.8049 20.0192C32.9989 19.9806 33.2 20.0004 33.3827 20.0761C33.5654 20.1518 33.7216 20.28 33.8315 20.4444C33.9414 20.6089 34 20.8022 34 21C34 21.2652 33.8946 21.5196 33.7071 21.7071C33.5196 21.8946 33.2652 22 33 22Z" fill="#333333"/>
</g>
<defs>
<clipPath id="clip0_6_20792">
<rect width="24" height="24" fill="white" transform="translate(12 12)"/>
</clipPath>
</defs>
</svg>
