<svg width="571" height="428" viewBox="0 0 571 428" fill="none" xmlns="http://www.w3.org/2000/svg">
<g clip-path="url(#clip0_6_141412)">
<path d="M0 426.769L71.3784 426.269L142.757 426.109L285.5 425.769L428.257 426.109L499.622 426.269L571 426.769L499.622 427.249L428.257 427.429L285.5 427.769L142.757 427.429L71.3784 427.249L0 426.769Z" fill="#333333"/>
<path d="M57.7192 426.885H183.39L158.342 280.655H64.3534L57.7192 426.885Z" fill="#D5D5D5"/>
<path d="M57.7192 426.885H68.7401L74.9275 280.655H64.3534L57.7192 426.885Z" fill="#C7C7C7"/>
<path d="M156.366 303.447C172.085 336.14 209.371 390.158 224.982 376.073C248.337 355.02 263.23 309.518 269.133 291.1C272.437 280.791 220.135 265.171 217.211 274.53C213.068 287.827 206.758 315.549 202.764 319.569C200.652 321.675 183.024 298.245 169.851 287.27C150.801 271.446 151.302 293.015 156.366 303.447Z" fill="#F2B2AA"/>
<path d="M280.181 268.906C277.947 280.098 264.462 301.179 259.263 305.009C254.064 308.839 217.454 288.099 216.655 281.497C215.856 274.896 226.376 236.784 235.258 229.272C244.14 221.761 282.483 257.32 280.181 268.906Z" fill="#F2B2AA"/>
<path d="M217.427 273.823C217.427 273.823 214.922 259.154 208.545 247.799C203.13 238.21 194.153 224.586 199.176 221.503C209.507 215.174 232.036 249.171 232.036 249.171C232.036 249.171 239.563 265.769 229.896 272.94C228.101 274.226 225.986 274.989 223.786 275.145C221.585 275.301 219.385 274.843 217.427 273.823Z" fill="#F2B2AA"/>
<path d="M223.899 243.561C225.943 249.252 231.454 243.561 231.454 243.561C231.454 243.561 225.483 253.64 229.856 258.679C234.229 263.718 240.484 256.438 240.958 255.962C240.647 256.505 235.407 265.918 240.308 270.523C245.426 275.317 250.639 267.086 250.977 266.557C250.842 267.154 249.19 275.1 253.685 277.762C261.456 282.312 266.249 262.115 272.64 258.543C272.64 258.543 279.91 268.675 280.181 268.92C280.181 268.92 285.123 249.796 279.843 241.456C279.102 240.22 277.962 239.276 276.612 238.782C275.261 238.287 273.783 238.272 272.423 238.739C272.423 238.739 274.698 232.749 270.947 228.987C269.011 227.072 264.178 228.457 264.178 228.457C264.178 228.457 265.789 223.581 262.255 220.457C259.426 217.944 255.066 219.724 255.066 219.724C255.066 219.724 254.457 214.291 250.747 212.702C243.327 209.455 219.526 231.391 223.899 243.561Z" fill="#F2B2AA"/>
<path d="M254.389 219.941C254.409 219.93 254.423 219.912 254.43 219.89C254.436 219.869 254.433 219.846 254.423 219.826C254.412 219.806 254.394 219.791 254.372 219.785C254.35 219.778 254.327 219.781 254.308 219.792C244.722 225.089 235.813 233.863 231.115 243.847C230.966 244.173 231.426 244.566 231.67 244.24C238.026 235.076 245.679 226.89 254.389 219.941Z" fill="#333333"/>
<path d="M264.3 228.335C264.408 228.335 264.3 228.091 264.151 228.159C254.308 233.673 244.546 243.819 240.498 255.976C240.349 256.383 240.647 256.899 240.836 256.438C244.153 248.56 256.027 234.705 264.3 228.335Z" fill="#333333"/>
<path d="M250.977 267.494C255.323 255.989 262.905 247.038 272.004 238.97C272.112 238.875 272.004 238.712 271.827 238.78C266.304 241.497 260.996 247.256 257.327 252.077C253.775 256.483 251.441 261.748 250.558 267.344C250.544 267.562 250.896 267.738 250.977 267.494Z" fill="#333333"/>
<path d="M231.251 243.616C231.061 244.009 231.833 243.847 231.67 244.24C230.939 245.925 227.46 256.397 230.641 258.692C233.214 260.54 237.411 258.353 238.765 256.886L242.028 253.164L240.227 257.796C239.435 259.851 238.978 262.02 238.873 264.22C238.762 265.235 238.867 266.262 239.179 267.233C239.492 268.205 240.006 269.099 240.687 269.857C241.331 270.552 242.191 271.006 243.127 271.144C244.062 271.283 245.016 271.097 245.832 270.618C247.636 269.496 249.122 267.929 250.151 266.068L253.184 261.042L251.966 266.76C251.627 268.353 251.49 269.982 251.559 271.609C251.576 273.156 252.047 274.663 252.913 275.942C253.324 276.503 253.882 276.937 254.526 277.196C255.169 277.455 255.872 277.529 256.555 277.409C258.038 276.908 259.352 276 260.346 274.788C262.519 272.181 264.484 269.406 266.222 266.489C267.156 265.049 268.091 263.596 269.106 262.197C270.03 260.729 271.258 259.478 272.707 258.529C271.392 259.619 270.302 260.958 269.499 262.468C268.605 263.922 267.793 265.429 266.967 266.937C265.391 270.035 263.528 272.977 261.402 275.725C260.271 277.23 258.728 278.372 256.961 279.012C255.967 279.246 254.926 279.186 253.965 278.839C253.003 278.492 252.163 277.873 251.546 277.056C250.429 275.502 249.806 273.646 249.759 271.732C249.648 269.912 249.771 268.086 250.124 266.299L251.938 266.991C250.756 269.213 249.015 271.086 246.888 272.424C245.687 273.125 244.279 273.384 242.908 273.158C241.567 272.9 240.335 272.242 239.374 271.27C238.51 270.309 237.858 269.176 237.461 267.945C237.064 266.713 236.932 265.412 237.072 264.125C237.224 261.703 237.783 259.325 238.724 257.09L240.2 258C238.481 259.82 234.013 262.781 229.68 260.431C224.386 256.533 230.073 245.571 231.251 243.616Z" fill="#333333"/>
<path d="M231.454 243.575C230.429 244.276 229.307 244.821 228.123 245.191C227.65 245.349 227.144 245.378 226.657 245.275C226.169 245.173 225.717 244.942 225.347 244.607C224.646 243.754 224.204 242.717 224.075 241.619C223.872 240.424 223.723 239.147 223.628 237.829C223.067 239.053 222.772 240.381 222.761 241.728C222.659 243.212 223.146 244.677 224.115 245.802C224.717 246.357 225.472 246.717 226.282 246.835C227.055 246.902 227.832 246.757 228.529 246.414C229.78 245.803 230.804 244.809 231.454 243.575Z" fill="#333333"/>
<path d="M214.042 275.616L269.065 311.787C269.065 311.787 238.711 379.7 218.795 380.066C198.878 380.433 168.7 331.142 158.126 309.681C147.552 288.221 152.994 269.735 173.614 288.941C194.235 308.147 201.667 316.106 202.304 315.78C203.563 315.237 214.042 275.616 214.042 275.616Z" fill="#333333"/>
<path d="M269.065 311.787C269.065 311.787 248.025 358.877 229.477 374.837C225.753 378.056 222.139 379.998 218.794 380.066C198.878 380.447 168.699 331.087 158.112 309.695C151.572 296.438 151.166 284.282 156.758 281.511C160.17 279.8 165.829 281.62 173.682 288.954C194.424 308.282 201.721 316.119 202.371 315.78C203.617 315.237 214.11 275.616 214.11 275.616L269.065 311.787Z" fill="#333333"/>
<path d="M256.474 318.428C255.025 317.288 253.549 316.174 252.06 315.06C249.072 312.823 246.067 310.587 243.043 308.35C237.059 303.922 230.952 299.671 224.792 295.488C221.299 293.111 217.874 290.598 214.272 288.384C214.256 288.364 214.236 288.349 214.213 288.338C214.19 288.328 214.165 288.323 214.14 288.324C214.114 288.325 214.09 288.332 214.068 288.344C214.045 288.357 214.027 288.374 214.012 288.395C213.998 288.416 213.989 288.44 213.985 288.465C213.982 288.49 213.984 288.515 213.993 288.539C214.001 288.563 214.014 288.585 214.032 288.603C214.05 288.621 214.072 288.634 214.096 288.642C216.967 291.046 220.026 293.233 223.005 295.501C225.984 297.769 228.935 300.078 231.954 302.292C237.948 306.711 244.009 311.031 250.137 315.25C251.857 316.445 253.536 317.709 255.309 318.822C256.217 319.393 257.069 320.031 258.017 320.588C258.965 321.145 259.886 321.634 260.793 322.218C260.888 322.218 260.982 322.15 260.901 322.069C259.385 320.887 257.977 319.61 256.474 318.428Z" fill="#333333"/>
<path d="M202.737 314.544C200.828 320.181 199.295 325.939 198.147 331.78C197.524 334.66 197.051 337.566 196.59 340.473C196.093 343.356 195.79 346.269 195.683 349.193C195.683 349.302 195.846 349.302 195.873 349.193C196.671 346.381 197.227 343.461 197.822 340.595C198.418 337.729 199.014 334.823 199.582 331.93C200.706 326.157 202.06 320.412 203.008 314.598C203.015 314.562 203.008 314.525 202.987 314.494C202.967 314.464 202.935 314.442 202.899 314.435C202.864 314.428 202.826 314.435 202.796 314.456C202.765 314.476 202.744 314.508 202.737 314.544Z" fill="#333333"/>
<path opacity="0.1" d="M229.477 374.837C225.753 378.056 222.139 379.998 218.794 380.066C198.878 380.447 168.699 331.087 158.112 309.695C151.572 296.438 151.166 284.282 156.758 281.511L229.477 374.837Z" fill="black"/>
<path d="M197.66 426.885H68.0902C67.5081 424.305 87.898 310.388 131.589 278.333C141.283 271.215 158.491 275.793 163.27 282.706C187.316 317.478 197.66 426.885 197.66 426.885Z" fill="#E4E4E4"/>
<path d="M128.718 279.188C128.718 279.188 140.159 329.607 141.337 333.953C142.515 338.3 146.753 426.885 146.753 426.885H66.8716C66.8716 426.885 84.8786 313.919 128.718 279.188Z" fill="#333333"/>
<path d="M163.271 282.706C163.271 282.706 168.266 321.322 168.876 323.59C169.485 325.858 185.84 426.885 185.84 426.885H198.337C198.337 426.885 187.506 310.089 163.271 282.706Z" fill="#333333"/>
<path d="M113.406 293.803C90.0238 326.795 56.176 385.88 71.8137 396.338C97.4433 413.629 167.942 418.274 184.094 418.668C191.039 418.845 200.53 372.487 195.385 367.054C190.241 361.621 116.425 364.555 115.505 360.086C114.963 357.56 123.994 334.171 128.57 306.123C133.809 273.823 119.986 284.513 113.406 293.803Z" fill="#F2B2AA"/>
<path d="M182.997 364.528C182.997 364.528 204.064 362.355 217.901 361.58C225.618 361.146 238.914 361.58 244.736 363.876C253.428 367.299 287.641 387.17 283.011 395.591C278.827 403.211 251.6 382.403 251.6 382.403C251.6 382.403 280.926 400.97 274.156 409.215C267.387 417.459 239.794 389.846 239.794 389.846C239.794 389.846 269.499 409.608 261.226 417.011C254.971 422.607 228.529 399.014 228.529 399.014C228.529 399.014 253.983 416.169 247.795 422.145C241.026 428.814 215.193 408.563 215.193 408.563C196.902 421.249 183.024 419.782 173.222 417.568C170.907 417.092 182.997 364.528 182.997 364.528Z" fill="#F2B2AA"/>
<path d="M241.865 375.326C245.385 377.377 248.973 379.401 252.304 381.805C255.634 384.209 258.884 386.64 261.971 389.316C266.09 392.708 269.802 396.568 273.032 400.82C266.737 393.703 254.957 385.065 251.627 382.701C248.296 380.338 245.101 377.812 241.77 375.448C241.662 375.394 241.784 375.272 241.865 375.326Z" fill="#333333"/>
<path d="M233.146 387.224C237.532 390.049 241.987 392.657 246.252 395.7C250.516 398.742 256.298 403.116 260.319 406.403C260.63 406.647 260.4 407.204 260.075 406.96C255.919 403.849 249.799 399.625 245.615 396.542C241.432 393.459 237.356 390.24 233.065 387.333C232.997 387.279 233.078 387.184 233.146 387.224Z" fill="#333333"/>
<path d="M223.831 396.094C230.662 400.259 237.045 405.12 242.881 410.6C243.178 410.858 242.881 410.926 242.542 410.681C236.246 405.737 231.426 401.771 223.682 396.338C223.574 396.257 223.682 396.012 223.831 396.094Z" fill="#333333"/>
<path d="M183.038 361.771L163.257 421.643C163.257 421.643 73.1675 410.138 66.4521 393.812C59.7367 377.486 86.639 328.004 108.979 297.593C130.898 267.711 132.753 287.908 128.678 309.817C124.603 331.726 116.94 357.261 118.226 358.986C119.512 360.711 183.038 361.771 183.038 361.771Z" fill="#333333"/>
<path d="M152.304 413.126C153.008 411.401 153.658 409.676 154.348 407.951C155.702 404.447 157.056 400.943 158.41 397.438C161.036 390.457 163.473 383.408 165.843 376.331C167.197 372.256 168.659 368.331 169.823 364.256C169.836 364.236 169.845 364.212 169.848 364.188C169.851 364.164 169.848 364.139 169.841 364.116C169.833 364.093 169.82 364.072 169.803 364.054C169.786 364.037 169.765 364.023 169.742 364.015C169.719 364.006 169.695 364.003 169.67 364.006C169.646 364.008 169.623 364.016 169.602 364.029C169.581 364.042 169.564 364.059 169.55 364.079C169.537 364.1 169.529 364.123 169.525 364.147C167.996 367.57 166.723 371.115 165.342 374.606C163.961 378.097 162.553 381.574 161.28 385.092C158.672 392.073 156.158 399.091 153.739 406.145C153.062 408.114 152.304 410.084 151.708 412.094C151.41 413.126 151.031 414.131 150.733 415.164C150.435 416.196 150.232 417.255 149.907 418.288C149.914 418.305 149.926 418.32 149.942 418.331C149.958 418.342 149.976 418.347 149.995 418.347C150.014 418.347 150.033 418.342 150.048 418.331C150.064 418.32 150.076 418.305 150.083 418.288C150.679 416.59 151.532 414.892 152.304 413.126Z" fill="#333333"/>
<path d="M164.828 417.527C164.381 418.885 163.961 420.339 163.474 421.738V421.914H163.271C154.754 421.249 146.265 420.244 137.817 418.98C129.369 417.717 120.961 416.182 112.607 414.322C104.225 412.523 95.9597 410.215 87.8575 407.408C83.7922 405.997 79.8369 404.286 76.0243 402.287C74.1297 401.259 72.3188 400.083 70.6086 398.77C68.8611 397.491 67.4639 395.79 66.5469 393.825C67.684 395.616 69.2235 397.114 71.0419 398.199C72.7769 399.314 74.5968 400.291 76.4846 401.119C80.3738 402.786 84.3566 404.224 88.4126 405.425C96.5361 407.87 104.795 409.866 113.094 411.673C121.394 413.479 129.734 415.15 138.101 416.739C146.468 418.328 154.836 419.89 163.23 421.398L162.973 421.548C163.609 420.203 164.232 418.872 164.828 417.527Z" fill="#333333"/>
<path d="M182.266 364.107L182.902 361.716L183.038 361.906C174.129 362.259 165.22 362.463 156.311 362.422C147.403 362.382 138.494 362.219 129.585 361.743C127.351 361.608 125.117 361.458 122.816 361.241C121.692 361.119 120.582 361.01 119.404 360.793C119.106 360.793 118.808 360.684 118.469 360.589L117.914 360.399C117.763 360.335 117.618 360.258 117.481 360.168C117.335 360.058 117.207 359.925 117.102 359.774C117.039 359.682 116.98 359.587 116.926 359.489C116.918 359.439 116.918 359.389 116.926 359.339C116.839 358.891 116.839 358.43 116.926 357.981C116.926 357.682 116.926 357.356 117.021 357.085C117.752 352.534 118.781 348.229 119.85 343.869C121.976 335.176 124.4 326.578 127.026 318.062C125.402 326.85 123.641 335.61 121.881 344.358C121.069 348.718 120.094 353.118 119.539 357.411C119.539 357.682 119.539 357.927 119.471 358.185C119.404 358.443 119.471 358.742 119.471 358.524C119.446 358.447 119.41 358.374 119.363 358.307C119.363 358.185 119.092 358.049 119.133 358.062C119.025 358.062 119.174 358.076 119.133 358.062C119.205 358.101 119.283 358.128 119.363 358.144L120.067 358.293C121.083 358.456 122.179 358.565 123.262 358.674C125.456 358.864 127.663 358.986 129.883 359.108C134.306 359.353 138.738 359.557 143.178 359.72L156.514 360.29C165.396 360.643 174.291 361.146 183.187 361.648H183.403L183.322 361.825L182.266 364.107Z" fill="#333333"/>
<path d="M128.461 323.468C128.038 325.053 127.405 326.574 126.579 327.991C125.814 329.45 124.807 330.768 123.601 331.889C124.201 330.381 124.902 328.915 125.699 327.502C126.481 326.066 127.406 324.715 128.461 323.468Z" fill="#333333"/>
<path d="M156.988 300.445C149.474 302.591 135.908 291.535 130.33 282.326C129.951 281.701 131.467 255.691 131.237 250.502C131.237 249.443 164.002 256.94 164.002 256.94C164.002 256.94 161.294 267.942 161.768 276.988C161.781 277.735 164.259 298.367 156.988 300.445Z" fill="#F2B2AA"/>
<path d="M130.776 266.788C135.18 270.034 140.226 272.295 145.575 273.417C150.923 274.539 156.45 274.497 161.781 273.294C162.042 267.803 162.799 262.348 164.042 256.994C164.042 256.994 131.223 249.51 131.277 250.57C131.345 252.947 131.074 259.955 130.776 266.788Z" fill="#333333"/>
<path d="M126.701 214.413C123.127 225.931 128.989 259.303 137.126 266.787C148.932 277.654 168.347 278.794 177.554 264.546C186.49 250.733 178.069 207.364 168.97 200.559C155.567 190.521 131.995 197.394 126.701 214.413Z" fill="#F2B2AA"/>
<path d="M154.361 235.371C154.361 235.289 154.199 235.507 154.226 235.602C154.727 237.829 154.917 240.464 153.035 241.592C153.035 241.592 153.035 241.741 153.035 241.714C155.485 240.899 155.187 237.422 154.361 235.371Z" fill="#333333"/>
<path d="M151.911 233.415C148.269 233.823 149.366 241.116 152.75 240.722C156.135 240.329 155.012 233.062 151.911 233.415Z" fill="#333333"/>
<path d="M167.292 233.619C167.292 233.524 167.481 233.7 167.495 233.782C167.765 236.05 168.456 238.604 170.595 239.052C170.663 239.052 170.676 239.174 170.595 239.174C168.063 239.201 167.197 235.806 167.292 233.619Z" fill="#333333"/>
<path d="M168.943 230.957C172.518 230.128 173.899 237.368 170.595 238.128C167.292 238.889 165.951 231.649 168.943 230.957Z" fill="#333333"/>
<path d="M148.54 230.508C149.467 230.108 150.372 229.655 151.247 229.15C152.254 228.781 153.111 228.089 153.684 227.181C153.809 226.859 153.824 226.506 153.729 226.174C153.633 225.843 153.432 225.553 153.156 225.347C152.549 225.027 151.867 224.875 151.181 224.909C150.495 224.942 149.831 225.159 149.257 225.537C147.978 226.124 146.961 227.164 146.4 228.457C146.309 228.752 146.301 229.066 146.378 229.365C146.455 229.664 146.614 229.935 146.836 230.148C147.059 230.361 147.336 230.508 147.637 230.572C147.938 230.635 148.25 230.613 148.54 230.508Z" fill="#333333"/>
<path d="M171.258 226.855C170.252 226.806 169.248 226.702 168.253 226.542C167.185 226.576 166.135 226.261 165.261 225.646C165.021 225.396 164.872 225.074 164.835 224.73C164.798 224.386 164.877 224.039 165.057 223.744C165.499 223.233 166.066 222.847 166.703 222.626C167.34 222.404 168.024 222.354 168.686 222.481C170.095 222.534 171.434 223.116 172.436 224.111C172.641 224.347 172.775 224.635 172.822 224.944C172.87 225.252 172.831 225.568 172.708 225.855C172.584 226.141 172.383 226.387 172.127 226.564C171.87 226.741 171.569 226.842 171.258 226.855Z" fill="#333333"/>
<path d="M155.594 256.533C156.203 256.981 156.853 257.619 157.679 257.565C158.514 257.426 159.308 257.106 160.007 256.628C160.022 256.612 160.042 256.602 160.064 256.6C160.085 256.599 160.106 256.607 160.122 256.621C160.139 256.635 160.148 256.656 160.15 256.677C160.151 256.699 160.144 256.72 160.129 256.736C159.871 257.234 159.482 257.65 159.005 257.942C158.528 258.234 157.98 258.39 157.421 258.393C156.944 258.345 156.492 258.156 156.123 257.848C155.754 257.541 155.485 257.13 155.35 256.669C155.336 256.533 155.499 256.438 155.594 256.533Z" fill="#333333"/>
<path d="M156.934 249.415C157.641 250.221 158.506 250.871 159.475 251.325C160.444 251.778 161.497 252.025 162.566 252.05C163.478 252.084 164.389 251.988 165.274 251.765C165.451 251.736 165.624 251.686 165.789 251.616C165.954 251.577 166.117 251.527 166.276 251.466C166.392 251.427 166.492 251.349 166.558 251.245C166.625 251.142 166.654 251.018 166.642 250.896C166.648 250.819 166.648 250.742 166.642 250.665V250.461C166.425 248.723 165.856 246.101 165.856 246.101C166.547 246.332 169.918 247.297 169.796 246.386C168.226 238.943 166.466 230.658 163.324 223.581C163.301 223.537 163.263 223.503 163.217 223.484C163.171 223.465 163.12 223.463 163.072 223.477C163.024 223.491 162.983 223.522 162.955 223.563C162.927 223.604 162.914 223.654 162.918 223.704C164.164 230.916 166.655 237.87 168.009 245.11C166.782 244.746 165.511 244.559 164.232 244.553C163.988 244.661 165.409 249.592 165.45 250.38V250.475C162.593 251.29 160.265 250.733 157.137 249.198C156.92 249.076 156.772 249.252 156.934 249.415Z" fill="#333333"/>
<path d="M164.178 251.005C163.419 252.392 162.313 253.558 160.969 254.387C160.226 254.826 159.363 255.016 158.505 254.93C156.636 254.726 156.352 253.069 156.46 251.616C156.531 250.834 156.695 250.063 156.948 249.32C159.116 250.642 161.65 251.233 164.178 251.005Z" fill="#333333"/>
<path d="M160.969 254.414C160.226 254.853 159.363 255.043 158.505 254.957C156.636 254.753 156.352 253.096 156.46 251.643C157.413 251.529 158.376 251.74 159.194 252.243C160.012 252.746 160.638 253.51 160.969 254.414Z" fill="#E35F8A"/>
<path d="M127.663 243.711C135.962 242.094 134.716 226.651 134.716 226.651C134.716 226.651 148.54 221.585 148.567 210.42C148.567 210.42 163.758 216.505 173.669 210.596C183.579 204.688 179.084 193.034 177.392 190.684C175.699 188.334 170.731 194.243 170.731 194.243C170.731 194.243 168.767 187.533 166.804 187.166C164.841 186.8 163.663 191.336 163.663 191.336C163.663 191.336 149.068 189.34 136.68 192.07C124.291 194.8 120.514 208.573 120.514 208.573C120.514 208.573 114.137 211.289 112.864 216.355C111.592 221.422 122.369 244.743 127.663 243.711Z" fill="#333333"/>
<path d="M131.372 227.398C142.691 226.76 148.621 218.012 148.215 207.092C148.215 206.956 148.391 206.943 148.418 207.092C149.975 217.048 142.826 229.775 131.359 227.914C131.074 227.914 131.074 227.412 131.372 227.398Z" fill="#333333"/>
<path d="M120.785 208.314C120.81 208.311 120.835 208.315 120.858 208.326C120.881 208.337 120.899 208.355 120.911 208.378C120.923 208.4 120.928 208.426 120.924 208.451C120.921 208.476 120.91 208.5 120.893 208.518C118.077 210.542 114.746 212.294 113.108 215.54C111.131 219.452 112.539 223.812 114.259 227.507C116.967 233.225 121.475 240.437 127.5 242.95C127.839 243.099 127.608 243.602 127.27 243.48C120.121 240.913 114.462 231.5 112.241 224.586C109.75 216.858 113.812 211.411 120.785 208.314Z" fill="#333333"/>
<path d="M161.253 211.194C166.669 213.204 173.912 211.955 178.042 207.717C183.065 202.528 180.56 196.049 176.986 190.942C176.81 190.684 177.162 190.317 177.392 190.548C181.765 194.813 183.458 202.243 179.518 207.377C175.578 212.511 166.886 214.168 160.915 211.955C160.427 211.778 160.752 211.017 161.253 211.194Z" fill="#333333"/>
<path d="M133.647 241.633C133.647 241.633 125.97 230.957 121.164 233.714C116.357 236.471 122.193 252.01 127.933 254.088C128.653 254.403 129.429 254.569 130.214 254.575C130.999 254.581 131.778 254.428 132.503 254.125C133.227 253.822 133.884 253.374 134.432 252.81C134.98 252.246 135.408 251.576 135.691 250.842L133.647 241.633Z" fill="#F2B2AA"/>
<path d="M122.924 238.128C122.843 238.128 122.816 238.25 122.924 238.278C126.986 239.853 129.125 243.561 130.668 247.405C129.45 245.938 127.812 245.137 125.848 246.59C125.74 246.672 125.848 246.835 125.957 246.807C126.658 246.57 127.415 246.557 128.124 246.772C128.832 246.986 129.457 247.416 129.91 248.003C130.665 248.991 131.314 250.056 131.846 251.181C132.036 251.534 132.686 251.33 132.537 250.923C132.543 250.892 132.543 250.859 132.537 250.828C132.51 245.694 128.434 238.563 122.924 238.128Z" fill="#333333"/>
<path d="M311.064 421.602H179.22V427.538H311.064V421.602Z" fill="#979797"/>
<path d="M311.064 421.602H244.708V427.538H311.064V421.602Z" fill="#797979"/>
<path d="M248.729 427.524H377.23L394.032 339.984H265.532L248.729 427.524Z" fill="#797979"/>
<path d="M253.969 427.524H382.456L399.258 339.984H270.758L253.969 427.524Z" fill="#979797"/>
<path d="M318.836 383.761C318.726 384.759 318.829 385.77 319.139 386.725C319.45 387.68 319.96 388.558 320.635 389.3C321.31 390.041 322.135 390.63 323.056 391.026C323.976 391.423 324.97 391.618 325.971 391.598C328.099 391.562 330.139 390.745 331.707 389.3C333.274 387.856 334.258 385.885 334.473 383.761C334.583 382.762 334.479 381.751 334.169 380.795C333.859 379.839 333.349 378.96 332.674 378.218C331.999 377.475 331.174 376.885 330.254 376.487C329.334 376.089 328.34 375.892 327.338 375.91C325.209 375.949 323.168 376.769 321.601 378.216C320.034 379.663 319.05 381.635 318.836 383.761Z" fill="white"/>
<path d="M428.593 362.597C439.098 372.919 440.862 388.88 438.642 402.855C438.642 403.173 438.096 403.084 438.096 402.855C438.096 399.673 438.198 396.491 438.185 393.373C438.122 393.233 438.083 393.093 438.02 392.953C435.19 391.085 432.849 388.562 431.194 385.596C429.444 382.134 428.758 378.226 427.388 374.612C427.261 374.268 427.629 374.37 427.87 374.548C434.214 379.27 436.295 384.361 438.134 391.158C438.095 387.605 437.722 384.064 437.018 380.581C435.793 374.003 432.771 367.896 428.289 362.94C428.244 362.9 428.216 362.843 428.212 362.782C428.209 362.721 428.23 362.661 428.27 362.616C428.31 362.57 428.367 362.542 428.428 362.539C428.488 362.535 428.548 362.556 428.593 362.597Z" fill="#D5D5D5"/>
<path d="M426.614 363.869C424.813 363.933 423.671 366.822 422.263 367.688C422.115 367.808 421.943 367.895 421.76 367.944C421.576 367.993 421.384 368.003 421.196 367.973C421.008 367.943 420.829 367.874 420.669 367.77C420.51 367.666 420.374 367.53 420.271 367.369C418.875 365.409 420.791 363.004 422.592 361.655C421.407 362.358 420.153 362.938 418.85 363.386C418.672 363.45 418.483 363.474 418.295 363.455C418.107 363.437 417.926 363.377 417.765 363.279C417.603 363.182 417.465 363.049 417.361 362.892C417.257 362.734 417.189 362.555 417.162 362.367C416.541 359.707 419.877 358.549 422.161 358.46C421.057 357.696 417.873 355.583 419.56 354.552C421.248 353.522 425.003 356.525 426.221 357.518C427.997 358.969 430.129 361.146 430.217 363.411C430.319 366.046 428.01 364.404 426.614 363.869Z" fill="#B6B6B6"/>
<path opacity="0.1" d="M426.614 363.869C424.813 363.933 423.671 366.822 422.263 367.688C422.115 367.808 421.943 367.895 421.76 367.944C421.576 367.993 421.384 368.003 421.196 367.973C421.008 367.943 420.829 367.874 420.669 367.77C420.51 367.666 420.374 367.53 420.271 367.369C418.875 365.409 420.791 363.004 422.592 361.655C421.407 362.358 420.153 362.938 418.85 363.386C418.672 363.45 418.483 363.474 418.295 363.455C418.107 363.437 417.926 363.377 417.765 363.279C417.603 363.182 417.465 363.049 417.361 362.892C417.257 362.734 417.189 362.555 417.162 362.367C416.541 359.707 419.877 358.549 422.161 358.46C421.057 357.696 417.873 355.583 419.56 354.552C421.248 353.522 425.003 356.525 426.221 357.518C427.997 358.969 430.129 361.146 430.217 363.411C430.319 366.046 428.01 364.404 426.614 363.869Z" fill="#D5D5D5"/>
<path d="M427.135 364.302C424.826 363.246 420.385 364.76 420.017 363.882C419.243 362.1 422.796 360.878 424.711 360.636C422.948 360.153 419.56 359.364 419.637 357.684C419.763 355.609 424.813 357.391 427.376 359.364C430.598 361.909 430.573 364.238 430.04 364.722C429.393 365.371 427.515 364.468 427.135 364.302Z" fill="#B6B6B6"/>
<path d="M452.509 361.629C441.623 371.532 439.263 387.416 440.938 401.48C440.938 401.799 441.471 401.722 441.484 401.48C441.61 398.298 441.636 395.116 441.763 391.998L441.94 391.591C444.837 389.832 447.269 387.401 449.033 384.501C450.923 381.103 451.76 377.234 453.232 373.67C453.372 373.326 453.004 373.415 452.763 373.581C446.191 378.061 443.97 383.076 441.877 389.796C442.048 386.243 442.553 382.715 443.387 379.257C444.86 372.735 448.11 366.751 452.775 361.973C452.821 361.937 452.85 361.885 452.857 361.828C452.864 361.771 452.849 361.713 452.813 361.667C452.778 361.622 452.726 361.592 452.669 361.585C452.612 361.578 452.554 361.594 452.509 361.629Z" fill="#D5D5D5"/>
<path d="M454.438 362.902C456.239 363.042 457.267 365.969 458.637 366.873C458.78 367.001 458.947 367.097 459.13 367.154C459.312 367.212 459.504 367.23 459.694 367.207C459.884 367.184 460.066 367.121 460.23 367.021C460.393 366.922 460.534 366.789 460.642 366.631C462.113 364.735 460.299 362.253 458.548 360.84C459.706 361.584 460.934 362.211 462.215 362.711C462.391 362.785 462.58 362.818 462.77 362.807C462.96 362.797 463.146 362.745 463.313 362.653C463.48 362.561 463.624 362.433 463.735 362.278C463.846 362.123 463.92 361.945 463.953 361.756C464.664 359.122 461.416 357.811 459.094 357.658C460.236 356.933 463.484 354.96 461.834 353.84C460.185 352.72 456.328 355.596 455.085 356.538C453.245 357.925 451.025 360.013 450.86 362.278C450.657 364.951 453.029 363.411 454.438 362.902Z" fill="#B6B6B6"/>
<path opacity="0.1" d="M454.438 362.902C456.239 363.042 457.267 365.969 458.637 366.873C458.78 367.001 458.947 367.097 459.13 367.154C459.312 367.212 459.504 367.23 459.694 367.207C459.884 367.184 460.066 367.121 460.23 367.021C460.393 366.922 460.534 366.789 460.642 366.631C462.113 364.735 460.299 362.253 458.548 360.84C459.706 361.584 460.934 362.211 462.215 362.711C462.391 362.785 462.58 362.818 462.77 362.807C462.96 362.797 463.146 362.745 463.313 362.653C463.48 362.561 463.624 362.433 463.735 362.278C463.846 362.123 463.92 361.945 463.953 361.756C464.664 359.122 461.416 357.811 459.094 357.658C460.236 356.933 463.484 354.96 461.834 353.84C460.185 352.72 456.328 355.596 455.085 356.538C453.245 357.925 451.025 360.013 450.86 362.278C450.657 364.951 453.029 363.411 454.438 362.902Z" fill="#D5D5D5"/>
<path d="M453.904 363.335C456.251 362.368 460.628 364.048 461.034 363.195C461.872 361.438 458.37 360.076 456.467 359.771C458.243 359.351 461.656 358.715 461.618 357.009C461.618 354.922 456.442 356.525 453.815 358.396C450.504 360.751 450.428 363.144 450.948 363.64C451.646 364.328 453.498 363.488 453.904 363.335Z" fill="#B6B6B6"/>
<path d="M441.382 387.798C440.643 393.098 439.51 398.335 437.995 403.466C437.962 403.554 437.899 403.627 437.818 403.672C437.736 403.718 437.641 403.732 437.55 403.714C437.458 403.696 437.376 403.645 437.318 403.572C437.26 403.498 437.23 403.407 437.234 403.313C437.957 398.489 439.251 393.742 439.974 388.918C440.753 384.034 441.034 379.082 440.811 374.141C440.355 366.008 438.147 357.353 432.857 350.976C432.742 350.836 432.983 350.62 433.11 350.76C443.704 363.144 441.991 378.341 441.991 379.703C443.488 374.612 445.036 368.693 450.707 363.475C450.961 363.246 451.151 363.347 451.101 363.729C450.086 373.25 447.46 378.226 441.953 383.305C441.814 384.819 441.623 386.321 441.382 387.798Z" fill="#D5D5D5"/>
<path d="M432.755 352.414C430.851 351.574 428.225 354.005 426.335 354.171C426.121 354.221 425.9 354.225 425.685 354.183C425.47 354.141 425.266 354.055 425.086 353.928C424.907 353.802 424.755 353.64 424.643 353.451C424.53 353.263 424.458 353.052 424.432 352.834C423.962 350.11 427.159 348.57 429.697 348.074C428.098 347.985 426.525 348.405 424.952 347.985C424.736 347.958 424.529 347.885 424.345 347.771C424.16 347.656 424.002 347.503 423.881 347.322C423.761 347.141 423.681 346.936 423.647 346.721C423.613 346.505 423.625 346.286 423.683 346.076C424.381 343.008 428.428 343.454 430.826 344.548C430.065 343.186 427.832 339.457 430.09 339.19C432.349 338.923 434.746 343.976 435.52 345.618C436.637 348.023 437.753 351.358 436.7 353.751C435.508 356.551 433.922 353.687 432.755 352.414Z" fill="#B6B6B6"/>
<path opacity="0.1" d="M432.755 352.414C430.851 351.574 428.225 354.005 426.335 354.171C426.121 354.221 425.9 354.225 425.685 354.183C425.47 354.141 425.266 354.055 425.086 353.928C424.907 353.802 424.755 353.64 424.643 353.451C424.53 353.263 424.458 353.052 424.432 352.834C423.962 350.11 427.159 348.57 429.697 348.074C428.098 347.985 426.525 348.405 424.952 347.985C424.736 347.958 424.529 347.885 424.345 347.771C424.16 347.656 424.002 347.503 423.881 347.322C423.761 347.141 423.681 346.936 423.647 346.721C423.613 346.505 423.625 346.286 423.683 346.076C424.381 343.008 428.428 343.454 430.826 344.548C430.065 343.186 427.832 339.457 430.09 339.19C432.349 338.923 434.746 343.976 435.52 345.618C436.637 348.023 437.753 351.358 436.7 353.751C435.508 356.551 433.922 353.687 432.755 352.414Z" fill="#D5D5D5"/>
<path d="M433.072 353.14C431.207 350.874 425.84 350.212 425.891 349.105C425.992 346.865 430.293 347.387 432.387 348.112C430.801 346.725 427.68 344.217 428.644 342.499C429.824 340.412 434.163 344.816 435.838 348.15C437.931 352.351 436.713 354.82 435.914 355.049C434.836 355.367 433.389 353.509 433.072 353.14Z" fill="#B6B6B6"/>
<path d="M448.348 390.662L453.017 426.478H424.584C425.168 423.309 430.471 390.623 430.471 390.623L448.348 390.662Z" fill="#B6B6B6"/>
<path d="M330.884 336.415C330.278 336.601 329.741 336.963 329.341 337.456C328.94 337.948 328.694 338.548 328.634 339.18C328.573 339.813 328.701 340.449 329.001 341.008C329.301 341.568 329.759 342.026 330.319 342.324C330.878 342.623 331.513 342.748 332.143 342.685C332.773 342.621 333.371 342.372 333.86 341.968C334.349 341.564 334.708 341.024 334.891 340.416C335.074 339.808 335.073 339.159 334.889 338.552C334.766 338.147 334.565 337.771 334.297 337.445C334.03 337.119 333.7 336.848 333.328 336.65C332.956 336.451 332.549 336.329 332.129 336.288C331.71 336.248 331.286 336.291 330.884 336.415Z" fill="#333333"/>
<path d="M333.547 338.594L402.638 294.498L402.638 233.441" stroke="#333333" stroke-dasharray="4 4"/>
</g>
<g clip-path="url(#clip1_6_141412)">
<path d="M499.195 232.77H307.278V69.8362L403.224 8.69458L499.195 69.8362V232.77Z" fill="#E0E0E0"/>
<path opacity="0.2" d="M499.195 232.77H307.278V69.8362L403.224 8.69458L499.195 69.8362V232.77Z" fill="black"/>
<path d="M488.376 0.940674H318.096V220.288H488.376V0.940674Z" fill="white"/>
<path d="M488.376 220.288L318.096 220.873H317.412V220.262L317.159 0.940641V0H318.096L488.376 0.27965H489.06V0.940641L488.832 110.818L488.376 220.288ZM488.376 220.288L487.92 110.436L487.718 0.940641L488.376 1.62705L318.096 1.9067L319.059 0.940641L318.704 220.288L318.096 219.703L488.376 220.288Z" fill="#DBDBDB"/>
<path d="M481.536 136.291C481.857 142.698 482.101 149.104 482.27 155.511C482.397 161.917 482.65 168.222 482.65 174.73L482.802 193.975V213.195V214.313H481.688C474.999 214.313 468.336 214.11 461.647 213.958C454.959 213.805 448.143 213.551 441.556 213.195C448.245 212.864 454.908 212.559 461.597 212.432C468.285 212.305 474.948 212.076 481.637 212.076L480.522 213.195V193.975V174.73C480.522 168.324 480.801 162.019 480.902 155.511C481.004 149.002 481.232 142.698 481.536 136.291Z" fill="#E0E0E0"/>
<path d="M325.013 84.9628C324.692 78.5563 324.447 72.1497 324.278 65.7432C324.278 59.3367 323.898 52.9047 323.898 46.4982L323.746 27.2786L323.898 8.05906V6.91504H325.013C331.701 6.91504 338.39 7.14384 345.053 7.29638C351.717 7.44892 358.43 7.72857 365.119 8.05906C358.43 8.38956 351.742 8.66921 345.053 8.82174C338.365 8.97428 331.625 9.17766 325.013 9.17766L326.153 8.05906V27.2786L326.001 46.4982C326.001 52.9047 325.748 59.3367 325.621 65.7432C325.494 72.1497 325.266 78.5563 325.013 84.9628Z" fill="#E4E4E4"/>
<path d="M403.35 8.05897C409.861 7.7539 416.373 7.62679 422.884 7.4234L442.443 7.06749C448.954 6.91495 455.465 7.06749 462.002 6.88953H481.536H482.802V8.16066V27.3802C482.802 33.7868 482.802 40.0916 482.6 46.5998C482.397 59.4383 482.169 72.2513 481.637 85.0644C481.13 72.353 480.877 59.4383 480.674 46.5998C480.522 40.1933 480.548 33.8884 480.497 27.3802V8.16066L481.764 9.4318H462.23C455.693 9.4318 449.182 9.4318 442.671 9.25384L423.112 8.89792C416.373 8.46573 409.861 8.33862 403.35 8.05897Z" fill="#E4E4E4"/>
<path d="M403.148 213.195C390.1 213.678 377.077 213.932 364.03 214.11C350.982 214.288 337.985 214.313 325.013 214.441H323.721V213.195C323.721 205.721 323.721 198.246 323.721 190.772L323.873 168.375L324.253 145.952C324.455 138.477 324.582 131.003 324.886 123.529C325.19 131.003 325.342 138.477 325.545 145.952L325.9 168.375L326.128 190.67C326.128 198.145 326.128 205.619 326.128 213.093L325.013 211.949C338.061 211.949 351.083 211.949 364.106 212.254C377.128 212.559 390.1 212.712 403.148 213.195Z" fill="#E0E0E0"/>
<path d="M499.195 110.614V232.77H307.278V110.614C315.512 115.317 323.619 120.224 331.777 125.029C339.935 129.834 348.043 134.74 356.099 139.825C365.085 145.316 374.071 150.892 383.056 156.553C383.143 156.485 383.237 156.425 383.335 156.375L383.107 156.579L403.376 169.29C410.064 165.07 416.778 160.824 423.492 156.579C423.429 156.498 423.351 156.429 423.264 156.375H423.568C432.511 150.782 441.48 145.189 450.5 139.672C458.59 134.723 466.689 129.817 474.797 124.953C482.853 120.224 490.961 115.317 499.195 110.614Z" fill="#E0E0E0"/>
<g opacity="0.2">
<path d="M499.195 110.614C491.442 116.08 483.563 121.317 475.734 126.707C467.905 132.096 459.975 137.283 452.045 142.367C444.115 147.452 435.476 153.172 427.191 158.536C426.928 158.691 426.674 158.861 426.431 159.045C419.084 163.773 411.711 168.485 404.313 173.18L403.224 173.866L402.159 173.18C394.778 168.468 387.423 163.748 380.092 159.019L379.307 158.536C370.971 153.172 362.687 147.808 354.402 142.342C346.117 136.876 338.618 131.893 330.739 126.631C322.859 121.368 315.031 116.08 307.278 110.614C315.512 115.317 323.619 120.224 331.777 125.029C339.935 129.834 348.043 134.74 356.099 139.825C365.085 145.316 374.071 150.892 383.056 156.553L403.325 169.264C410.013 165.044 416.727 160.799 423.441 156.553C432.385 150.96 441.354 145.367 450.373 139.85C458.464 134.901 466.562 129.995 474.67 125.131C482.853 120.224 490.961 115.317 499.195 110.614Z" fill="black"/>
<path d="M383.285 156.324L383.056 156.528L380.042 159.07C375.228 163.138 370.287 167.053 365.271 170.841C359.165 175.518 352.907 180.018 346.624 184.467C340.341 188.916 334.032 193.213 327.546 197.357C321.06 201.5 314.524 205.594 307.734 209.331C313.561 204.246 319.616 199.441 325.722 194.789C331.828 190.137 338.111 185.611 344.369 181.162C350.627 176.713 357.037 172.417 363.548 168.273C368.615 164.943 373.936 161.663 379.307 158.612C380.548 157.875 381.84 157.189 383.056 156.502C383.127 156.437 383.204 156.377 383.285 156.324Z" fill="black"/>
<path d="M498.738 209.331C491.974 205.593 485.412 201.526 478.951 197.357C472.491 193.187 466.106 188.865 459.772 184.493C453.439 180.12 447.231 175.544 441.125 170.866C436.058 167.078 431.219 163.239 426.431 159.121L423.365 156.579C423.302 156.498 423.225 156.429 423.137 156.375H423.441L427.191 158.536C432.537 161.587 437.756 164.866 442.95 168.197C449.436 172.341 455.769 176.688 462.078 181.086C468.387 185.484 474.619 190.035 480.725 194.713C486.831 199.39 492.911 204.221 498.738 209.331Z" fill="black"/>
</g>
<path d="M388.681 115.648L357.087 83.9459L370.059 70.9294L388.681 89.6405L447.991 30.126L460.938 43.1424L388.681 115.648Z" fill="#333333"/>
</g>
<defs>
<clipPath id="clip0_6_141412">
<rect width="571" height="240.371" fill="white" transform="translate(0 187.166)"/>
</clipPath>
<clipPath id="clip1_6_141412">
<rect width="191.917" height="232.77" fill="white" transform="translate(307.278)"/>
</clipPath>
</defs>
</svg>
