<svg width="24" height="24" viewBox="0 0 24 24" fill="none" xmlns="http://www.w3.org/2000/svg">
<path d="M17.7065 15.9651C18.2343 15.6133 18.8534 15.4145 19.492 15.3918C20.1307 15.3691 20.7629 15.5233 21.3155 15.8367C21.8682 16.1502 22.3186 16.6099 22.6147 17.1628C22.9109 17.7157 23.0406 18.3392 22.9889 18.9611C21.6352 19.423 20.1974 19.6027 18.7682 19.4887C18.7638 18.2403 18.3956 17.0179 17.7065 15.9662C17.0949 15.0298 16.2513 14.259 15.2536 13.7254C14.2559 13.1917 13.1365 12.9123 11.9988 12.913C10.8614 12.9125 9.74219 13.1919 8.74472 13.7256C7.74726 14.2593 6.90376 15.0299 6.29226 15.9662M18.7671 19.4876L18.7682 19.5217C18.7682 19.7696 18.7547 20.0141 18.7265 20.2553C16.6791 21.402 14.3592 22.0037 11.9988 22C9.55058 22 7.25238 21.3655 5.27121 20.2553C5.2422 20.0004 5.22827 19.7441 5.22946 19.4876M5.22946 19.4876C3.80071 19.6057 2.36366 19.4267 1.01102 18.9622C0.959514 18.3405 1.08931 17.7172 1.3854 17.1645C1.68148 16.6118 2.13176 16.1522 2.68418 15.8388C3.2366 15.5254 3.86859 15.3711 4.50708 15.3936C5.14557 15.4162 5.76448 15.6147 6.29226 15.9662M5.22946 19.4876C5.23352 18.2393 5.60361 17.018 6.29226 15.9662M15.3835 6.30434C15.3835 7.18071 15.0269 8.02119 14.3922 8.64087C13.7574 9.26055 12.8965 9.60869 11.9988 9.60869C11.1012 9.60869 10.2403 9.26055 9.6055 8.64087C8.97075 8.02119 8.61415 7.18071 8.61415 6.30434C8.61415 5.42798 8.97075 4.58751 9.6055 3.96782C10.2403 3.34814 11.1012 3 11.9988 3C12.8965 3 13.7574 3.34814 14.3922 3.96782C15.0269 4.58751 15.3835 5.42798 15.3835 6.30434ZM22.1529 9.60869C22.1529 9.93414 22.0872 10.2564 21.9597 10.5571C21.8321 10.8578 21.6451 11.131 21.4094 11.3611C21.1737 11.5912 20.8938 11.7738 20.5858 11.8983C20.2778 12.0228 19.9477 12.0869 19.6144 12.0869C19.281 12.0869 18.9509 12.0228 18.6429 11.8983C18.3349 11.7738 18.0551 11.5912 17.8194 11.3611C17.5837 11.131 17.3967 10.8578 17.2691 10.5571C17.1415 10.2564 17.0759 9.93414 17.0759 9.60869C17.0759 8.95141 17.3433 8.32106 17.8194 7.8563C18.2954 7.39153 18.9411 7.13043 19.6144 7.13043C20.2876 7.13043 20.9333 7.39153 21.4094 7.8563C21.8854 8.32106 22.1529 8.95141 22.1529 9.60869ZM6.92181 9.60869C6.92181 9.93414 6.85615 10.2564 6.72858 10.5571C6.601 10.8578 6.41402 11.131 6.17829 11.3611C5.94257 11.5912 5.66273 11.7738 5.35474 11.8983C5.04675 12.0228 4.71666 12.0869 4.38329 12.0869C4.04993 12.0869 3.71983 12.0228 3.41185 11.8983C3.10386 11.7738 2.82401 11.5912 2.58829 11.3611C2.35257 11.131 2.16558 10.8578 2.03801 10.5571C1.91044 10.2564 1.84478 9.93414 1.84478 9.60869C1.84478 8.95141 2.11223 8.32106 2.58829 7.8563C3.06436 7.39153 3.71004 7.13043 4.38329 7.13043C5.05655 7.13043 5.70223 7.39153 6.17829 7.8563C6.65436 8.32106 6.92181 8.95141 6.92181 9.60869Z" stroke="#333333" stroke-width="2" stroke-linecap="round" stroke-linejoin="round"/>
</svg>
