<svg width="48" height="48" viewBox="0 0 48 48" fill="none" xmlns="http://www.w3.org/2000/svg">
<rect width="48" height="48" rx="2" fill="#E1E1E1"/>
<g clip-path="url(#clip0_6_20745)">
<path d="M35.5352 26.7255C35.3281 26.4739 35.0624 26.2771 34.7614 26.1523C34.4605 26.0274 34.1335 25.9784 33.8092 26.0094C32.0668 26.1472 30.3756 26.6641 28.854 27.524C27.3324 28.3839 26.0171 29.5659 25.0002 30.9874V25.9104C26.3967 25.6732 27.6644 24.9499 28.5794 23.8685C29.4943 22.787 29.9975 21.417 30.0002 20.0005C30.0002 17.2074 28.0572 14.8484 26.1562 12.9094C25.5798 12.3463 24.806 12.031 24.0002 12.031C23.1944 12.031 22.4205 12.3463 21.8442 12.9094C19.9432 14.8484 18.0002 17.2074 18.0002 20.0005C18.0028 21.417 18.506 22.787 19.421 23.8685C20.3359 24.9499 21.6036 25.6732 23.0002 25.9104V30.9874C21.9833 29.5659 20.668 28.3839 19.1463 27.524C17.6247 26.6641 15.9335 26.1472 14.1912 26.0094C13.8669 25.9786 13.5399 26.0277 13.239 26.1525C12.9381 26.2773 12.6724 26.4741 12.4652 26.7255C12.2593 26.9699 12.1159 27.2608 12.0475 27.5729C11.979 27.8851 11.9875 28.2093 12.0722 28.5175C14.1112 35.8554 23.5912 36.0005 23.9942 36.0005H24.0062C24.4062 36.0005 33.8902 35.8554 35.9292 28.5175C36.0134 28.2092 36.0215 27.885 35.9529 27.5729C35.8843 27.2608 35.7409 26.97 35.5352 26.7255ZM20.0002 20.0005C20.0002 17.3464 23.3182 14.2814 23.3382 14.2644C22.9732 15.2004 20.6932 20.9004 23.0002 21.0005C23.2654 21.0005 23.5197 20.8951 23.7073 20.7076C23.8948 20.52 24.0002 20.2657 24.0002 20.0005C24.0757 18.2219 24.5029 16.4759 25.2572 14.8634C26.6882 16.3934 28.0002 18.1545 28.0002 20.0005C28.0002 21.0613 27.5787 22.0787 26.8286 22.8289C26.0785 23.579 25.061 24.0005 24.0002 24.0005C22.9393 24.0005 21.9219 23.579 21.1717 22.8289C20.4216 22.0787 20.0002 21.0613 20.0002 20.0005ZM14.0062 28.0005C15.8079 28.1464 17.5392 28.7654 19.025 29.7949C20.5109 30.8243 21.6986 32.2278 22.4682 33.8635C19.9712 33.5175 15.2002 32.3004 14.0062 28.0005ZM25.5452 33.8615C26.321 32.2304 27.5091 30.83 28.9919 29.7988C30.4748 28.7676 32.2011 28.1411 34.0002 27.9815C32.8062 32.2835 28.0462 33.5114 25.5452 33.8615Z" fill="#333333"/>
</g>
<defs>
<clipPath id="clip0_6_20745">
<rect width="24" height="24" fill="white" transform="translate(12 12)"/>
</clipPath>
</defs>
</svg>
