<svg width="48" height="48" viewBox="0 0 48 48" fill="none" xmlns="http://www.w3.org/2000/svg">
<rect width="48" height="48" rx="2" fill="#E1E1E1"/>
<g clip-path="url(#clip0_6_20738)">
<path d="M31.9 15.0911C31.7771 14.5627 31.5479 14.0649 31.2265 13.6279C30.9052 13.1909 30.4982 12.8238 30.0305 12.549C29.5629 12.2742 29.0441 12.0974 28.506 12.0293C27.9678 11.9612 27.4214 12.0033 26.9 12.1531L25.176 12.6461C24.7393 12.7716 24.337 12.9953 24 13.3001C23.663 12.9953 23.2607 12.7716 22.824 12.6461L21.1 12.1531C20.5789 12.0041 20.033 11.9626 19.4954 12.031C18.9578 12.0995 18.4398 12.2765 17.9726 12.5512C17.5055 12.826 17.0991 13.1928 16.778 13.6294C16.457 14.066 16.228 14.5633 16.105 15.0911C14.9548 15.3003 13.9143 15.906 13.1643 16.8029C12.4144 17.6997 12.0024 18.831 12 20.0001V27.0001C12.0016 28.3257 12.5289 29.5965 13.4662 30.5339C14.4036 31.4712 15.6744 31.9985 17 32.0001H23V34.0001H20C19.7348 34.0001 19.4804 34.1054 19.2929 34.293C19.1054 34.4805 19 34.7349 19 35.0001C19 35.2653 19.1054 35.5196 19.2929 35.7072C19.4804 35.8947 19.7348 36.0001 20 36.0001H28C28.2652 36.0001 28.5196 35.8947 28.7071 35.7072C28.8946 35.5196 29 35.2653 29 35.0001C29 34.7349 28.8946 34.4805 28.7071 34.293C28.5196 34.1054 28.2652 34.0001 28 34.0001H25V32.0001H31C32.3256 31.9985 33.5964 31.4712 34.5338 30.5339C35.4711 29.5965 35.9984 28.3257 36 27.0001V20.0001C35.9978 18.8317 35.5865 17.701 34.8376 16.8043C34.0886 15.9075 33.0493 15.3014 31.9 15.0911ZM25 15.5311C25.0001 15.3139 25.0709 15.1026 25.2017 14.9293C25.3325 14.7559 25.5162 14.6298 25.725 14.5701L27.45 14.0771C27.7477 13.9919 28.0611 13.9771 28.3655 14.0336C28.6699 14.0902 28.957 14.2167 29.2042 14.4031C29.4514 14.5896 29.652 14.8308 29.7901 15.1079C29.9281 15.3851 30 15.6905 30 16.0001V19.9381C29.9986 20.372 29.8565 20.7938 29.5951 21.1402C29.3337 21.4866 28.967 21.7388 28.55 21.8591L25 22.8731V15.5311ZM18.8 14.4001C19.0467 14.2143 19.3332 14.0885 19.6369 14.0324C19.9406 13.9764 20.2532 13.9916 20.55 14.0771L22.275 14.5701C22.4838 14.6298 22.6675 14.7559 22.7983 14.9293C22.9291 15.1026 22.9999 15.3139 23 15.5311V22.8731L19.45 21.8591C19.033 21.7388 18.6663 21.4866 18.4049 21.1402C18.1435 20.7938 18.0014 20.372 18 19.9381V16.0001C17.999 15.6894 18.0708 15.3828 18.2098 15.105C18.3487 14.8271 18.5509 14.5857 18.8 14.4001ZM34 27.0001C34 27.7957 33.6839 28.5588 33.1213 29.1214C32.5587 29.684 31.7956 30.0001 31 30.0001H17C16.2044 30.0001 15.4413 29.684 14.8787 29.1214C14.3161 28.5588 14 27.7957 14 27.0001V20.0001C14.0026 19.3818 14.1961 18.7794 14.5541 18.2754C14.9121 17.7713 15.4171 17.3902 16 17.1841V19.9381C16.0024 20.8064 16.2864 21.6505 16.8093 22.3438C17.3322 23.0371 18.0658 23.5421 18.9 23.7831L22.351 24.7701C23.4295 25.0775 24.5725 25.0775 25.651 24.7701L29.102 23.7831C29.9359 23.5417 30.669 23.0366 31.1915 22.3433C31.714 21.6501 31.9977 20.8062 32 19.9381V17.1841C32.5829 17.3902 33.0879 17.7713 33.4459 18.2754C33.8039 18.7794 33.9974 19.3818 34 20.0001V27.0001Z" fill="#333333"/>
</g>
<defs>
<clipPath id="clip0_6_20738">
<rect width="24" height="24" fill="white" transform="translate(12 12)"/>
</clipPath>
</defs>
</svg>
