<svg width="48" height="48" viewBox="0 0 48 48" fill="none" xmlns="http://www.w3.org/2000/svg">
<rect width="48" height="48" rx="2" fill="#E1E1E1"/>
<g clip-path="url(#clip0_6_20757)">
<path d="M33.122 24.9992C33.885 24.9984 34.6166 24.6949 35.1562 24.1554C35.6957 23.6158 35.9992 22.8843 36 22.1212C35.9989 21.3146 35.8076 20.5197 35.4417 19.8009C35.0758 19.0821 34.5455 18.4597 33.894 17.9842L27.009 12.9782C26.1356 12.34 25.0818 11.996 24 11.996C22.9182 11.996 21.8644 12.34 20.991 12.9782L14.106 17.9842C13.4545 18.4597 12.9242 19.0821 12.5583 19.8009C12.1924 20.5197 12.0011 21.3146 12 22.1212C12.0008 22.8843 12.3043 23.6158 12.8438 24.1554C13.3834 24.6949 14.115 24.9984 14.878 24.9992H23V34.9992C23 35.2644 23.1054 35.5188 23.2929 35.7063C23.4804 35.8939 23.7348 35.9992 24 35.9992C24.2652 35.9992 24.5196 35.8939 24.7071 35.7063C24.8946 35.5188 25 35.2644 25 34.9992V24.9992H33.122ZM27.5 20.0742C27.827 20.5656 28.001 21.143 28 21.7332V22.9992H25V16.3122L27.5 20.0742ZM32.718 19.5992C33.1151 19.8891 33.4381 20.2685 33.6609 20.7068C33.8836 21.145 33.9998 21.6296 34 22.1212C33.9997 22.354 33.9071 22.5772 33.7425 22.7418C33.5779 22.9064 33.3548 22.999 33.122 22.9992H30V21.7332C30.0009 20.749 29.7104 19.7865 29.165 18.9672L26.665 15.1972L32.718 19.5992ZM14 22.1212C14.0002 21.6296 14.1164 21.145 14.3391 20.7068C14.5619 20.2685 14.8849 19.8891 15.282 19.5992L21.339 15.1992L18.839 18.9692C18.2926 19.7875 18.0006 20.7493 18 21.7332V22.9992H14.878C14.6452 22.999 14.4221 22.9064 14.2575 22.7418C14.0929 22.5772 14.0003 22.354 14 22.1212ZM20 22.9992V21.7332C19.999 21.143 20.173 20.5656 20.5 20.0742L23 16.3122V22.9992H20Z" fill="#374957"/>
<path d="M16 31H14V28C14 27.7348 13.8946 27.4804 13.7071 27.2929C13.5196 27.1054 13.2652 27 13 27C12.7348 27 12.4804 27.1054 12.2929 27.2929C12.1054 27.4804 12 27.7348 12 28V35C12 35.2652 12.1054 35.5196 12.2929 35.7071C12.4804 35.8946 12.7348 36 13 36C13.2652 36 13.5196 35.8946 13.7071 35.7071C13.8946 35.5196 14 35.2652 14 35V33H16C16.2652 33 16.5196 33.1054 16.7071 33.2929C16.8946 33.4804 17 33.7348 17 34V35C17 35.2652 17.1054 35.5196 17.2929 35.7071C17.4804 35.8946 17.7348 36 18 36C18.2652 36 18.5196 35.8946 18.7071 35.7071C18.8946 35.5196 19 35.2652 19 35V34C19 33.2044 18.6839 32.4413 18.1213 31.8787C17.5587 31.3161 16.7957 31 16 31Z" fill="#374957"/>
<path d="M35.0002 27C34.735 27 34.4807 27.1054 34.2931 27.2929C34.1056 27.4804 34.0002 27.7348 34.0002 28V31H32.0002C31.2046 31 30.4415 31.3161 29.8789 31.8787C29.3163 32.4413 29.0002 33.2044 29.0002 34V35C29.0002 35.2652 29.1056 35.5196 29.2931 35.7071C29.4807 35.8946 29.735 36 30.0002 36C30.2655 36 30.5198 35.8946 30.7074 35.7071C30.8949 35.5196 31.0002 35.2652 31.0002 35V34C31.0002 33.7348 31.1056 33.4804 31.2931 33.2929C31.4807 33.1054 31.735 33 32.0002 33H34.0002V35C34.0002 35.2652 34.1056 35.5196 34.2931 35.7071C34.4807 35.8946 34.735 36 35.0002 36C35.2655 36 35.5198 35.8946 35.7074 35.7071C35.8949 35.5196 36.0002 35.2652 36.0002 35V28C36.0002 27.7348 35.8949 27.4804 35.7074 27.2929C35.5198 27.1054 35.2655 27 35.0002 27Z" fill="#374957"/>
</g>
<defs>
<clipPath id="clip0_6_20757">
<rect width="24" height="24" fill="white" transform="translate(12 12)"/>
</clipPath>
</defs>
</svg>
