<svg width="48" height="48" viewBox="0 0 48 48" fill="none" xmlns="http://www.w3.org/2000/svg">
<rect width="48" height="48" rx="2" fill="#E1E1E1"/>
<g clip-path="url(#clip0_6_20800)">
<path d="M35.9548 33.3188C35.9158 33.1933 35.8525 33.0768 35.7685 32.9759C35.6844 32.8749 35.5814 32.7915 35.4651 32.7304C35.3488 32.6693 35.2217 32.6317 35.0909 32.6198C34.9601 32.6078 34.8282 32.6217 34.7028 32.6608L33.4028 33.0608L32.4718 30.3238C33.4497 29.7751 34.2124 28.9108 34.6353 27.8723C35.0582 26.8338 35.1162 25.6825 34.7998 24.6068L32.9568 19.1318C32.7248 18.3843 32.212 17.756 31.5263 17.3789C30.8405 17.0017 30.0352 16.9053 29.2798 17.1098L25.4278 18.1838C24.8754 18.3375 24.3794 18.648 23.9998 19.0778C23.6202 18.648 23.1242 18.3375 22.5718 18.1838L18.7188 17.1098C17.9689 16.9029 17.168 16.9946 16.4842 17.3657C15.8005 17.7367 15.2871 18.3583 15.0518 19.0998L13.1848 24.6568C12.8808 25.7317 12.9489 26.8778 13.378 27.9092C13.8071 28.9405 14.5721 29.7967 15.5488 30.3388L14.6048 33.0668L13.2998 32.6608C13.1744 32.6214 13.0424 32.6071 12.9115 32.6187C12.7806 32.6303 12.6532 32.6675 12.5366 32.7283C12.4201 32.7892 12.3167 32.8723 12.2323 32.9731C12.1479 33.0739 12.0842 33.1904 12.0448 33.3158C12.0054 33.4412 11.9911 33.5731 12.0027 33.7041C12.0143 33.835 12.0515 33.9624 12.1124 34.0789C12.1732 34.1955 12.2564 34.2989 12.3572 34.3833C12.458 34.4677 12.5744 34.5314 12.6998 34.5708L14.8598 35.2418C14.8748 35.2418 14.8838 35.2588 14.8988 35.2648C14.9138 35.2708 14.9508 35.2708 14.9768 35.2778L17.1578 35.9548C17.4111 36.0335 17.6853 36.0085 17.9201 35.8851C18.1549 35.7617 18.331 35.55 18.4098 35.2968C18.4886 35.0435 18.4635 34.7693 18.3401 34.5345C18.2167 34.2997 18.0051 34.1235 17.7518 34.0448L16.5158 33.6598L17.4508 30.9598C17.6362 30.9836 17.8229 30.9969 18.0098 30.9998C19.091 30.9971 20.1421 30.6441 21.0057 29.9936C21.8693 29.3431 22.4988 28.4302 22.7998 27.3918L23.9998 23.8358L25.1828 27.3358C25.4744 28.3874 26.1021 29.3148 26.97 29.9763C27.8379 30.6379 28.8985 30.9973 29.9898 30.9998C30.1841 30.9979 30.3781 30.9846 30.5708 30.9598L31.4888 33.6598L30.2448 34.0458C29.9915 34.1245 29.7799 34.3007 29.6565 34.5355C29.5331 34.7703 29.508 35.0445 29.5868 35.2978C29.6656 35.551 29.8417 35.7627 30.0765 35.8861C30.3113 36.0095 30.5855 36.0345 30.8388 35.9558L33.0138 35.2808C33.0398 35.2738 33.0668 35.2808 33.0928 35.2678C33.1188 35.2548 33.1188 35.2488 33.1348 35.2428L35.2968 34.5718C35.4223 34.5328 35.5389 34.4694 35.64 34.3853C35.741 34.3012 35.8245 34.1981 35.8856 34.0817C35.9467 33.9653 35.9843 33.838 35.9961 33.7071C36.008 33.5762 35.994 33.4442 35.9548 33.3188ZM25.3568 20.5918C25.4204 20.4746 25.5071 20.3715 25.6116 20.2887C25.716 20.2058 25.8362 20.145 25.9648 20.1098L29.8158 19.0368C29.9017 19.0127 29.9905 19.0003 30.0798 18.9998C30.2997 19.0021 30.5131 19.0752 30.6881 19.2083C30.8632 19.3415 30.9907 19.5275 31.0518 19.7388L31.8128 21.9998H25.4898L25.2748 21.3628C25.2364 21.2353 25.2239 21.1014 25.238 20.969C25.2521 20.8366 25.2925 20.7083 25.3568 20.5918ZM17.9178 18.9998C18.0073 18.9999 18.0965 19.012 18.1828 19.0358L22.0348 20.1098C22.2893 20.18 22.5057 20.3479 22.6368 20.577C22.7679 20.8061 22.8032 21.0778 22.7348 21.3328L22.5098 21.9998H16.1868L16.9568 19.7098C17.0203 19.5044 17.1479 19.3248 17.3208 19.197C17.4936 19.0693 17.7028 19.0002 17.9178 18.9998ZM20.8918 26.7998C20.7321 27.3706 20.4068 27.8813 19.9571 28.2674C19.5074 28.6536 18.9534 28.8978 18.365 28.9694C17.7766 29.041 17.1802 28.9366 16.651 28.6696C16.1219 28.4025 15.6837 27.9846 15.3918 27.4688C15.0053 26.7948 14.9004 25.9956 15.0998 25.2448L15.5138 23.9998H21.8358L20.8918 26.7998ZM28.5238 28.6078C28.1734 28.4089 27.8663 28.142 27.6205 27.8228C27.3748 27.5035 27.1954 27.1384 27.0928 26.7488L26.1638 23.9998H32.4868L32.8868 25.1938C33.0464 25.7656 33.0327 26.3719 32.8475 26.936C32.6624 27.5 32.314 27.9965 31.8465 28.3624C31.3791 28.7284 30.8135 28.9474 30.2215 28.9918C29.6295 29.0362 29.0376 28.9039 28.5208 28.6118L28.5238 28.6078Z" fill="#333333"/>
<path d="M27.553 15.8999C27.6711 15.9593 27.7998 15.9947 27.9316 16.004C28.0634 16.0133 28.1958 15.9965 28.321 15.9543C28.4463 15.9122 28.5619 15.8457 28.6613 15.7586C28.7607 15.6715 28.8419 15.5656 28.9001 15.4469L29.9001 13.4469C30.0186 13.2096 30.038 12.9348 29.954 12.6831C29.87 12.4315 29.6894 12.2235 29.4521 12.1049C29.2147 11.9864 28.9399 11.967 28.6883 12.051C28.4366 12.135 28.2286 12.3156 28.1101 12.5529L27.11 14.5529C27.0503 14.6704 27.0144 14.7985 27.0044 14.9299C26.9943 15.0613 27.0104 15.1933 27.0515 15.3185C27.0927 15.4437 27.1582 15.5595 27.2443 15.6593C27.3303 15.7591 27.4353 15.8408 27.553 15.8999Z" fill="#333333"/>
<path d="M19.1051 15.4469C19.2236 15.685 19.4319 15.8661 19.684 15.9506C19.8089 15.9925 19.9407 16.0093 20.0721 16.0002C20.2034 15.991 20.3317 15.9561 20.4496 15.8974C20.5674 15.8387 20.6726 15.7574 20.759 15.6581C20.8454 15.5587 20.9114 15.4433 20.9533 15.3185C20.9951 15.1936 21.0119 15.0618 21.0028 14.9304C20.9937 14.7991 20.9588 14.6708 20.9001 14.5529L19.9001 12.5529C19.8414 12.4354 19.7601 12.3306 19.6609 12.2445C19.5617 12.1583 19.4465 12.0926 19.3218 12.051C19.0702 11.967 18.7954 11.9864 18.5581 12.1049C18.3207 12.2235 18.1401 12.4315 18.0561 12.6831C17.9721 12.9348 17.9915 13.2096 18.1101 13.4469L19.1051 15.4469Z" fill="#333333"/>
<path d="M24.0002 16C24.2655 16 24.5198 15.8946 24.7074 15.7071C24.8949 15.5196 25.0003 15.2652 25.0003 15V13C25.0003 12.7348 24.8949 12.4804 24.7074 12.2929C24.5198 12.1054 24.2655 12 24.0002 12C23.735 12 23.4807 12.1054 23.2931 12.2929C23.1056 12.4804 23.0002 12.7348 23.0002 13V15C23.0002 15.2652 23.1056 15.5196 23.2931 15.7071C23.4807 15.8946 23.735 16 24.0002 16Z" fill="#333333"/>
</g>
<defs>
<clipPath id="clip0_6_20800">
<rect width="24" height="24" fill="white" transform="translate(12 12)"/>
</clipPath>
</defs>
</svg>
