<svg width="48" height="48" viewBox="0 0 48 48" fill="none" xmlns="http://www.w3.org/2000/svg">
<rect width="48" height="48" rx="2" fill="#E1E1E1"/>
<path d="M24 13V19C23.9985 20.1522 23.5999 21.2687 22.8713 22.1613C22.1427 23.0538 21.1286 23.6679 20 23.9V35C20 35.2652 19.8946 35.5196 19.7071 35.7071C19.5196 35.8946 19.2652 36 19 36C18.7348 36 18.4804 35.8946 18.2929 35.7071C18.1054 35.5196 18 35.2652 18 35V23.9C16.8714 23.6679 15.8573 23.0538 15.1287 22.1613C14.4001 21.2687 14.0015 20.1522 14 19V13C14 12.7348 14.1054 12.4804 14.2929 12.2929C14.4804 12.1054 14.7348 12 15 12C15.2652 12 15.5196 12.1054 15.7071 12.2929C15.8946 12.4804 16 12.7348 16 13V19C16.0026 19.6183 16.1961 20.2206 16.5541 20.7247C16.9121 21.2288 17.4171 21.6099 18 21.816V13C18 12.7348 18.1054 12.4804 18.2929 12.2929C18.4804 12.1054 18.7348 12 19 12C19.2652 12 19.5196 12.1054 19.7071 12.2929C19.8946 12.4804 20 12.7348 20 13V21.816C20.5829 21.6099 21.0879 21.2288 21.4459 20.7247C21.8039 20.2206 21.9974 19.6183 22 19V13C22 12.7348 22.1054 12.4804 22.2929 12.2929C22.4804 12.1054 22.7348 12 23 12C23.2652 12 23.5196 12.1054 23.7071 12.2929C23.8946 12.4804 24 12.7348 24 13ZM34 22C33.9553 23.9004 33.4825 25.7663 32.6168 27.4587C31.7511 29.1512 30.5148 30.6265 29 31.775V35C29 35.2652 28.8946 35.5196 28.7071 35.7071C28.5196 35.8946 28.2652 36 28 36C27.7348 36 27.4804 35.8946 27.2929 35.7071C27.1054 35.5196 27 35.2652 27 35V14C26.991 13.6243 27.0937 13.2543 27.295 12.9369C27.4963 12.6196 27.7873 12.369 28.131 12.217C28.5258 12.0564 28.9589 12.0142 29.3773 12.0957C29.7957 12.1773 30.1813 12.3789 30.487 12.676C32.8064 15.221 34.0634 18.5573 34 22ZM32 22C32.0284 19.0722 30.9579 16.2401 29 14.063V29.07C30.8741 27.1882 31.9489 24.6553 32 22Z" fill="#333333"/>
</svg>
