<svg width="48" height="48" viewBox="0 0 48 48" fill="none" xmlns="http://www.w3.org/2000/svg">
<rect width="48" height="48" rx="2" fill="#E1E1E1"/>
<g clip-path="url(#clip0_6_20751)">
<path d="M33 21.9999H29.693L25.4459 13.5629C25.1878 13.0898 24.8069 12.695 24.3434 12.4199C23.8799 12.1449 23.3509 11.9998 22.8119 11.9999H22.6299C22.2218 11.9993 21.8192 12.0937 21.4538 12.2757C21.0885 12.4576 20.7705 12.7221 20.5251 13.0482C20.2796 13.3742 20.1135 13.753 20.0397 14.1544C19.9659 14.5558 19.9865 14.9688 20.0999 15.3609L22.0279 21.9999H19.6439C19.2497 22.0009 18.8592 21.9238 18.4949 21.7729C18.1307 21.622 17.8 21.4004 17.5219 21.1209L16.1049 19.6999C15.7428 19.3381 15.2747 19.101 14.7688 19.0232C14.2628 18.9453 13.7451 19.0307 13.2909 19.2669C13.0099 19.4119 12.7615 19.6128 12.561 19.8574C12.3605 20.1019 12.2121 20.3849 12.1249 20.6889C12.0286 21.015 11.9991 21.3573 12.0383 21.6952C12.0775 22.033 12.1845 22.3594 12.3529 22.6549L13.9669 25.4799C14.4051 26.2445 15.0371 26.88 15.7993 27.3225C16.5614 27.7649 17.4267 27.9985 18.3079 27.9999H22.0189L20.3509 32.4469C20.2016 32.8446 20.1509 33.2726 20.2032 33.6943C20.2554 34.1159 20.4091 34.5186 20.651 34.8678C20.8929 35.2171 21.2159 35.5025 21.5922 35.6997C21.9686 35.8968 22.3871 35.9998 22.8119 35.9999C23.3416 36.0027 23.8624 35.8639 24.3204 35.5979C24.7784 35.3319 25.1569 34.9483 25.4169 34.4869L29.464 27.9999H33C33.7956 27.9999 34.5587 27.6838 35.1213 27.1212C35.6839 26.5586 36 25.7955 36 24.9999C36 24.2042 35.6839 23.4412 35.1213 22.8786C34.5587 22.316 33.7956 21.9999 33 21.9999ZM22.0249 14.8049C21.9978 14.7111 21.9929 14.6122 22.0105 14.5162C22.0281 14.4201 22.0679 14.3295 22.1265 14.2514C22.1852 14.1733 22.2612 14.1099 22.3486 14.0663C22.436 14.0227 22.5323 13.9999 22.6299 13.9999H22.8119C22.9863 13.9984 23.158 14.043 23.3095 14.1292C23.4611 14.2155 23.5872 14.3402 23.6749 14.4909L27.4549 21.9999H24.1099L22.0249 14.8049ZM33 25.9999H28.909C28.7393 26 28.5724 26.0433 28.424 26.1257C28.2757 26.2081 28.1507 26.3269 28.061 26.4709L23.6899 33.4789C23.6039 33.6366 23.4769 33.7682 23.3224 33.8599C23.1679 33.9516 22.9916 33.9999 22.8119 33.9999C22.7103 34 22.6101 33.9754 22.5201 33.9282C22.43 33.8811 22.3528 33.8128 22.2949 33.7292C22.2371 33.6456 22.2004 33.5492 22.1881 33.4483C22.1757 33.3474 22.188 33.245 22.2239 33.1499L24.3979 27.3499C24.4545 27.1986 24.4735 27.0359 24.4534 26.8756C24.4334 26.7154 24.3748 26.5624 24.2827 26.4297C24.1906 26.297 24.0678 26.1886 23.9247 26.1138C23.7816 26.0389 23.6225 25.9998 23.4609 25.9999H18.3079C17.7798 25.999 17.2613 25.8587 16.8048 25.5932C16.3482 25.3278 15.9699 24.9465 15.7079 24.4879L14.0889 21.6619C14.0551 21.6016 14.0335 21.5352 14.0254 21.4666C14.0173 21.3979 14.023 21.3284 14.0419 21.2619C14.052 21.2176 14.0712 21.1759 14.0984 21.1395C14.1257 21.1032 14.1603 21.073 14.1999 21.0509C14.2616 21.0182 14.3302 21.0007 14.3999 20.9999C14.5073 21.0006 14.6101 21.0429 14.6869 21.1179L16.1039 22.5349C16.5678 23.0011 17.1195 23.3706 17.7272 23.622C18.3348 23.8735 18.9863 24.0019 19.6439 23.9999H33C33.2652 23.9999 33.5195 24.1052 33.7071 24.2928C33.8946 24.4803 34 24.7347 34 24.9999C34 25.2651 33.8946 25.5195 33.7071 25.707C33.5195 25.8945 33.2652 25.9999 33 25.9999Z" fill="#333333"/>
</g>
<defs>
<clipPath id="clip0_6_20751">
<rect width="24" height="24" fill="white" transform="translate(12 12)"/>
</clipPath>
</defs>
</svg>
