<svg width="48" height="48" viewBox="0 0 48 48" fill="none" xmlns="http://www.w3.org/2000/svg">
<rect width="48" height="48" rx="2" fill="#E1E1E1"/>
<g clip-path="url(#clip0_6_20812)">
<path d="M32 19H30.262C30.8274 18.5016 31.2762 17.8849 31.5766 17.1936C31.8769 16.5023 32.0215 15.7534 32 15C32 14.7348 31.8946 14.4804 31.7071 14.2929C31.5196 14.1054 31.2652 14 31 14C30.7348 14 30.4804 14.1054 30.2929 14.2929C30.1054 14.4804 30 14.7348 30 15C30 17.622 27.629 18.53 25.826 18.841C26.4915 17.6611 26.8921 16.3504 27 15C27 14.2044 26.6839 13.4413 26.1213 12.8787C25.5587 12.3161 24.7956 12 24 12C23.2044 12 22.4413 12.3161 21.8787 12.8787C21.3161 13.4413 21 14.2044 21 15C21.1079 16.3504 21.5085 17.6611 22.174 18.841C20.371 18.53 18 17.622 18 15C18 14.7348 17.8946 14.4804 17.7071 14.2929C17.5196 14.1054 17.2652 14 17 14C16.7348 14 16.4804 14.1054 16.2929 14.2929C16.1054 14.4804 16 14.7348 16 15C15.9785 15.7534 16.1231 16.5023 16.4234 17.1936C16.7238 17.8849 17.1726 18.5016 17.738 19H16C14.9391 19 13.9217 19.4214 13.1716 20.1716C12.4214 20.9217 12 21.9391 12 23V24C12 24.5304 12.2107 25.0391 12.5858 25.4142C12.9609 25.7893 13.4696 26 14 26V31C14.0016 32.3256 14.5289 33.5964 15.4662 34.5338C16.4036 35.4711 17.6744 35.9984 19 36H29C30.3256 35.9984 31.5964 35.4711 32.5338 34.5338C33.4711 33.5964 33.9984 32.3256 34 31V26C34.5304 26 35.0391 25.7893 35.4142 25.4142C35.7893 25.0391 36 24.5304 36 24V23C36 21.9391 35.5786 20.9217 34.8284 20.1716C34.0783 19.4214 33.0609 19 32 19ZM24 14C24.2652 14 24.5196 14.1054 24.7071 14.2929C24.8946 14.4804 25 14.7348 25 15C24.8793 16.0628 24.5387 17.0889 24 18.013C23.4613 17.0889 23.1207 16.0628 23 15C23 14.7348 23.1054 14.4804 23.2929 14.2929C23.4804 14.1054 23.7348 14 24 14ZM14 23C14 22.4696 14.2107 21.9609 14.5858 21.5858C14.9609 21.2107 15.4696 21 16 21H23V24H14V23ZM16 31V26H23V34H19C18.2044 34 17.4413 33.6839 16.8787 33.1213C16.3161 32.5587 16 31.7956 16 31ZM32 31C32 31.7956 31.6839 32.5587 31.1213 33.1213C30.5587 33.6839 29.7956 34 29 34H25V26H32V31ZM25 24V21H32C32.5304 21 33.0391 21.2107 33.4142 21.5858C33.7893 21.9609 34 22.4696 34 23V24H25Z" fill="#333333"/>
</g>
<defs>
<clipPath id="clip0_6_20812">
<rect width="24" height="24" fill="white" transform="translate(12 12)"/>
</clipPath>
</defs>
</svg>
